G75*
%MOIN*%
%OFA0B0*%
%FSLAX24Y24*%
%IPPOS*%
%LPD*%
%AMOC8*
5,1,8,0,0,1.08239X$1,22.5*
%
%ADD10C,0.0000*%
%ADD11C,0.0600*%
%ADD12C,0.0480*%
%ADD13C,0.0472*%
%ADD14C,0.0100*%
%ADD15C,0.0354*%
%ADD16C,0.0120*%
%ADD17C,0.0120*%
D10*
X000160Y000160D02*
X000160Y019451D01*
X029294Y019451D01*
X029294Y000160D01*
X000160Y000160D01*
D11*
X000947Y005747D03*
X000947Y006747D03*
X000947Y007747D03*
X000947Y008747D03*
X000947Y011227D03*
X000947Y012227D03*
X000947Y013227D03*
X000947Y014227D03*
X000947Y015227D03*
X000947Y016227D03*
X000947Y017227D03*
X000947Y018227D03*
X003636Y018270D03*
X004636Y018270D03*
X020132Y017770D03*
X021132Y017770D03*
X021132Y018770D03*
X020132Y018770D03*
X028113Y007566D03*
X028113Y006566D03*
X028113Y005566D03*
X028113Y004566D03*
X025664Y001841D03*
X024664Y001841D03*
X023664Y001841D03*
X022664Y001841D03*
X021664Y001841D03*
X020664Y001841D03*
X019664Y001841D03*
X018664Y001841D03*
X017664Y001841D03*
X016664Y001841D03*
X015664Y001802D03*
X014664Y001802D03*
X013664Y001802D03*
X012664Y001802D03*
X011664Y001802D03*
X011664Y000802D03*
X012664Y000802D03*
X013664Y000802D03*
X014664Y000802D03*
X015664Y000802D03*
X016664Y000841D03*
X017664Y000841D03*
X018664Y000841D03*
X019664Y000841D03*
X020664Y000841D03*
X021664Y000841D03*
X022664Y000841D03*
X023664Y000841D03*
X024664Y000841D03*
X025664Y000841D03*
X009609Y000841D03*
X009609Y001841D03*
D12*
X027219Y010003D03*
X028219Y010003D03*
X028219Y011971D03*
X027219Y011971D03*
D13*
X018471Y016022D03*
X015471Y016022D03*
X015471Y019022D03*
X018471Y019022D03*
D14*
X017917Y018777D02*
X015771Y018777D01*
X015771Y018776D02*
X015813Y018839D01*
X015842Y018910D01*
X015857Y018984D01*
X015857Y018994D01*
X015500Y018994D01*
X015500Y019051D01*
X015857Y019051D01*
X015857Y019060D01*
X015853Y019081D01*
X017865Y019081D01*
X017865Y018902D01*
X017957Y018679D01*
X018128Y018508D01*
X018350Y018416D01*
X018592Y018416D01*
X018814Y018508D01*
X018985Y018679D01*
X019077Y018902D01*
X019077Y019081D01*
X019807Y019081D01*
X019789Y019063D01*
X019748Y019006D01*
X019715Y018943D01*
X019694Y018876D01*
X019685Y018820D01*
X020082Y018820D01*
X020082Y018720D01*
X019685Y018720D01*
X019694Y018665D01*
X019715Y018598D01*
X019748Y018534D01*
X019789Y018477D01*
X019839Y018427D01*
X019897Y018385D01*
X019960Y018353D01*
X020027Y018331D01*
X020082Y018323D01*
X020082Y018720D01*
X020182Y018720D01*
X020182Y018323D01*
X020238Y018331D01*
X020305Y018353D01*
X020368Y018385D01*
X020426Y018427D01*
X020476Y018477D01*
X020509Y018524D01*
X020564Y018391D01*
X020685Y018270D01*
X020564Y018150D01*
X020509Y018017D01*
X020476Y018063D01*
X020426Y018114D01*
X020368Y018155D01*
X020305Y018187D01*
X020238Y018209D01*
X020182Y018218D01*
X020182Y017820D01*
X020082Y017820D01*
X020082Y017720D01*
X019685Y017720D01*
X019694Y017665D01*
X019715Y017598D01*
X019748Y017534D01*
X019789Y017477D01*
X019839Y017427D01*
X019897Y017385D01*
X019960Y017353D01*
X020027Y017331D01*
X020082Y017323D01*
X020082Y017720D01*
X020182Y017720D01*
X020182Y017323D01*
X020238Y017331D01*
X020305Y017353D01*
X020368Y017385D01*
X020426Y017427D01*
X020476Y017477D01*
X020509Y017524D01*
X020564Y017391D01*
X020753Y017202D01*
X020999Y017100D01*
X021266Y017100D01*
X021512Y017202D01*
X021700Y017391D01*
X021802Y017637D01*
X021802Y017904D01*
X021700Y018150D01*
X021580Y018270D01*
X021700Y018391D01*
X021802Y018637D01*
X021802Y018904D01*
X021729Y019081D01*
X028924Y019081D01*
X028924Y000530D01*
X026260Y000530D01*
X026334Y000708D01*
X026334Y000974D01*
X026232Y001221D01*
X026111Y001341D01*
X026232Y001462D01*
X026334Y001708D01*
X026334Y001974D01*
X026232Y002221D01*
X026044Y002409D01*
X025797Y002511D01*
X025531Y002511D01*
X025284Y002409D01*
X025164Y002289D01*
X025044Y002409D01*
X024797Y002511D01*
X024531Y002511D01*
X024284Y002409D01*
X024164Y002289D01*
X024044Y002409D01*
X023797Y002511D01*
X023531Y002511D01*
X023284Y002409D01*
X023164Y002289D01*
X023044Y002409D01*
X022797Y002511D01*
X022531Y002511D01*
X022284Y002409D01*
X022096Y002221D01*
X022041Y002088D01*
X022007Y002134D01*
X021957Y002184D01*
X021900Y002226D01*
X021837Y002258D01*
X021769Y002280D01*
X021714Y002289D01*
X021714Y001891D01*
X021614Y001891D01*
X021614Y002289D01*
X021559Y002280D01*
X021491Y002258D01*
X021428Y002226D01*
X021371Y002184D01*
X021321Y002134D01*
X021287Y002088D01*
X021232Y002221D01*
X021044Y002409D01*
X020797Y002511D01*
X020531Y002511D01*
X020284Y002409D01*
X020164Y002289D01*
X020044Y002409D01*
X019797Y002511D01*
X019531Y002511D01*
X019284Y002409D01*
X019164Y002289D01*
X019044Y002409D01*
X018797Y002511D01*
X018531Y002511D01*
X018284Y002409D01*
X018164Y002289D01*
X018044Y002409D01*
X017797Y002511D01*
X017531Y002511D01*
X017284Y002409D01*
X017096Y002221D01*
X017041Y002088D01*
X017007Y002134D01*
X016957Y002184D01*
X016900Y002226D01*
X016837Y002258D01*
X016769Y002280D01*
X016714Y002289D01*
X016714Y001891D01*
X016614Y001891D01*
X016614Y002289D01*
X016559Y002280D01*
X016491Y002258D01*
X016428Y002226D01*
X016371Y002184D01*
X016321Y002134D01*
X016279Y002077D01*
X016277Y002073D01*
X016232Y002181D01*
X016044Y002370D01*
X015797Y002472D01*
X015531Y002472D01*
X015284Y002370D01*
X015164Y002249D01*
X015044Y002370D01*
X014797Y002472D01*
X014531Y002472D01*
X014284Y002370D01*
X014164Y002249D01*
X014044Y002370D01*
X013797Y002472D01*
X013531Y002472D01*
X013284Y002370D01*
X013164Y002249D01*
X013044Y002370D01*
X012797Y002472D01*
X012531Y002472D01*
X012284Y002370D01*
X012096Y002181D01*
X012041Y002048D01*
X012007Y002095D01*
X011957Y002145D01*
X011900Y002187D01*
X011837Y002219D01*
X011769Y002241D01*
X011714Y002249D01*
X011714Y001852D01*
X011614Y001852D01*
X011614Y002249D01*
X011559Y002241D01*
X011491Y002219D01*
X011428Y002187D01*
X011371Y002145D01*
X011321Y002095D01*
X011279Y002038D01*
X011247Y001975D01*
X011225Y001907D01*
X011216Y001852D01*
X011614Y001852D01*
X011614Y001752D01*
X011216Y001752D01*
X011225Y001696D01*
X011247Y001629D01*
X011279Y001566D01*
X011321Y001509D01*
X011371Y001459D01*
X011428Y001417D01*
X011491Y001385D01*
X011559Y001363D01*
X011614Y001354D01*
X011614Y001752D01*
X011714Y001752D01*
X011714Y001354D01*
X011769Y001363D01*
X011837Y001385D01*
X011900Y001417D01*
X011957Y001459D01*
X012007Y001509D01*
X012041Y001555D01*
X012096Y001422D01*
X012216Y001302D01*
X012096Y001181D01*
X012041Y001048D01*
X012007Y001095D01*
X011957Y001145D01*
X012081Y001145D01*
X011957Y001145D02*
X011900Y001187D01*
X011837Y001219D01*
X011769Y001241D01*
X011714Y001249D01*
X011714Y000852D01*
X011614Y000852D01*
X011614Y001249D01*
X011559Y001241D01*
X011491Y001219D01*
X011428Y001187D01*
X011371Y001145D01*
X009941Y001145D01*
X009952Y001134D02*
X009902Y001184D01*
X009856Y001218D01*
X009988Y001273D01*
X010177Y001462D01*
X010279Y001708D01*
X010279Y001974D01*
X010177Y002221D01*
X009988Y002409D01*
X009742Y002511D01*
X009476Y002511D01*
X009229Y002409D01*
X009041Y002221D01*
X008939Y001974D01*
X008939Y001708D01*
X009041Y001462D01*
X009229Y001273D01*
X009362Y001218D01*
X009316Y001184D01*
X009266Y001134D01*
X009224Y001077D01*
X009192Y001014D01*
X009170Y000947D01*
X009161Y000891D01*
X009559Y000891D01*
X009559Y000791D01*
X009161Y000791D01*
X009170Y000736D01*
X009192Y000668D01*
X009224Y000605D01*
X009266Y000548D01*
X009284Y000530D01*
X000530Y000530D01*
X000530Y005217D01*
X000568Y005179D01*
X000814Y005077D01*
X001081Y005077D01*
X001327Y005179D01*
X001515Y005367D01*
X001617Y005613D01*
X001617Y005880D01*
X001515Y006126D01*
X001395Y006247D01*
X001515Y006367D01*
X001617Y006613D01*
X001617Y006880D01*
X001515Y007126D01*
X001395Y007247D01*
X001515Y007367D01*
X001617Y007613D01*
X001617Y007880D01*
X001515Y008126D01*
X001327Y008315D01*
X001194Y008370D01*
X001241Y008403D01*
X001291Y008453D01*
X001332Y008511D01*
X001364Y008574D01*
X001386Y008641D01*
X001395Y008697D01*
X000997Y008697D01*
X000997Y008797D01*
X000897Y008797D01*
X000897Y009194D01*
X000842Y009186D01*
X000775Y009164D01*
X000712Y009132D01*
X000654Y009090D01*
X000604Y009040D01*
X000563Y008983D01*
X000530Y008919D01*
X000530Y008918D01*
X000530Y010697D01*
X000568Y010659D01*
X000814Y010557D01*
X001081Y010557D01*
X001327Y010659D01*
X001515Y010847D01*
X001617Y011094D01*
X001617Y011360D01*
X001515Y011606D01*
X001395Y011727D01*
X001515Y011847D01*
X001617Y012094D01*
X001617Y012360D01*
X001515Y012606D01*
X001395Y012727D01*
X001515Y012847D01*
X001617Y013094D01*
X001617Y013360D01*
X001515Y013606D01*
X001395Y013727D01*
X001515Y013847D01*
X001617Y014094D01*
X001617Y014360D01*
X001515Y014606D01*
X001395Y014727D01*
X001515Y014847D01*
X001617Y015094D01*
X001617Y015360D01*
X001515Y015606D01*
X001395Y015727D01*
X001515Y015847D01*
X001617Y016094D01*
X001617Y016360D01*
X001515Y016606D01*
X001327Y016795D01*
X001194Y016850D01*
X001241Y016884D01*
X001291Y016934D01*
X001332Y016991D01*
X001364Y017054D01*
X001386Y017122D01*
X001395Y017177D01*
X000997Y017177D01*
X000997Y017277D01*
X000897Y017277D01*
X000897Y017675D01*
X000842Y017666D01*
X000775Y017644D01*
X000712Y017612D01*
X000654Y017570D01*
X000604Y017520D01*
X000563Y017463D01*
X000530Y017400D01*
X000530Y017399D01*
X000530Y018055D01*
X000530Y018054D01*
X000563Y017991D01*
X000604Y017934D01*
X000654Y017884D01*
X000712Y017842D01*
X000775Y017810D01*
X000842Y017788D01*
X000897Y017779D01*
X000897Y018177D01*
X000997Y018177D01*
X000997Y017779D01*
X001053Y017788D01*
X001120Y017810D01*
X001183Y017842D01*
X001241Y017884D01*
X001291Y017934D01*
X001332Y017991D01*
X001364Y018054D01*
X001386Y018122D01*
X001395Y018177D01*
X000997Y018177D01*
X000997Y018277D01*
X000897Y018277D01*
X000897Y018675D01*
X000842Y018666D01*
X000775Y018644D01*
X000712Y018612D01*
X000654Y018570D01*
X000604Y018520D01*
X000563Y018463D01*
X000530Y018400D01*
X000530Y018399D01*
X000530Y019081D01*
X015089Y019081D01*
X015085Y019060D01*
X015085Y019051D01*
X015442Y019051D01*
X015442Y018994D01*
X015085Y018994D01*
X015085Y018984D01*
X015100Y018910D01*
X015129Y018839D01*
X015171Y018776D01*
X015225Y018722D01*
X015288Y018680D01*
X015358Y018651D01*
X015433Y018636D01*
X015442Y018636D01*
X015442Y018993D01*
X015500Y018993D01*
X015500Y018636D01*
X015509Y018636D01*
X015584Y018651D01*
X015654Y018680D01*
X015717Y018722D01*
X015771Y018776D01*
X015828Y018875D02*
X017876Y018875D01*
X017865Y018974D02*
X015855Y018974D01*
X015855Y019072D02*
X017865Y019072D01*
X017958Y018678D02*
X015649Y018678D01*
X015500Y018678D02*
X015442Y018678D01*
X015442Y018777D02*
X015500Y018777D01*
X015500Y018875D02*
X015442Y018875D01*
X015442Y018974D02*
X015500Y018974D01*
X015293Y018678D02*
X004827Y018678D01*
X004809Y018687D02*
X004742Y018709D01*
X004686Y018718D01*
X004686Y018320D01*
X004586Y018320D01*
X004586Y018718D01*
X004531Y018709D01*
X004464Y018687D01*
X004401Y018655D01*
X004343Y018614D01*
X004293Y018563D01*
X004259Y018517D01*
X004204Y018650D01*
X004016Y018838D01*
X003770Y018940D01*
X003503Y018940D01*
X003257Y018838D01*
X003068Y018650D01*
X002966Y018404D01*
X002966Y018137D01*
X003068Y017891D01*
X003257Y017702D01*
X003503Y017600D01*
X003770Y017600D01*
X004016Y017702D01*
X004204Y017891D01*
X004259Y018024D01*
X004293Y017977D01*
X004343Y017927D01*
X004401Y017885D01*
X004464Y017853D01*
X004531Y017831D01*
X004586Y017823D01*
X004586Y018220D01*
X004686Y018220D01*
X004686Y017823D01*
X004742Y017831D01*
X004809Y017853D01*
X004872Y017885D01*
X004930Y017927D01*
X004980Y017977D01*
X005021Y018034D01*
X005053Y018098D01*
X005075Y018165D01*
X005084Y018220D01*
X004686Y018220D01*
X004686Y018320D01*
X005084Y018320D01*
X005075Y018376D01*
X005053Y018443D01*
X005021Y018506D01*
X004980Y018563D01*
X004930Y018614D01*
X004872Y018655D01*
X004809Y018687D01*
X004686Y018678D02*
X004586Y018678D01*
X004586Y018580D02*
X004686Y018580D01*
X004686Y018481D02*
X004586Y018481D01*
X004586Y018383D02*
X004686Y018383D01*
X004686Y018284D02*
X020671Y018284D01*
X020600Y018186D02*
X020309Y018186D01*
X020182Y018186D02*
X020082Y018186D01*
X020082Y018218D02*
X020027Y018209D01*
X019960Y018187D01*
X019897Y018155D01*
X019839Y018114D01*
X019789Y018063D01*
X019748Y018006D01*
X019715Y017943D01*
X019694Y017876D01*
X019685Y017820D01*
X020082Y017820D01*
X020082Y018218D01*
X019956Y018186D02*
X018731Y018186D01*
X018738Y018183D02*
X018537Y018266D01*
X018319Y018266D01*
X018118Y018183D01*
X017964Y018029D01*
X017881Y017828D01*
X017881Y017610D01*
X017964Y017409D01*
X018118Y017255D01*
X018319Y017172D01*
X018537Y017172D01*
X018738Y017255D01*
X018892Y017409D01*
X018975Y017610D01*
X018975Y017828D01*
X018892Y018029D01*
X018738Y018183D01*
X018834Y018087D02*
X019813Y018087D01*
X019739Y017989D02*
X018908Y017989D01*
X018949Y017890D02*
X019698Y017890D01*
X019689Y017693D02*
X018975Y017693D01*
X018975Y017792D02*
X020082Y017792D01*
X020082Y017890D02*
X020182Y017890D01*
X020182Y017989D02*
X020082Y017989D01*
X020082Y018087D02*
X020182Y018087D01*
X020452Y018087D02*
X020539Y018087D01*
X020573Y018383D02*
X020363Y018383D01*
X020479Y018481D02*
X020527Y018481D01*
X020182Y018481D02*
X020082Y018481D01*
X020082Y018383D02*
X020182Y018383D01*
X020182Y018580D02*
X020082Y018580D01*
X020082Y018678D02*
X020182Y018678D01*
X020082Y018777D02*
X019025Y018777D01*
X019066Y018875D02*
X019693Y018875D01*
X019731Y018974D02*
X019077Y018974D01*
X019077Y019072D02*
X019798Y019072D01*
X019691Y018678D02*
X018984Y018678D01*
X018886Y018580D02*
X019725Y018580D01*
X019786Y018481D02*
X018749Y018481D01*
X018193Y018481D02*
X005034Y018481D01*
X005073Y018383D02*
X019902Y018383D01*
X020082Y017693D02*
X020182Y017693D01*
X020182Y017595D02*
X020082Y017595D01*
X020082Y017496D02*
X020182Y017496D01*
X020182Y017398D02*
X020082Y017398D01*
X019880Y017398D02*
X018880Y017398D01*
X018928Y017496D02*
X019775Y017496D01*
X019717Y017595D02*
X018968Y017595D01*
X018782Y017299D02*
X020656Y017299D01*
X020562Y017398D02*
X020385Y017398D01*
X020489Y017496D02*
X020521Y017496D01*
X020757Y017201D02*
X018606Y017201D01*
X018250Y017201D02*
X016220Y017201D01*
X016257Y017216D02*
X016411Y017370D01*
X016495Y017571D01*
X016495Y017789D01*
X016411Y017990D01*
X016257Y018144D01*
X016056Y018227D01*
X015839Y018227D01*
X015637Y018144D01*
X015484Y017990D01*
X015400Y017789D01*
X015400Y017571D01*
X015484Y017370D01*
X015637Y017216D01*
X015839Y017133D01*
X016056Y017133D01*
X016257Y017216D01*
X016341Y017299D02*
X018074Y017299D01*
X017975Y017398D02*
X016423Y017398D01*
X016464Y017496D02*
X017928Y017496D01*
X017887Y017595D02*
X016495Y017595D01*
X016495Y017693D02*
X017881Y017693D01*
X017881Y017792D02*
X016493Y017792D01*
X016453Y017890D02*
X017906Y017890D01*
X017947Y017989D02*
X016412Y017989D01*
X016314Y018087D02*
X018022Y018087D01*
X018124Y018186D02*
X016156Y018186D01*
X015739Y018186D02*
X005079Y018186D01*
X005048Y018087D02*
X015581Y018087D01*
X015483Y017989D02*
X004988Y017989D01*
X004879Y017890D02*
X015442Y017890D01*
X015402Y017792D02*
X004105Y017792D01*
X004204Y017890D02*
X004394Y017890D01*
X004285Y017989D02*
X004245Y017989D01*
X004586Y017989D02*
X004686Y017989D01*
X004686Y018087D02*
X004586Y018087D01*
X004586Y018186D02*
X004686Y018186D01*
X004686Y017890D02*
X004586Y017890D01*
X003994Y017693D02*
X015400Y017693D01*
X015400Y017595D02*
X001207Y017595D01*
X001183Y017612D02*
X001241Y017570D01*
X001291Y017520D01*
X001332Y017463D01*
X001364Y017400D01*
X001386Y017332D01*
X001395Y017277D01*
X000997Y017277D01*
X000997Y017675D01*
X001053Y017666D01*
X001120Y017644D01*
X001183Y017612D01*
X001308Y017496D02*
X015431Y017496D01*
X015472Y017398D02*
X006984Y017398D01*
X007084Y017356D02*
X006883Y017439D01*
X006665Y017439D01*
X006464Y017356D01*
X006310Y017202D01*
X006227Y017001D01*
X006227Y016783D01*
X006310Y016582D01*
X006464Y016428D01*
X006665Y016345D01*
X006883Y016345D01*
X007084Y016428D01*
X007238Y016582D01*
X007321Y016783D01*
X007321Y017001D01*
X007238Y017202D01*
X007084Y017356D01*
X007141Y017299D02*
X015554Y017299D01*
X015674Y017201D02*
X007239Y017201D01*
X007280Y017102D02*
X020995Y017102D01*
X021270Y017102D02*
X026053Y017102D01*
X026110Y017159D02*
X025956Y017005D01*
X025873Y016804D01*
X025873Y016587D01*
X025956Y016386D01*
X026110Y016232D01*
X026311Y016148D01*
X026529Y016148D01*
X026730Y016232D01*
X026884Y016386D01*
X026967Y016587D01*
X026967Y016804D01*
X026884Y017005D01*
X026730Y017159D01*
X026529Y017243D01*
X026311Y017243D01*
X026110Y017159D01*
X026210Y017201D02*
X021508Y017201D01*
X021609Y017299D02*
X026972Y017299D01*
X027015Y017255D02*
X027217Y017172D01*
X027434Y017172D01*
X027635Y017255D01*
X027789Y017409D01*
X027873Y017610D01*
X027873Y017828D01*
X027789Y018029D01*
X027635Y018183D01*
X027434Y018266D01*
X027217Y018266D01*
X027015Y018183D01*
X026862Y018029D01*
X026778Y017828D01*
X026778Y017610D01*
X026862Y017409D01*
X027015Y017255D01*
X027147Y017201D02*
X026630Y017201D01*
X026787Y017102D02*
X028924Y017102D01*
X028924Y017004D02*
X026885Y017004D01*
X026925Y016905D02*
X028924Y016905D01*
X028924Y016807D02*
X026966Y016807D01*
X026967Y016708D02*
X028924Y016708D01*
X028924Y016610D02*
X026967Y016610D01*
X026936Y016511D02*
X028924Y016511D01*
X028924Y016413D02*
X026895Y016413D01*
X026812Y016314D02*
X028924Y016314D01*
X028924Y016216D02*
X026691Y016216D01*
X026149Y016216D02*
X024152Y016216D01*
X024250Y016175D02*
X024048Y016258D01*
X023831Y016258D01*
X023630Y016175D01*
X023476Y016021D01*
X023392Y015820D01*
X023392Y015602D01*
X023476Y015401D01*
X023630Y015247D01*
X023831Y015164D01*
X024048Y015164D01*
X024250Y015247D01*
X024403Y015401D01*
X024487Y015602D01*
X024487Y015820D01*
X024403Y016021D01*
X024250Y016175D01*
X024308Y016117D02*
X028924Y016117D01*
X028924Y016019D02*
X024405Y016019D01*
X024445Y015920D02*
X028924Y015920D01*
X028924Y015822D02*
X024486Y015822D01*
X024487Y015723D02*
X028924Y015723D01*
X028924Y015625D02*
X024487Y015625D01*
X024455Y015526D02*
X028924Y015526D01*
X028924Y015428D02*
X024414Y015428D01*
X024331Y015329D02*
X028924Y015329D01*
X028924Y015231D02*
X024209Y015231D01*
X023670Y015231D02*
X016629Y015231D01*
X016652Y015287D02*
X016652Y015505D01*
X016569Y015706D01*
X016415Y015860D01*
X016214Y015943D01*
X016077Y015943D01*
X016077Y016143D01*
X015985Y016366D01*
X015814Y016536D01*
X015592Y016628D01*
X015350Y016628D01*
X015128Y016536D01*
X014957Y016366D01*
X014865Y016143D01*
X014865Y015902D01*
X014957Y015679D01*
X015128Y015508D01*
X015350Y015416D01*
X015558Y015416D01*
X015558Y015287D01*
X015641Y015086D01*
X015650Y015078D01*
X015637Y015073D01*
X015484Y014919D01*
X015400Y014718D01*
X015400Y014500D01*
X015484Y014299D01*
X015637Y014145D01*
X015839Y014062D01*
X016056Y014062D01*
X016174Y014110D01*
X016148Y014048D01*
X016148Y013831D01*
X016232Y013630D01*
X016386Y013476D01*
X016587Y013392D01*
X016804Y013392D01*
X017005Y013476D01*
X017159Y013630D01*
X017243Y013831D01*
X017243Y014048D01*
X017159Y014250D01*
X017005Y014403D01*
X016804Y014487D01*
X016587Y014487D01*
X016469Y014438D01*
X016495Y014500D01*
X016495Y014718D01*
X016411Y014919D01*
X016403Y014927D01*
X016415Y014932D01*
X016569Y015086D01*
X016652Y015287D01*
X016652Y015329D02*
X023548Y015329D01*
X023465Y015428D02*
X018620Y015428D01*
X018592Y015416D02*
X018814Y015508D01*
X018985Y015679D01*
X019077Y015902D01*
X019077Y016143D01*
X018985Y016366D01*
X018814Y016536D01*
X018592Y016628D01*
X018350Y016628D01*
X018128Y016536D01*
X017957Y016366D01*
X017865Y016143D01*
X017865Y015902D01*
X017957Y015679D01*
X018128Y015508D01*
X018350Y015416D01*
X018592Y015416D01*
X018832Y015526D02*
X023424Y015526D01*
X023392Y015625D02*
X018931Y015625D01*
X019003Y015723D02*
X023392Y015723D01*
X023393Y015822D02*
X019044Y015822D01*
X019077Y015920D02*
X023434Y015920D01*
X023475Y016019D02*
X019077Y016019D01*
X019077Y016117D02*
X023572Y016117D01*
X023727Y016216D02*
X019047Y016216D01*
X019006Y016314D02*
X026027Y016314D01*
X025945Y016413D02*
X018938Y016413D01*
X018840Y016511D02*
X025904Y016511D01*
X025873Y016610D02*
X018637Y016610D01*
X018305Y016610D02*
X015637Y016610D01*
X015840Y016511D02*
X018103Y016511D01*
X018004Y016413D02*
X015938Y016413D01*
X016006Y016314D02*
X017936Y016314D01*
X017895Y016216D02*
X016047Y016216D01*
X016077Y016117D02*
X017865Y016117D01*
X017865Y016019D02*
X016077Y016019D01*
X016270Y015920D02*
X017865Y015920D01*
X017898Y015822D02*
X016453Y015822D01*
X016552Y015723D02*
X017939Y015723D01*
X018011Y015625D02*
X016603Y015625D01*
X016643Y015526D02*
X018110Y015526D01*
X018323Y015428D02*
X016652Y015428D01*
X016588Y015132D02*
X028924Y015132D01*
X028924Y015034D02*
X016516Y015034D01*
X016418Y014935D02*
X028924Y014935D01*
X028924Y014837D02*
X016445Y014837D01*
X016486Y014738D02*
X023756Y014738D01*
X023708Y014718D02*
X023554Y014564D01*
X023471Y014363D01*
X023471Y014146D01*
X023554Y013945D01*
X023708Y013791D01*
X023909Y013707D01*
X024127Y013707D01*
X024328Y013791D01*
X024482Y013945D01*
X024565Y014146D01*
X024565Y014363D01*
X024482Y014564D01*
X024328Y014718D01*
X024127Y014802D01*
X023909Y014802D01*
X023708Y014718D01*
X023630Y014640D02*
X016495Y014640D01*
X016495Y014541D02*
X023545Y014541D01*
X023504Y014443D02*
X016911Y014443D01*
X017065Y014344D02*
X023471Y014344D01*
X023471Y014246D02*
X017161Y014246D01*
X017202Y014147D02*
X023471Y014147D01*
X023511Y014049D02*
X017243Y014049D01*
X017243Y013950D02*
X023552Y013950D01*
X023647Y013852D02*
X017243Y013852D01*
X017210Y013753D02*
X017612Y013753D01*
X017567Y013734D02*
X017413Y013580D01*
X017329Y013379D01*
X017329Y013161D01*
X017413Y012960D01*
X017567Y012806D01*
X017768Y012723D01*
X017985Y012723D01*
X018187Y012806D01*
X018340Y012960D01*
X018424Y013161D01*
X018424Y013379D01*
X018340Y013580D01*
X018187Y013734D01*
X017985Y013817D01*
X017768Y013817D01*
X017567Y013734D01*
X017487Y013655D02*
X017170Y013655D01*
X017086Y013556D02*
X017403Y013556D01*
X017362Y013458D02*
X016962Y013458D01*
X017329Y013359D02*
X001617Y013359D01*
X001617Y013261D02*
X017329Y013261D01*
X017329Y013162D02*
X001617Y013162D01*
X001605Y013064D02*
X008485Y013064D01*
X008393Y013025D02*
X008239Y012872D01*
X008156Y012670D01*
X001452Y012670D01*
X001436Y012768D02*
X008197Y012768D01*
X008156Y012670D02*
X008156Y012453D01*
X008239Y012252D01*
X008393Y012098D01*
X008434Y012081D01*
X008433Y012081D01*
X008279Y011927D01*
X008196Y011726D01*
X008196Y011508D01*
X008279Y011307D01*
X008433Y011153D01*
X008445Y011148D01*
X008358Y011061D01*
X008274Y010859D01*
X008274Y010642D01*
X008314Y010545D01*
X008200Y010431D01*
X008117Y010230D01*
X008117Y010012D01*
X008200Y009811D01*
X008354Y009657D01*
X008555Y009574D01*
X008773Y009574D01*
X008886Y009620D01*
X008751Y009486D01*
X008668Y009285D01*
X008668Y009067D01*
X008751Y008866D01*
X008905Y008712D01*
X009106Y008629D01*
X009324Y008629D01*
X009525Y008712D01*
X009679Y008866D01*
X009762Y009067D01*
X009762Y009285D01*
X009679Y009486D01*
X009525Y009640D01*
X009324Y009723D01*
X009106Y009723D01*
X008993Y009676D01*
X009128Y009811D01*
X009211Y010012D01*
X009211Y010230D01*
X009171Y010326D01*
X009285Y010441D01*
X009369Y010642D01*
X009369Y010859D01*
X009285Y011061D01*
X009131Y011214D01*
X009119Y011219D01*
X009207Y011307D01*
X009290Y011508D01*
X009290Y011726D01*
X009207Y011927D01*
X009053Y012081D01*
X009012Y012097D01*
X009013Y012098D01*
X009167Y012252D01*
X009251Y012453D01*
X009251Y012670D01*
X020124Y012670D01*
X020165Y012711D02*
X020011Y012557D01*
X019928Y012355D01*
X019928Y012138D01*
X020011Y011937D01*
X020165Y011783D01*
X020366Y011699D01*
X020584Y011699D01*
X020785Y011783D01*
X020939Y011937D01*
X021022Y012138D01*
X021022Y012355D01*
X020939Y012557D01*
X020785Y012711D01*
X020584Y012794D01*
X020366Y012794D01*
X020165Y012711D01*
X020304Y012768D02*
X019669Y012768D01*
X019761Y012806D02*
X019560Y012723D01*
X019343Y012723D01*
X019141Y012806D01*
X018988Y012960D01*
X018904Y013161D01*
X018904Y013379D01*
X018988Y013580D01*
X019141Y013734D01*
X019343Y013817D01*
X019560Y013817D01*
X019761Y013734D01*
X019915Y013580D01*
X019999Y013379D01*
X019999Y013161D01*
X019915Y012960D01*
X019761Y012806D01*
X019821Y012867D02*
X028924Y012867D01*
X028924Y012965D02*
X019917Y012965D01*
X019958Y013064D02*
X028924Y013064D01*
X028924Y013162D02*
X019999Y013162D01*
X019999Y013261D02*
X028924Y013261D01*
X028924Y013359D02*
X019999Y013359D01*
X019966Y013458D02*
X028924Y013458D01*
X028924Y013556D02*
X019925Y013556D01*
X019841Y013655D02*
X028924Y013655D01*
X028924Y013753D02*
X024238Y013753D01*
X024389Y013852D02*
X028924Y013852D01*
X028924Y013950D02*
X024484Y013950D01*
X024525Y014049D02*
X028924Y014049D01*
X028924Y014147D02*
X024565Y014147D01*
X024565Y014246D02*
X028924Y014246D01*
X028924Y014344D02*
X024565Y014344D01*
X024533Y014443D02*
X028924Y014443D01*
X028924Y014541D02*
X024492Y014541D01*
X024407Y014640D02*
X028924Y014640D01*
X028924Y014738D02*
X024281Y014738D01*
X023799Y013753D02*
X019716Y013753D01*
X019187Y013753D02*
X018141Y013753D01*
X018266Y013655D02*
X019062Y013655D01*
X018978Y013556D02*
X018350Y013556D01*
X018391Y013458D02*
X018937Y013458D01*
X018904Y013359D02*
X018424Y013359D01*
X018424Y013261D02*
X018904Y013261D01*
X018904Y013162D02*
X018424Y013162D01*
X018383Y013064D02*
X018945Y013064D01*
X018986Y012965D02*
X018342Y012965D01*
X018247Y012867D02*
X019081Y012867D01*
X019234Y012768D02*
X018094Y012768D01*
X017659Y012768D02*
X009210Y012768D01*
X009251Y012670D02*
X009167Y012872D01*
X009013Y013025D01*
X008812Y013109D01*
X008595Y013109D01*
X008393Y013025D01*
X008333Y012965D02*
X001564Y012965D01*
X001523Y012867D02*
X008237Y012867D01*
X008156Y012571D02*
X001530Y012571D01*
X001571Y012473D02*
X008156Y012473D01*
X008189Y012374D02*
X001612Y012374D01*
X001617Y012276D02*
X008230Y012276D01*
X008314Y012177D02*
X001617Y012177D01*
X001611Y012079D02*
X008431Y012079D01*
X008332Y011980D02*
X001570Y011980D01*
X001530Y011882D02*
X008260Y011882D01*
X008219Y011783D02*
X001451Y011783D01*
X001437Y011685D02*
X008196Y011685D01*
X008196Y011586D02*
X001524Y011586D01*
X001565Y011488D02*
X008204Y011488D01*
X008245Y011389D02*
X001605Y011389D01*
X001617Y011291D02*
X008295Y011291D01*
X008394Y011192D02*
X001617Y011192D01*
X001617Y011094D02*
X008391Y011094D01*
X008330Y010995D02*
X001577Y010995D01*
X001536Y010897D02*
X008290Y010897D01*
X008274Y010798D02*
X001466Y010798D01*
X001368Y010700D02*
X006253Y010700D01*
X006272Y010707D02*
X006071Y010624D01*
X005917Y010470D01*
X005833Y010269D01*
X005833Y010051D01*
X005917Y009850D01*
X006071Y009696D01*
X006272Y009613D01*
X006489Y009613D01*
X006690Y009696D01*
X006844Y009850D01*
X006928Y010051D01*
X006928Y010269D01*
X006844Y010470D01*
X006690Y010624D01*
X006489Y010707D01*
X006272Y010707D01*
X006508Y010700D02*
X008274Y010700D01*
X008291Y010601D02*
X006713Y010601D01*
X006812Y010503D02*
X008272Y010503D01*
X008189Y010404D02*
X006872Y010404D01*
X006912Y010306D02*
X008148Y010306D01*
X008117Y010207D02*
X006928Y010207D01*
X006928Y010109D02*
X008117Y010109D01*
X008118Y010010D02*
X006911Y010010D01*
X006870Y009912D02*
X008158Y009912D01*
X008199Y009813D02*
X006807Y009813D01*
X006709Y009715D02*
X008296Y009715D01*
X008452Y009616D02*
X006497Y009616D01*
X006264Y009616D02*
X002516Y009616D01*
X002592Y009693D02*
X002676Y009894D01*
X002676Y010111D01*
X002592Y010313D01*
X002438Y010466D01*
X002237Y010550D01*
X002020Y010550D01*
X001819Y010466D01*
X001665Y010313D01*
X001581Y010111D01*
X001581Y009894D01*
X001665Y009693D01*
X001819Y009539D01*
X002020Y009455D01*
X002237Y009455D01*
X002438Y009539D01*
X002592Y009693D01*
X002601Y009715D02*
X006052Y009715D01*
X005954Y009813D02*
X002642Y009813D01*
X002676Y009912D02*
X005891Y009912D01*
X005850Y010010D02*
X002676Y010010D01*
X002676Y010109D02*
X005833Y010109D01*
X005833Y010207D02*
X002636Y010207D01*
X002595Y010306D02*
X005849Y010306D01*
X005889Y010404D02*
X002501Y010404D01*
X002351Y010503D02*
X005949Y010503D01*
X006048Y010601D02*
X001187Y010601D01*
X001662Y010306D02*
X000530Y010306D01*
X000530Y010404D02*
X001756Y010404D01*
X001906Y010503D02*
X000530Y010503D01*
X000530Y010601D02*
X000708Y010601D01*
X000530Y010207D02*
X001621Y010207D01*
X001581Y010109D02*
X000530Y010109D01*
X000530Y010010D02*
X001581Y010010D01*
X001581Y009912D02*
X000530Y009912D01*
X000530Y009813D02*
X001615Y009813D01*
X001656Y009715D02*
X000530Y009715D01*
X000530Y009616D02*
X001741Y009616D01*
X001870Y009518D02*
X000530Y009518D01*
X000530Y009419D02*
X008724Y009419D01*
X008683Y009321D02*
X000530Y009321D01*
X000530Y009222D02*
X008668Y009222D01*
X008668Y009124D02*
X001194Y009124D01*
X001183Y009132D02*
X001120Y009164D01*
X001053Y009186D01*
X000997Y009194D01*
X000997Y008797D01*
X001395Y008797D01*
X001386Y008852D01*
X001364Y008919D01*
X001332Y008983D01*
X001291Y009040D01*
X001241Y009090D01*
X001183Y009132D01*
X001301Y009025D02*
X008685Y009025D01*
X008726Y008927D02*
X001361Y008927D01*
X001390Y008828D02*
X008789Y008828D01*
X008888Y008730D02*
X000997Y008730D01*
X000997Y008828D02*
X000897Y008828D01*
X000897Y008927D02*
X000997Y008927D01*
X000997Y009025D02*
X000897Y009025D01*
X000897Y009124D02*
X000997Y009124D01*
X000701Y009124D02*
X000530Y009124D01*
X000530Y009025D02*
X000593Y009025D01*
X000534Y008927D02*
X000530Y008927D01*
X001271Y008434D02*
X014372Y008434D01*
X014319Y008456D02*
X014520Y008373D01*
X014737Y008373D01*
X014938Y008456D01*
X015092Y008610D01*
X015176Y008811D01*
X015176Y009029D01*
X015092Y009230D01*
X014938Y009384D01*
X014737Y009467D01*
X014520Y009467D01*
X014319Y009384D01*
X014165Y009230D01*
X014081Y009029D01*
X014081Y008811D01*
X014165Y008610D01*
X014319Y008456D01*
X014242Y008533D02*
X001343Y008533D01*
X001383Y008631D02*
X009100Y008631D01*
X009330Y008631D02*
X014156Y008631D01*
X014115Y008730D02*
X009543Y008730D01*
X009641Y008828D02*
X014081Y008828D01*
X014081Y008927D02*
X009704Y008927D01*
X009745Y009025D02*
X014081Y009025D01*
X014121Y009124D02*
X009762Y009124D01*
X009762Y009222D02*
X014161Y009222D01*
X014255Y009321D02*
X009747Y009321D01*
X009707Y009419D02*
X014404Y009419D01*
X014853Y009419D02*
X027034Y009419D01*
X027098Y009393D02*
X026874Y009485D01*
X026702Y009657D01*
X026609Y009881D01*
X026609Y010124D01*
X026702Y010348D01*
X026874Y010520D01*
X027098Y010613D01*
X027340Y010613D01*
X027565Y010520D01*
X027736Y010348D01*
X027829Y010124D01*
X027829Y009881D01*
X027736Y009657D01*
X027565Y009485D01*
X027340Y009393D01*
X027098Y009393D01*
X026841Y009518D02*
X009647Y009518D01*
X009549Y009616D02*
X026743Y009616D01*
X026678Y009715D02*
X009344Y009715D01*
X009129Y009813D02*
X026637Y009813D01*
X026609Y009912D02*
X009170Y009912D01*
X009210Y010010D02*
X026609Y010010D01*
X026609Y010109D02*
X009211Y010109D01*
X009211Y010207D02*
X026644Y010207D01*
X026684Y010306D02*
X014987Y010306D01*
X015037Y010326D02*
X014836Y010243D01*
X014618Y010243D01*
X014417Y010326D01*
X014263Y010480D01*
X014180Y010681D01*
X014180Y010899D01*
X014263Y011100D01*
X014417Y011254D01*
X014618Y011337D01*
X014836Y011337D01*
X015037Y011254D01*
X015191Y011100D01*
X015274Y010899D01*
X015274Y010681D01*
X015191Y010480D01*
X015037Y010326D01*
X015115Y010404D02*
X026758Y010404D01*
X026856Y010503D02*
X017727Y010503D01*
X017670Y010479D02*
X017872Y010562D01*
X018025Y010716D01*
X018109Y010917D01*
X018109Y011135D01*
X018025Y011336D01*
X017872Y011490D01*
X017670Y011573D01*
X017453Y011573D01*
X017252Y011490D01*
X017098Y011336D01*
X017014Y011135D01*
X017014Y010917D01*
X017098Y010716D01*
X017252Y010562D01*
X017453Y010479D01*
X017670Y010479D01*
X017910Y010601D02*
X027070Y010601D01*
X027368Y010601D02*
X028924Y010601D01*
X028924Y010503D02*
X027582Y010503D01*
X027680Y010404D02*
X028924Y010404D01*
X028924Y010306D02*
X028468Y010306D01*
X028468Y010305D02*
X028404Y010348D01*
X028333Y010378D01*
X028258Y010393D01*
X028249Y010393D01*
X028249Y010033D01*
X028189Y010033D01*
X028189Y010393D01*
X028181Y010393D01*
X028105Y010378D01*
X028034Y010348D01*
X027970Y010305D01*
X027916Y010251D01*
X027873Y010187D01*
X027844Y010116D01*
X027829Y010041D01*
X027829Y010033D01*
X028189Y010033D01*
X028189Y009973D01*
X027829Y009973D01*
X027829Y009964D01*
X027844Y009889D01*
X027873Y009818D01*
X027916Y009754D01*
X027970Y009700D01*
X028034Y009657D01*
X028105Y009628D01*
X028181Y009613D01*
X028189Y009613D01*
X028189Y009973D01*
X028249Y009973D01*
X028249Y010033D01*
X028609Y010033D01*
X028609Y010041D01*
X028594Y010116D01*
X028565Y010187D01*
X028522Y010251D01*
X028468Y010305D01*
X028551Y010207D02*
X028924Y010207D01*
X028924Y010109D02*
X028596Y010109D01*
X028609Y009973D02*
X028249Y009973D01*
X028249Y009613D01*
X028258Y009613D01*
X028333Y009628D01*
X028404Y009657D01*
X028468Y009700D01*
X028522Y009754D01*
X028565Y009818D01*
X028594Y009889D01*
X028609Y009964D01*
X028609Y009973D01*
X028599Y009912D02*
X028924Y009912D01*
X028924Y010010D02*
X028249Y010010D01*
X028189Y010010D02*
X027829Y010010D01*
X027829Y009912D02*
X027840Y009912D01*
X027877Y009813D02*
X027801Y009813D01*
X027760Y009715D02*
X027956Y009715D01*
X028163Y009616D02*
X027695Y009616D01*
X027597Y009518D02*
X028924Y009518D01*
X028924Y009616D02*
X028275Y009616D01*
X028249Y009616D02*
X028189Y009616D01*
X028189Y009715D02*
X028249Y009715D01*
X028249Y009813D02*
X028189Y009813D01*
X028189Y009912D02*
X028249Y009912D01*
X028249Y010109D02*
X028189Y010109D01*
X028189Y010207D02*
X028249Y010207D01*
X028249Y010306D02*
X028189Y010306D01*
X027971Y010306D02*
X027754Y010306D01*
X027795Y010207D02*
X027887Y010207D01*
X027843Y010109D02*
X027829Y010109D01*
X028483Y009715D02*
X028924Y009715D01*
X028924Y009813D02*
X028562Y009813D01*
X028924Y009419D02*
X027404Y009419D01*
X028924Y009321D02*
X015002Y009321D01*
X015096Y009222D02*
X028924Y009222D01*
X028924Y009124D02*
X015136Y009124D01*
X015176Y009025D02*
X028924Y009025D01*
X028924Y008927D02*
X015176Y008927D01*
X015176Y008828D02*
X028924Y008828D01*
X028924Y008730D02*
X015142Y008730D01*
X015101Y008631D02*
X028924Y008631D01*
X028924Y008533D02*
X015015Y008533D01*
X014885Y008434D02*
X028924Y008434D01*
X028924Y008336D02*
X001276Y008336D01*
X001405Y008237D02*
X028924Y008237D01*
X028924Y008139D02*
X028480Y008139D01*
X028492Y008134D02*
X028246Y008236D01*
X027980Y008236D01*
X027733Y008134D01*
X027545Y007945D01*
X027443Y007699D01*
X027443Y007432D01*
X027545Y007186D01*
X027665Y007066D01*
X027545Y006945D01*
X027443Y006699D01*
X027443Y006432D01*
X027545Y006186D01*
X027665Y006066D01*
X027545Y005945D01*
X027443Y005699D01*
X027443Y005432D01*
X027545Y005186D01*
X027733Y004998D01*
X027866Y004943D01*
X027820Y004909D01*
X027770Y004859D01*
X027728Y004801D01*
X027696Y004738D01*
X027674Y004671D01*
X027665Y004616D01*
X028063Y004616D01*
X028063Y004516D01*
X027665Y004516D01*
X027674Y004460D01*
X027696Y004393D01*
X027728Y004330D01*
X027770Y004272D01*
X027820Y004222D01*
X027877Y004181D01*
X027940Y004149D01*
X028007Y004127D01*
X028063Y004118D01*
X028063Y004516D01*
X028163Y004516D01*
X028163Y004616D01*
X028560Y004616D01*
X028552Y004671D01*
X028530Y004738D01*
X028498Y004801D01*
X028456Y004859D01*
X028406Y004909D01*
X028359Y004943D01*
X028492Y004998D01*
X028681Y005186D01*
X028783Y005432D01*
X028783Y005699D01*
X028681Y005945D01*
X028560Y006066D01*
X028681Y006186D01*
X028783Y006432D01*
X028783Y006699D01*
X028681Y006945D01*
X028560Y007066D01*
X028681Y007186D01*
X028783Y007432D01*
X028783Y007699D01*
X028681Y007945D01*
X028492Y008134D01*
X028586Y008040D02*
X028924Y008040D01*
X028924Y007942D02*
X028682Y007942D01*
X028723Y007843D02*
X028924Y007843D01*
X028924Y007745D02*
X028764Y007745D01*
X028783Y007646D02*
X028924Y007646D01*
X028924Y007548D02*
X028783Y007548D01*
X028783Y007449D02*
X028924Y007449D01*
X028924Y007351D02*
X028749Y007351D01*
X028708Y007252D02*
X028924Y007252D01*
X028924Y007154D02*
X028648Y007154D01*
X028571Y007055D02*
X028924Y007055D01*
X028924Y006957D02*
X028669Y006957D01*
X028717Y006858D02*
X028924Y006858D01*
X028924Y006760D02*
X028758Y006760D01*
X028783Y006661D02*
X028924Y006661D01*
X028924Y006563D02*
X028783Y006563D01*
X028783Y006464D02*
X028924Y006464D01*
X028924Y006366D02*
X028755Y006366D01*
X028714Y006267D02*
X028924Y006267D01*
X028924Y006169D02*
X028663Y006169D01*
X028565Y006070D02*
X028924Y006070D01*
X028924Y005972D02*
X028654Y005972D01*
X028711Y005873D02*
X028924Y005873D01*
X028924Y005775D02*
X028751Y005775D01*
X028783Y005676D02*
X028924Y005676D01*
X028924Y005578D02*
X028783Y005578D01*
X028783Y005479D02*
X028924Y005479D01*
X028924Y005381D02*
X028761Y005381D01*
X028721Y005282D02*
X028924Y005282D01*
X028924Y005184D02*
X028678Y005184D01*
X028580Y005085D02*
X028924Y005085D01*
X028924Y004987D02*
X028466Y004987D01*
X028427Y004888D02*
X028924Y004888D01*
X028924Y004790D02*
X028504Y004790D01*
X028545Y004691D02*
X028924Y004691D01*
X028924Y004593D02*
X028163Y004593D01*
X028163Y004516D02*
X028560Y004516D01*
X028552Y004460D01*
X028530Y004393D01*
X028498Y004330D01*
X028456Y004272D01*
X028406Y004222D01*
X028349Y004181D01*
X028286Y004149D01*
X028218Y004127D01*
X028163Y004118D01*
X028163Y004516D01*
X028163Y004494D02*
X028063Y004494D01*
X028063Y004396D02*
X028163Y004396D01*
X028163Y004297D02*
X028063Y004297D01*
X028063Y004199D02*
X028163Y004199D01*
X028373Y004199D02*
X028924Y004199D01*
X028924Y004297D02*
X028474Y004297D01*
X028531Y004396D02*
X028924Y004396D01*
X028924Y004494D02*
X028557Y004494D01*
X028063Y004593D02*
X000530Y004593D01*
X000530Y004691D02*
X027680Y004691D01*
X027722Y004790D02*
X014190Y004790D01*
X014250Y004814D02*
X014403Y004968D01*
X014487Y005169D01*
X014487Y005387D01*
X014403Y005588D01*
X014250Y005742D01*
X014048Y005825D01*
X014039Y005825D01*
X014093Y005957D01*
X014093Y006174D01*
X014010Y006375D01*
X013856Y006529D01*
X013655Y006613D01*
X013437Y006613D01*
X013236Y006529D01*
X013082Y006375D01*
X012999Y006174D01*
X012999Y005957D01*
X013082Y005756D01*
X013236Y005602D01*
X013437Y005518D01*
X013447Y005518D01*
X013392Y005387D01*
X013392Y005169D01*
X013476Y004968D01*
X013630Y004814D01*
X013831Y004731D01*
X014048Y004731D01*
X014250Y004814D01*
X014323Y004888D02*
X027799Y004888D01*
X027760Y004987D02*
X014411Y004987D01*
X014452Y005085D02*
X027646Y005085D01*
X027547Y005184D02*
X014487Y005184D01*
X014487Y005282D02*
X027505Y005282D01*
X027464Y005381D02*
X014487Y005381D01*
X014449Y005479D02*
X027443Y005479D01*
X027443Y005578D02*
X014408Y005578D01*
X014315Y005676D02*
X027443Y005676D01*
X027474Y005775D02*
X014171Y005775D01*
X014058Y005873D02*
X027515Y005873D01*
X027571Y005972D02*
X014093Y005972D01*
X014093Y006070D02*
X027661Y006070D01*
X027562Y006169D02*
X014093Y006169D01*
X014055Y006267D02*
X027511Y006267D01*
X027470Y006366D02*
X014014Y006366D01*
X013921Y006464D02*
X027443Y006464D01*
X027443Y006563D02*
X013776Y006563D01*
X013316Y006563D02*
X001596Y006563D01*
X001617Y006661D02*
X027443Y006661D01*
X027468Y006760D02*
X008288Y006760D01*
X008344Y006783D02*
X008498Y006937D01*
X008581Y007138D01*
X008581Y007355D01*
X008498Y007557D01*
X008344Y007711D01*
X008143Y007794D01*
X007925Y007794D01*
X007724Y007711D01*
X007570Y007557D01*
X007487Y007355D01*
X007487Y007138D01*
X007570Y006937D01*
X007724Y006783D01*
X007925Y006699D01*
X008143Y006699D01*
X008344Y006783D01*
X008419Y006858D02*
X009891Y006858D01*
X009894Y006857D02*
X010111Y006857D01*
X010313Y006940D01*
X010466Y007094D01*
X010550Y007295D01*
X010550Y007513D01*
X010466Y007714D01*
X010313Y007868D01*
X010111Y007951D01*
X009894Y007951D01*
X009693Y007868D01*
X009539Y007714D01*
X009455Y007513D01*
X009455Y007295D01*
X009539Y007094D01*
X009693Y006940D01*
X009894Y006857D01*
X010114Y006858D02*
X027509Y006858D01*
X027556Y006957D02*
X010329Y006957D01*
X010427Y007055D02*
X027655Y007055D01*
X027577Y007154D02*
X010491Y007154D01*
X010532Y007252D02*
X027517Y007252D01*
X027477Y007351D02*
X010550Y007351D01*
X010550Y007449D02*
X027443Y007449D01*
X027443Y007548D02*
X010535Y007548D01*
X010495Y007646D02*
X027443Y007646D01*
X027462Y007745D02*
X010436Y007745D01*
X010337Y007843D02*
X027503Y007843D01*
X027543Y007942D02*
X010135Y007942D01*
X009870Y007942D02*
X001592Y007942D01*
X001617Y007843D02*
X009668Y007843D01*
X009569Y007745D02*
X008262Y007745D01*
X008408Y007646D02*
X009511Y007646D01*
X009470Y007548D02*
X008502Y007548D01*
X008542Y007449D02*
X009455Y007449D01*
X009455Y007351D02*
X008581Y007351D01*
X008581Y007252D02*
X009473Y007252D01*
X009514Y007154D02*
X008581Y007154D01*
X008547Y007055D02*
X009578Y007055D01*
X009676Y006957D02*
X008506Y006957D01*
X007780Y006760D02*
X001617Y006760D01*
X001617Y006858D02*
X007649Y006858D01*
X007562Y006957D02*
X001586Y006957D01*
X001545Y007055D02*
X007521Y007055D01*
X007487Y007154D02*
X001488Y007154D01*
X001400Y007252D02*
X007487Y007252D01*
X007487Y007351D02*
X001499Y007351D01*
X001549Y007449D02*
X007526Y007449D01*
X007566Y007548D02*
X001590Y007548D01*
X001617Y007646D02*
X007660Y007646D01*
X007806Y007745D02*
X001617Y007745D01*
X001551Y008040D02*
X027640Y008040D01*
X027745Y008139D02*
X001503Y008139D01*
X002387Y009518D02*
X008783Y009518D01*
X008876Y009616D02*
X008882Y009616D01*
X009032Y009715D02*
X009086Y009715D01*
X009180Y010306D02*
X014467Y010306D01*
X014339Y010404D02*
X009249Y010404D01*
X009311Y010503D02*
X014254Y010503D01*
X014213Y010601D02*
X011515Y010601D01*
X011612Y010641D02*
X011766Y010795D01*
X011849Y010996D01*
X011849Y011214D01*
X011766Y011415D01*
X011612Y011569D01*
X011411Y011652D01*
X011193Y011652D01*
X010992Y011569D01*
X010838Y011415D01*
X010755Y011214D01*
X010755Y010996D01*
X010838Y010795D01*
X010992Y010641D01*
X011193Y010558D01*
X011411Y010558D01*
X011612Y010641D01*
X011670Y010700D02*
X014180Y010700D01*
X014180Y010798D02*
X011767Y010798D01*
X011808Y010897D02*
X014180Y010897D01*
X014220Y010995D02*
X011849Y010995D01*
X011849Y011094D02*
X014260Y011094D01*
X014355Y011192D02*
X011849Y011192D01*
X011817Y011291D02*
X014506Y011291D01*
X014948Y011291D02*
X017079Y011291D01*
X017038Y011192D02*
X015099Y011192D01*
X015193Y011094D02*
X017014Y011094D01*
X017014Y010995D02*
X015234Y010995D01*
X015274Y010897D02*
X017023Y010897D01*
X017064Y010798D02*
X015274Y010798D01*
X015274Y010700D02*
X017114Y010700D01*
X017213Y010601D02*
X015241Y010601D01*
X015200Y010503D02*
X017396Y010503D01*
X018009Y010700D02*
X028924Y010700D01*
X028924Y010798D02*
X018059Y010798D01*
X018100Y010897D02*
X028924Y010897D01*
X028924Y010995D02*
X018109Y010995D01*
X018109Y011094D02*
X021945Y011094D01*
X021897Y011113D02*
X022098Y011030D01*
X022316Y011030D01*
X022517Y011113D01*
X022671Y011267D01*
X022754Y011469D01*
X022754Y011686D01*
X022671Y011887D01*
X022517Y012041D01*
X022316Y012125D01*
X022098Y012125D01*
X021897Y012041D01*
X021743Y011887D01*
X021660Y011686D01*
X021660Y011469D01*
X021743Y011267D01*
X021897Y011113D01*
X021819Y011192D02*
X018085Y011192D01*
X018044Y011291D02*
X021734Y011291D01*
X021693Y011389D02*
X017973Y011389D01*
X017874Y011488D02*
X021660Y011488D01*
X021660Y011586D02*
X011570Y011586D01*
X011693Y011488D02*
X017249Y011488D01*
X017151Y011389D02*
X011776Y011389D01*
X011034Y011586D02*
X009290Y011586D01*
X009290Y011685D02*
X021660Y011685D01*
X021700Y011783D02*
X020785Y011783D01*
X020884Y011882D02*
X021741Y011882D01*
X021836Y011980D02*
X020957Y011980D01*
X020998Y012079D02*
X021987Y012079D01*
X022427Y012079D02*
X026609Y012079D01*
X026609Y012092D02*
X026609Y011850D01*
X026702Y011626D01*
X026874Y011454D01*
X027098Y011361D01*
X027340Y011361D01*
X027565Y011454D01*
X027736Y011626D01*
X027829Y011850D01*
X027829Y012092D01*
X027736Y012317D01*
X027565Y012488D01*
X027340Y012581D01*
X027098Y012581D01*
X026874Y012488D01*
X026702Y012317D01*
X026609Y012092D01*
X026644Y012177D02*
X021022Y012177D01*
X021022Y012276D02*
X026685Y012276D01*
X026759Y012374D02*
X021014Y012374D01*
X020974Y012473D02*
X026858Y012473D01*
X027074Y012571D02*
X020924Y012571D01*
X020826Y012670D02*
X028924Y012670D01*
X028924Y012768D02*
X020646Y012768D01*
X020026Y012571D02*
X009251Y012571D01*
X009251Y012473D02*
X019976Y012473D01*
X019936Y012374D02*
X009218Y012374D01*
X009177Y012276D02*
X019928Y012276D01*
X019928Y012177D02*
X009093Y012177D01*
X009055Y012079D02*
X019952Y012079D01*
X019993Y011980D02*
X009153Y011980D01*
X009225Y011882D02*
X020066Y011882D01*
X020165Y011783D02*
X009266Y011783D01*
X009281Y011488D02*
X010911Y011488D01*
X010827Y011389D02*
X009241Y011389D01*
X009190Y011291D02*
X010786Y011291D01*
X010755Y011192D02*
X009154Y011192D01*
X009252Y011094D02*
X010755Y011094D01*
X010755Y010995D02*
X009312Y010995D01*
X009353Y010897D02*
X010796Y010897D01*
X010837Y010798D02*
X009369Y010798D01*
X009369Y010700D02*
X010933Y010700D01*
X011088Y010601D02*
X009352Y010601D01*
X009169Y012867D02*
X017506Y012867D01*
X017411Y012965D02*
X009074Y012965D01*
X008921Y013064D02*
X017370Y013064D01*
X016429Y013458D02*
X001577Y013458D01*
X001536Y013556D02*
X016305Y013556D01*
X016221Y013655D02*
X001467Y013655D01*
X001421Y013753D02*
X016180Y013753D01*
X016148Y013852D02*
X001517Y013852D01*
X001558Y013950D02*
X014406Y013950D01*
X014421Y013944D02*
X014639Y013944D01*
X014840Y014027D01*
X014994Y014181D01*
X015077Y014382D01*
X015077Y014600D01*
X014994Y014801D01*
X014840Y014955D01*
X014639Y015038D01*
X014421Y015038D01*
X014220Y014955D01*
X014066Y014801D01*
X013983Y014600D01*
X013983Y014382D01*
X014066Y014181D01*
X014220Y014027D01*
X014421Y013944D01*
X014655Y013950D02*
X016148Y013950D01*
X016148Y014049D02*
X014862Y014049D01*
X014960Y014147D02*
X015635Y014147D01*
X015537Y014246D02*
X015021Y014246D01*
X015062Y014344D02*
X015465Y014344D01*
X015424Y014443D02*
X015077Y014443D01*
X015077Y014541D02*
X015400Y014541D01*
X015400Y014640D02*
X015061Y014640D01*
X015020Y014738D02*
X015409Y014738D01*
X015450Y014837D02*
X014958Y014837D01*
X014860Y014935D02*
X015500Y014935D01*
X015598Y015034D02*
X014649Y015034D01*
X014411Y015034D02*
X012745Y015034D01*
X012711Y015116D02*
X012557Y015270D01*
X012355Y015353D01*
X012138Y015353D01*
X011937Y015270D01*
X011783Y015116D01*
X011699Y014915D01*
X011699Y014697D01*
X011783Y014496D01*
X011937Y014342D01*
X012138Y014259D01*
X012355Y014259D01*
X012557Y014342D01*
X012711Y014496D01*
X012794Y014697D01*
X012794Y014915D01*
X012711Y015116D01*
X012694Y015132D02*
X015622Y015132D01*
X015581Y015231D02*
X012596Y015231D01*
X012413Y015329D02*
X015558Y015329D01*
X015323Y015428D02*
X001590Y015428D01*
X001617Y015329D02*
X012080Y015329D01*
X011898Y015231D02*
X001617Y015231D01*
X001617Y015132D02*
X011799Y015132D01*
X011749Y015034D02*
X001593Y015034D01*
X001552Y014935D02*
X011708Y014935D01*
X011699Y014837D02*
X001505Y014837D01*
X001406Y014738D02*
X011699Y014738D01*
X011723Y014640D02*
X001482Y014640D01*
X001543Y014541D02*
X011764Y014541D01*
X011836Y014443D02*
X001583Y014443D01*
X001617Y014344D02*
X011934Y014344D01*
X012559Y014344D02*
X013999Y014344D01*
X013983Y014443D02*
X012657Y014443D01*
X012729Y014541D02*
X013983Y014541D01*
X014000Y014640D02*
X012770Y014640D01*
X012794Y014738D02*
X014040Y014738D01*
X014102Y014837D02*
X012794Y014837D01*
X012785Y014935D02*
X014201Y014935D01*
X014039Y014246D02*
X001617Y014246D01*
X001617Y014147D02*
X014100Y014147D01*
X014198Y014049D02*
X001599Y014049D01*
X001549Y015526D02*
X015110Y015526D01*
X015011Y015625D02*
X001497Y015625D01*
X001399Y015723D02*
X014939Y015723D01*
X014898Y015822D02*
X012045Y015822D01*
X012084Y015838D02*
X011883Y015755D01*
X011665Y015755D01*
X011464Y015838D01*
X011310Y015992D01*
X011227Y016193D01*
X011227Y016411D01*
X011310Y016612D01*
X011464Y016766D01*
X011665Y016849D01*
X011883Y016849D01*
X012084Y016766D01*
X012238Y016612D01*
X012321Y016411D01*
X012321Y016193D01*
X012238Y015992D01*
X012084Y015838D01*
X012166Y015920D02*
X014865Y015920D01*
X014865Y016019D02*
X012249Y016019D01*
X012290Y016117D02*
X014865Y016117D01*
X014895Y016216D02*
X012321Y016216D01*
X012321Y016314D02*
X014936Y016314D01*
X015004Y016413D02*
X012321Y016413D01*
X012280Y016511D02*
X015103Y016511D01*
X015305Y016610D02*
X012239Y016610D01*
X012142Y016708D02*
X025873Y016708D01*
X025874Y016807D02*
X011985Y016807D01*
X011563Y016807D02*
X007321Y016807D01*
X007321Y016905D02*
X025914Y016905D01*
X025955Y017004D02*
X007320Y017004D01*
X007290Y016708D02*
X011407Y016708D01*
X011309Y016610D02*
X007249Y016610D01*
X007167Y016511D02*
X011269Y016511D01*
X011228Y016413D02*
X007046Y016413D01*
X006503Y016413D02*
X001596Y016413D01*
X001617Y016314D02*
X011227Y016314D01*
X011227Y016216D02*
X001617Y016216D01*
X001617Y016117D02*
X011258Y016117D01*
X011299Y016019D02*
X001586Y016019D01*
X001546Y015920D02*
X011382Y015920D01*
X011504Y015822D02*
X001490Y015822D01*
X001555Y016511D02*
X006382Y016511D01*
X006299Y016610D02*
X001512Y016610D01*
X001414Y016708D02*
X006258Y016708D01*
X006227Y016807D02*
X001299Y016807D01*
X001262Y016905D02*
X006227Y016905D01*
X006228Y017004D02*
X001339Y017004D01*
X001380Y017102D02*
X006269Y017102D01*
X006310Y017201D02*
X000997Y017201D01*
X000997Y017299D02*
X000897Y017299D01*
X000897Y017398D02*
X000997Y017398D01*
X000997Y017496D02*
X000897Y017496D01*
X000897Y017595D02*
X000997Y017595D01*
X000997Y017792D02*
X000897Y017792D01*
X000831Y017792D02*
X000530Y017792D01*
X000530Y017890D02*
X000648Y017890D01*
X000564Y017989D02*
X000530Y017989D01*
X000530Y017693D02*
X003279Y017693D01*
X003168Y017792D02*
X001064Y017792D01*
X000997Y017890D02*
X000897Y017890D01*
X000897Y017989D02*
X000997Y017989D01*
X000997Y018087D02*
X000897Y018087D01*
X000997Y018186D02*
X002966Y018186D01*
X002966Y018284D02*
X001394Y018284D01*
X001395Y018277D02*
X001386Y018332D01*
X001364Y018400D01*
X001332Y018463D01*
X001291Y018520D01*
X001241Y018570D01*
X001183Y018612D01*
X001120Y018644D01*
X001053Y018666D01*
X000997Y018675D01*
X000997Y018277D01*
X001395Y018277D01*
X001370Y018383D02*
X002966Y018383D01*
X002999Y018481D02*
X001319Y018481D01*
X001228Y018580D02*
X003039Y018580D01*
X003097Y018678D02*
X000530Y018678D01*
X000530Y018580D02*
X000667Y018580D01*
X000576Y018481D02*
X000530Y018481D01*
X000530Y018777D02*
X003195Y018777D01*
X003346Y018875D02*
X000530Y018875D01*
X000530Y018974D02*
X015087Y018974D01*
X015087Y019072D02*
X000530Y019072D01*
X000897Y018580D02*
X000997Y018580D01*
X000997Y018481D02*
X000897Y018481D01*
X000897Y018383D02*
X000997Y018383D01*
X000997Y018284D02*
X000897Y018284D01*
X001375Y018087D02*
X002987Y018087D01*
X003028Y017989D02*
X001330Y017989D01*
X001247Y017890D02*
X003069Y017890D01*
X004078Y018777D02*
X015171Y018777D01*
X015114Y018875D02*
X003927Y018875D01*
X004176Y018678D02*
X004446Y018678D01*
X004309Y018580D02*
X004233Y018580D01*
X004964Y018580D02*
X018056Y018580D01*
X021594Y018284D02*
X028924Y018284D01*
X028924Y018186D02*
X027629Y018186D01*
X027731Y018087D02*
X028924Y018087D01*
X028924Y017989D02*
X027806Y017989D01*
X027847Y017890D02*
X028924Y017890D01*
X028924Y017792D02*
X027873Y017792D01*
X027873Y017693D02*
X028924Y017693D01*
X028924Y017595D02*
X027866Y017595D01*
X027825Y017496D02*
X028924Y017496D01*
X028924Y017398D02*
X027778Y017398D01*
X027679Y017299D02*
X028924Y017299D01*
X028924Y017201D02*
X027503Y017201D01*
X026873Y017398D02*
X021703Y017398D01*
X021744Y017496D02*
X026826Y017496D01*
X026785Y017595D02*
X021785Y017595D01*
X021802Y017693D02*
X026778Y017693D01*
X026778Y017792D02*
X021802Y017792D01*
X021802Y017890D02*
X026804Y017890D01*
X026845Y017989D02*
X021767Y017989D01*
X021726Y018087D02*
X026920Y018087D01*
X027022Y018186D02*
X021665Y018186D01*
X021692Y018383D02*
X028924Y018383D01*
X028924Y018481D02*
X021738Y018481D01*
X021779Y018580D02*
X028924Y018580D01*
X028924Y018678D02*
X021802Y018678D01*
X021802Y018777D02*
X028924Y018777D01*
X028924Y018875D02*
X021802Y018875D01*
X021773Y018974D02*
X028924Y018974D01*
X028924Y019072D02*
X021733Y019072D01*
X016480Y014443D02*
X016471Y014443D01*
X022578Y011980D02*
X026609Y011980D01*
X026609Y011882D02*
X022674Y011882D01*
X022714Y011783D02*
X026637Y011783D01*
X026678Y011685D02*
X022754Y011685D01*
X022754Y011586D02*
X026741Y011586D01*
X026840Y011488D02*
X022754Y011488D01*
X022722Y011389D02*
X027030Y011389D01*
X027408Y011389D02*
X028924Y011389D01*
X028924Y011291D02*
X022681Y011291D01*
X022596Y011192D02*
X028924Y011192D01*
X028924Y011094D02*
X022469Y011094D01*
X027365Y012571D02*
X028924Y012571D01*
X028924Y012473D02*
X027580Y012473D01*
X027679Y012374D02*
X028924Y012374D01*
X028924Y012276D02*
X028465Y012276D01*
X028468Y012274D02*
X028404Y012317D01*
X028333Y012346D01*
X028258Y012361D01*
X028249Y012361D01*
X028249Y012001D01*
X028189Y012001D01*
X028189Y011941D01*
X027829Y011941D01*
X027829Y011933D01*
X027844Y011857D01*
X027873Y011786D01*
X027916Y011722D01*
X027970Y011668D01*
X028034Y011625D01*
X028105Y011596D01*
X028181Y011581D01*
X028189Y011581D01*
X028189Y011941D01*
X028249Y011941D01*
X028249Y011581D01*
X028258Y011581D01*
X028333Y011596D01*
X028404Y011625D01*
X028468Y011668D01*
X028522Y011722D01*
X028565Y011786D01*
X028594Y011857D01*
X028609Y011933D01*
X028609Y011941D01*
X028249Y011941D01*
X028249Y012001D01*
X028609Y012001D01*
X028609Y012009D01*
X028594Y012085D01*
X028565Y012156D01*
X028522Y012220D01*
X028468Y012274D01*
X028550Y012177D02*
X028924Y012177D01*
X028924Y012079D02*
X028595Y012079D01*
X028599Y011882D02*
X028924Y011882D01*
X028924Y011980D02*
X028249Y011980D01*
X028189Y011980D02*
X027829Y011980D01*
X027829Y012001D02*
X028189Y012001D01*
X028189Y012361D01*
X028181Y012361D01*
X028105Y012346D01*
X028034Y012317D01*
X027970Y012274D01*
X027916Y012220D01*
X027873Y012156D01*
X027844Y012085D01*
X027829Y012009D01*
X027829Y012001D01*
X027829Y012079D02*
X027843Y012079D01*
X027888Y012177D02*
X027794Y012177D01*
X027753Y012276D02*
X027973Y012276D01*
X028189Y012276D02*
X028249Y012276D01*
X028249Y012177D02*
X028189Y012177D01*
X028189Y012079D02*
X028249Y012079D01*
X028249Y011882D02*
X028189Y011882D01*
X028189Y011783D02*
X028249Y011783D01*
X028249Y011685D02*
X028189Y011685D01*
X028189Y011586D02*
X028249Y011586D01*
X028283Y011586D02*
X028924Y011586D01*
X028924Y011488D02*
X027598Y011488D01*
X027697Y011586D02*
X028156Y011586D01*
X027954Y011685D02*
X027761Y011685D01*
X027801Y011783D02*
X027876Y011783D01*
X027839Y011882D02*
X027829Y011882D01*
X028484Y011685D02*
X028924Y011685D01*
X028924Y011783D02*
X028563Y011783D01*
X027669Y004494D02*
X000530Y004494D01*
X000530Y004396D02*
X027695Y004396D01*
X027752Y004297D02*
X000530Y004297D01*
X000530Y004199D02*
X027852Y004199D01*
X028924Y004100D02*
X000530Y004100D01*
X000530Y004002D02*
X028924Y004002D01*
X028924Y003903D02*
X000530Y003903D01*
X000530Y003805D02*
X028924Y003805D01*
X028924Y003706D02*
X000530Y003706D01*
X000530Y003608D02*
X028924Y003608D01*
X028924Y003509D02*
X000530Y003509D01*
X000530Y003411D02*
X001830Y003411D01*
X001862Y003424D02*
X001661Y003340D01*
X001507Y003187D01*
X001424Y002985D01*
X001424Y002768D01*
X001507Y002567D01*
X001661Y002413D01*
X001862Y002329D01*
X002080Y002329D01*
X002281Y002413D01*
X002435Y002567D01*
X002518Y002768D01*
X002518Y002985D01*
X002435Y003187D01*
X002281Y003340D01*
X002080Y003424D01*
X001862Y003424D01*
X002112Y003411D02*
X028924Y003411D01*
X028924Y003312D02*
X002309Y003312D01*
X002408Y003214D02*
X028924Y003214D01*
X028924Y003115D02*
X002465Y003115D01*
X002505Y003017D02*
X028924Y003017D01*
X028924Y002918D02*
X002518Y002918D01*
X002518Y002820D02*
X028924Y002820D01*
X028924Y002721D02*
X002499Y002721D01*
X002458Y002623D02*
X028924Y002623D01*
X028924Y002524D02*
X002392Y002524D01*
X002294Y002426D02*
X009269Y002426D01*
X009147Y002327D02*
X000530Y002327D01*
X000530Y002229D02*
X009049Y002229D01*
X009003Y002130D02*
X000530Y002130D01*
X000530Y002032D02*
X008963Y002032D01*
X008939Y001933D02*
X000530Y001933D01*
X000530Y001835D02*
X008939Y001835D01*
X008939Y001736D02*
X000530Y001736D01*
X000530Y001638D02*
X008968Y001638D01*
X009009Y001539D02*
X000530Y001539D01*
X000530Y001441D02*
X009062Y001441D01*
X009160Y001342D02*
X000530Y001342D01*
X000530Y001244D02*
X009301Y001244D01*
X009276Y001145D02*
X000530Y001145D01*
X000530Y001047D02*
X009208Y001047D01*
X009170Y000948D02*
X000530Y000948D01*
X000530Y000850D02*
X009559Y000850D01*
X009659Y000850D02*
X011614Y000850D01*
X011614Y000852D02*
X011614Y000752D01*
X011216Y000752D01*
X011225Y000696D01*
X011247Y000629D01*
X011279Y000566D01*
X011305Y000530D01*
X009934Y000530D01*
X009952Y000548D01*
X009994Y000605D01*
X010026Y000668D01*
X010048Y000736D01*
X010057Y000791D01*
X009659Y000791D01*
X009659Y000891D01*
X010057Y000891D01*
X010048Y000947D01*
X010026Y001014D01*
X009994Y001077D01*
X009952Y001134D01*
X010009Y001047D02*
X011286Y001047D01*
X011279Y001038D02*
X011247Y000975D01*
X011225Y000907D01*
X011216Y000852D01*
X011614Y000852D01*
X011614Y000948D02*
X011714Y000948D01*
X011714Y001047D02*
X011614Y001047D01*
X011614Y001145D02*
X011714Y001145D01*
X011714Y001244D02*
X011614Y001244D01*
X011577Y001244D02*
X009917Y001244D01*
X010057Y001342D02*
X012176Y001342D01*
X012158Y001244D02*
X011751Y001244D01*
X011714Y001441D02*
X011614Y001441D01*
X011614Y001539D02*
X011714Y001539D01*
X011714Y001638D02*
X011614Y001638D01*
X011614Y001736D02*
X011714Y001736D01*
X011614Y001835D02*
X010279Y001835D01*
X010279Y001933D02*
X011233Y001933D01*
X011276Y002032D02*
X010255Y002032D01*
X010214Y002130D02*
X011356Y002130D01*
X011521Y002229D02*
X010169Y002229D01*
X010070Y002327D02*
X012242Y002327D01*
X012143Y002229D02*
X011807Y002229D01*
X011714Y002229D02*
X011614Y002229D01*
X011614Y002130D02*
X011714Y002130D01*
X011714Y002032D02*
X011614Y002032D01*
X011614Y001933D02*
X011714Y001933D01*
X011972Y002130D02*
X012075Y002130D01*
X012419Y002426D02*
X009949Y002426D01*
X010279Y001736D02*
X011219Y001736D01*
X011244Y001638D02*
X010250Y001638D01*
X010209Y001539D02*
X011299Y001539D01*
X011396Y001441D02*
X010156Y001441D01*
X010047Y000948D02*
X011238Y000948D01*
X011279Y001038D02*
X011321Y001095D01*
X011371Y001145D01*
X011216Y000751D02*
X010050Y000751D01*
X010018Y000653D02*
X011239Y000653D01*
X011288Y000554D02*
X009956Y000554D01*
X009261Y000554D02*
X000530Y000554D01*
X000530Y000653D02*
X009200Y000653D01*
X009168Y000751D02*
X000530Y000751D01*
X000530Y002426D02*
X001648Y002426D01*
X001550Y002524D02*
X000530Y002524D01*
X000530Y002623D02*
X001484Y002623D01*
X001443Y002721D02*
X000530Y002721D01*
X000530Y002820D02*
X001424Y002820D01*
X001424Y002918D02*
X000530Y002918D01*
X000530Y003017D02*
X001437Y003017D01*
X001478Y003115D02*
X000530Y003115D01*
X000530Y003214D02*
X001534Y003214D01*
X001633Y003312D02*
X000530Y003312D01*
X000530Y004790D02*
X013689Y004790D01*
X013556Y004888D02*
X000530Y004888D01*
X000530Y004987D02*
X013468Y004987D01*
X013427Y005085D02*
X001101Y005085D01*
X001332Y005184D02*
X013392Y005184D01*
X013392Y005282D02*
X001430Y005282D01*
X001521Y005381D02*
X013392Y005381D01*
X013431Y005479D02*
X001562Y005479D01*
X001603Y005578D02*
X013294Y005578D01*
X013162Y005676D02*
X001617Y005676D01*
X001617Y005775D02*
X013074Y005775D01*
X013033Y005873D02*
X001617Y005873D01*
X001579Y005972D02*
X012999Y005972D01*
X012999Y006070D02*
X001539Y006070D01*
X001473Y006169D02*
X012999Y006169D01*
X013037Y006267D02*
X001415Y006267D01*
X001514Y006366D02*
X013078Y006366D01*
X013171Y006464D02*
X001556Y006464D01*
X000794Y005085D02*
X000530Y005085D01*
X000530Y005184D02*
X000563Y005184D01*
X011932Y001441D02*
X012088Y001441D01*
X012048Y001539D02*
X012029Y001539D01*
X013086Y002327D02*
X013242Y002327D01*
X013419Y002426D02*
X012909Y002426D01*
X013909Y002426D02*
X014419Y002426D01*
X014242Y002327D02*
X014086Y002327D01*
X014909Y002426D02*
X015419Y002426D01*
X015242Y002327D02*
X015086Y002327D01*
X015909Y002426D02*
X017324Y002426D01*
X017202Y002327D02*
X016086Y002327D01*
X016185Y002229D02*
X016433Y002229D01*
X016318Y002130D02*
X016253Y002130D01*
X016614Y002130D02*
X016714Y002130D01*
X016714Y002032D02*
X016614Y002032D01*
X016614Y001933D02*
X016714Y001933D01*
X016714Y001791D02*
X016714Y001393D01*
X016769Y001402D01*
X016837Y001424D01*
X016900Y001456D01*
X016957Y001498D01*
X017007Y001548D01*
X017041Y001594D01*
X017096Y001462D01*
X017216Y001341D01*
X017096Y001221D01*
X017041Y001088D01*
X017007Y001134D01*
X016957Y001184D01*
X016900Y001226D01*
X016837Y001258D01*
X016769Y001280D01*
X016714Y001289D01*
X016714Y000891D01*
X016614Y000891D01*
X016614Y001289D01*
X016559Y001280D01*
X016491Y001258D01*
X016428Y001226D01*
X016371Y001184D01*
X016321Y001134D01*
X016279Y001077D01*
X016277Y001073D01*
X016232Y001181D01*
X016111Y001302D01*
X016232Y001422D01*
X016297Y001580D01*
X016321Y001548D01*
X016371Y001498D01*
X016428Y001456D01*
X016491Y001424D01*
X016559Y001402D01*
X016614Y001393D01*
X016614Y001791D01*
X016714Y001791D01*
X016714Y001736D02*
X016614Y001736D01*
X016614Y001638D02*
X016714Y001638D01*
X016714Y001539D02*
X016614Y001539D01*
X016614Y001441D02*
X016714Y001441D01*
X016869Y001441D02*
X017117Y001441D01*
X017064Y001539D02*
X016998Y001539D01*
X017216Y001342D02*
X016152Y001342D01*
X016170Y001244D02*
X016463Y001244D01*
X016614Y001244D02*
X016714Y001244D01*
X016714Y001145D02*
X016614Y001145D01*
X016614Y001047D02*
X016714Y001047D01*
X016714Y000948D02*
X016614Y000948D01*
X016331Y001145D02*
X016247Y001145D01*
X016240Y001441D02*
X016459Y001441D01*
X016330Y001539D02*
X016280Y001539D01*
X016865Y001244D02*
X017119Y001244D01*
X017065Y001145D02*
X016996Y001145D01*
X017010Y002130D02*
X017058Y002130D01*
X017104Y002229D02*
X016895Y002229D01*
X016714Y002229D02*
X016614Y002229D01*
X018004Y002426D02*
X018324Y002426D01*
X018202Y002327D02*
X018126Y002327D01*
X019004Y002426D02*
X019324Y002426D01*
X019202Y002327D02*
X019126Y002327D01*
X020004Y002426D02*
X020324Y002426D01*
X020202Y002327D02*
X020126Y002327D01*
X021004Y002426D02*
X022324Y002426D01*
X022202Y002327D02*
X021126Y002327D01*
X021224Y002229D02*
X021433Y002229D01*
X021318Y002130D02*
X021270Y002130D01*
X021614Y002130D02*
X021714Y002130D01*
X021714Y002032D02*
X021614Y002032D01*
X021614Y001933D02*
X021714Y001933D01*
X021714Y001791D02*
X021714Y001393D01*
X021769Y001402D01*
X021837Y001424D01*
X021900Y001456D01*
X021957Y001498D01*
X022007Y001548D01*
X022041Y001594D01*
X022096Y001462D01*
X022216Y001341D01*
X022096Y001221D01*
X022041Y001088D01*
X022007Y001134D01*
X021957Y001184D01*
X021900Y001226D01*
X021837Y001258D01*
X021769Y001280D01*
X021714Y001289D01*
X021714Y000891D01*
X021614Y000891D01*
X021614Y001289D01*
X021559Y001280D01*
X021491Y001258D01*
X021428Y001226D01*
X021371Y001184D01*
X021321Y001134D01*
X021287Y001088D01*
X021232Y001221D01*
X021111Y001341D01*
X021232Y001462D01*
X021287Y001594D01*
X021321Y001548D01*
X021371Y001498D01*
X021428Y001456D01*
X021491Y001424D01*
X021559Y001402D01*
X021614Y001393D01*
X021614Y001791D01*
X021714Y001791D01*
X021714Y001736D02*
X021614Y001736D01*
X021614Y001638D02*
X021714Y001638D01*
X021714Y001539D02*
X021614Y001539D01*
X021614Y001441D02*
X021714Y001441D01*
X021869Y001441D02*
X022117Y001441D01*
X022064Y001539D02*
X021998Y001539D01*
X022216Y001342D02*
X021112Y001342D01*
X021209Y001244D02*
X021463Y001244D01*
X021614Y001244D02*
X021714Y001244D01*
X021714Y001145D02*
X021614Y001145D01*
X021614Y001047D02*
X021714Y001047D01*
X021714Y000948D02*
X021614Y000948D01*
X021331Y001145D02*
X021263Y001145D01*
X021211Y001441D02*
X021459Y001441D01*
X021330Y001539D02*
X021264Y001539D01*
X021865Y001244D02*
X022119Y001244D01*
X022065Y001145D02*
X021996Y001145D01*
X022010Y002130D02*
X022058Y002130D01*
X022104Y002229D02*
X021895Y002229D01*
X021714Y002229D02*
X021614Y002229D01*
X023004Y002426D02*
X023324Y002426D01*
X023202Y002327D02*
X023126Y002327D01*
X024004Y002426D02*
X024324Y002426D01*
X024202Y002327D02*
X024126Y002327D01*
X025004Y002426D02*
X025324Y002426D01*
X025202Y002327D02*
X025126Y002327D01*
X026004Y002426D02*
X028924Y002426D01*
X028924Y002327D02*
X026126Y002327D01*
X026224Y002229D02*
X028924Y002229D01*
X028924Y002130D02*
X026270Y002130D01*
X026310Y002032D02*
X028924Y002032D01*
X028924Y001933D02*
X026334Y001933D01*
X026334Y001835D02*
X028924Y001835D01*
X028924Y001736D02*
X026334Y001736D01*
X026305Y001638D02*
X028924Y001638D01*
X028924Y001539D02*
X026264Y001539D01*
X026211Y001441D02*
X028924Y001441D01*
X028924Y001342D02*
X026112Y001342D01*
X026209Y001244D02*
X028924Y001244D01*
X028924Y001145D02*
X026263Y001145D01*
X026304Y001047D02*
X028924Y001047D01*
X028924Y000948D02*
X026334Y000948D01*
X026334Y000850D02*
X028924Y000850D01*
X028924Y000751D02*
X026334Y000751D01*
X026311Y000653D02*
X028924Y000653D01*
X028924Y000554D02*
X026270Y000554D01*
X006564Y017398D02*
X001365Y017398D01*
X001392Y017299D02*
X006407Y017299D01*
X000688Y017595D02*
X000530Y017595D01*
X000530Y017496D02*
X000587Y017496D01*
D15*
X002916Y016302D03*
X002916Y014333D03*
X002916Y012365D03*
X002916Y010396D03*
X002129Y010003D03*
X006381Y010160D03*
X006381Y010790D03*
X006459Y011971D03*
X008743Y011617D03*
X008703Y012562D03*
X006892Y013979D03*
X008034Y015514D03*
X006774Y016892D03*
X008034Y017483D03*
X011499Y017247D03*
X011774Y016302D03*
X012247Y014806D03*
X014530Y014491D03*
X015947Y014609D03*
X016105Y015396D03*
X016695Y013940D03*
X017877Y013270D03*
X019451Y013270D03*
X020475Y012247D03*
X022207Y011577D03*
X024963Y011971D03*
X024018Y014255D03*
X023940Y015711D03*
X022995Y015672D03*
X021066Y015357D03*
X018428Y017719D03*
X015947Y017680D03*
X014412Y017522D03*
X014412Y012640D03*
X013743Y012640D03*
X012758Y012640D03*
X011971Y012640D03*
X011971Y011774D03*
X011302Y011105D03*
X011971Y010396D03*
X011971Y009215D03*
X011184Y008428D03*
X010003Y007404D03*
X008034Y007247D03*
X008821Y006066D03*
X010003Y004884D03*
X013546Y006066D03*
X013940Y005278D03*
X013861Y004491D03*
X016538Y007286D03*
X014491Y008310D03*
X014629Y008920D03*
X015121Y010318D03*
X014727Y010790D03*
X013743Y010593D03*
X015121Y011892D03*
X015121Y012640D03*
X017562Y011026D03*
X019491Y010711D03*
X027601Y016262D03*
X026420Y016695D03*
X027325Y017719D03*
X026538Y017877D03*
X024018Y017758D03*
X009215Y009176D03*
X008664Y010121D03*
X008821Y010751D03*
X006932Y008625D03*
X000947Y004097D03*
X001971Y002877D03*
X005278Y002129D03*
D16*
X010121Y010790D02*
X010081Y010829D01*
D17*
X009884Y011538D02*
X009845Y011538D01*
X009924Y012719D02*
X009963Y012758D01*
X008073Y017444D02*
X008034Y017483D01*
X014412Y017522D02*
X014412Y017562D01*
X021066Y015357D02*
X021105Y015357D01*
X021144Y015396D01*
X022995Y015672D02*
X022955Y016814D01*
X024018Y017758D02*
X024097Y019018D01*
X026617Y018979D02*
X026538Y017877D01*
X027640Y017444D02*
X027601Y016262D01*
X024963Y013231D02*
X024963Y011971D01*
X019648Y010790D02*
X019530Y010672D01*
X019491Y010711D01*
X008821Y006144D02*
X008821Y006066D01*
M02*
