G75*
%MOIN*%
%OFA0B0*%
%FSLAX24Y24*%
%IPPOS*%
%LPD*%
%AMOC8*
5,1,8,0,0,1.08239X$1,22.5*
%
%ADD10C,0.0000*%
%ADD11C,0.0600*%
%ADD12C,0.0480*%
%ADD13C,0.0472*%
%ADD14C,0.0354*%
%ADD15C,0.0320*%
%ADD16C,0.0120*%
%ADD17C,0.0120*%
D10*
X000160Y000160D02*
X000160Y019451D01*
X029294Y019451D01*
X029294Y000160D01*
X000160Y000160D01*
D11*
X000947Y005747D03*
X000947Y006747D03*
X000947Y007747D03*
X000947Y008747D03*
X000947Y011227D03*
X000947Y012227D03*
X000947Y013227D03*
X000947Y014227D03*
X000947Y015227D03*
X000947Y016227D03*
X000947Y017227D03*
X000947Y018227D03*
X003636Y018270D03*
X004636Y018270D03*
X020132Y017770D03*
X021132Y017770D03*
X021132Y018770D03*
X020132Y018770D03*
X028113Y007566D03*
X028113Y006566D03*
X028113Y005566D03*
X028113Y004566D03*
X025664Y001841D03*
X024664Y001841D03*
X023664Y001841D03*
X022664Y001841D03*
X021664Y001841D03*
X020664Y001841D03*
X019664Y001841D03*
X018664Y001841D03*
X017664Y001841D03*
X016664Y001841D03*
X015664Y001802D03*
X014664Y001802D03*
X013664Y001802D03*
X012664Y001802D03*
X011664Y001802D03*
X011664Y000802D03*
X012664Y000802D03*
X013664Y000802D03*
X014664Y000802D03*
X015664Y000802D03*
X016664Y000841D03*
X017664Y000841D03*
X018664Y000841D03*
X019664Y000841D03*
X020664Y000841D03*
X021664Y000841D03*
X022664Y000841D03*
X023664Y000841D03*
X024664Y000841D03*
X025664Y000841D03*
X009609Y000841D03*
X009609Y001841D03*
D12*
X027219Y010003D03*
X028219Y010003D03*
X028219Y011971D03*
X027219Y011971D03*
D13*
X018471Y016022D03*
X015471Y016022D03*
X015471Y019022D03*
X018471Y019022D03*
D14*
X018428Y017719D03*
X015947Y017680D03*
X014412Y017522D03*
X011774Y016302D03*
X011499Y017247D03*
X012247Y014806D03*
X014530Y014491D03*
X015947Y014609D03*
X016105Y015396D03*
X016695Y013940D03*
X017877Y013270D03*
X019451Y013270D03*
X020475Y012247D03*
X022207Y011577D03*
X024963Y011971D03*
X024018Y014255D03*
X023940Y015711D03*
X022995Y015672D03*
X021066Y015357D03*
X024018Y017758D03*
X026420Y016695D03*
X027601Y016262D03*
X027325Y017719D03*
X026538Y017877D03*
X017562Y011026D03*
X019491Y010711D03*
X015121Y010318D03*
X014727Y010790D03*
X013743Y010593D03*
X011971Y010396D03*
X011302Y011105D03*
X011971Y011774D03*
X011971Y012640D03*
X012758Y012640D03*
X013743Y012640D03*
X014412Y012640D03*
X015121Y012640D03*
X015121Y011892D03*
X011971Y009215D03*
X011184Y008428D03*
X010003Y007404D03*
X008034Y007247D03*
X008821Y006066D03*
X010003Y004884D03*
X013546Y006066D03*
X013940Y005278D03*
X013861Y004491D03*
X016538Y007286D03*
X014491Y008310D03*
X014629Y008920D03*
X009215Y009176D03*
X008664Y010121D03*
X008821Y010751D03*
X008743Y011617D03*
X008703Y012562D03*
X006892Y013979D03*
X008034Y015514D03*
X006774Y016892D03*
X008034Y017483D03*
X002916Y016302D03*
X002916Y014333D03*
X002916Y012365D03*
X002916Y010396D03*
X002129Y010003D03*
X006381Y010160D03*
X006381Y010790D03*
X006459Y011971D03*
X006932Y008625D03*
X000947Y004097D03*
X001971Y002877D03*
X005278Y002129D03*
D15*
X013506Y013546D02*
X016302Y013546D01*
X016695Y013940D01*
X014530Y014491D02*
X014530Y016499D01*
X015711Y017680D01*
X015947Y017680D01*
X012247Y014806D02*
X013506Y013546D01*
X011774Y016302D02*
X010593Y016302D01*
X010003Y016892D01*
X006774Y016892D01*
D16*
X006037Y016880D02*
X003381Y016880D01*
X003334Y016927D02*
X003063Y017039D01*
X002769Y017039D01*
X002498Y016927D01*
X002291Y016719D01*
X002179Y016448D01*
X002179Y016155D01*
X002291Y015884D01*
X002498Y015677D01*
X002769Y015565D01*
X003063Y015565D01*
X003334Y015677D01*
X003541Y015884D01*
X003653Y016155D01*
X003653Y016448D01*
X003541Y016719D01*
X003334Y016927D01*
X003161Y016998D02*
X006037Y016998D01*
X006037Y017039D02*
X006037Y016746D01*
X006149Y016475D01*
X006357Y016267D01*
X006628Y016155D01*
X006921Y016155D01*
X006962Y016172D01*
X007696Y016172D01*
X007616Y016139D01*
X007409Y015932D01*
X007297Y015661D01*
X007297Y015368D01*
X007409Y015097D01*
X007616Y014889D01*
X007887Y014777D01*
X008181Y014777D01*
X008452Y014889D01*
X008659Y015097D01*
X008771Y015368D01*
X008771Y015661D01*
X008659Y015932D01*
X008452Y016139D01*
X008372Y016172D01*
X009704Y016172D01*
X009983Y015894D01*
X010185Y015691D01*
X010450Y015582D01*
X011586Y015582D01*
X011628Y015565D01*
X011921Y015565D01*
X012192Y015677D01*
X012399Y015884D01*
X012511Y016155D01*
X012511Y016448D01*
X012399Y016719D01*
X012192Y016927D01*
X012168Y016937D01*
X012236Y017100D01*
X012236Y017393D01*
X012124Y017664D01*
X011916Y017872D01*
X011645Y017984D01*
X011352Y017984D01*
X011081Y017872D01*
X010874Y017664D01*
X010761Y017393D01*
X010761Y017152D01*
X010613Y017300D01*
X010613Y017300D01*
X010410Y017503D01*
X010146Y017612D01*
X008771Y017612D01*
X008771Y017630D01*
X008659Y017900D01*
X008452Y018108D01*
X008181Y018220D01*
X007887Y018220D01*
X007616Y018108D01*
X007409Y017900D01*
X007297Y017630D01*
X007297Y017612D01*
X006962Y017612D01*
X006921Y017630D01*
X006628Y017630D01*
X006357Y017517D01*
X006149Y017310D01*
X006037Y017039D01*
X006069Y017117D02*
X001807Y017117D01*
X001807Y017056D02*
X001807Y017398D01*
X001677Y017714D01*
X001664Y017727D01*
X001677Y017740D01*
X001807Y018056D01*
X001807Y018398D01*
X001677Y018714D01*
X001499Y018891D01*
X004041Y018891D01*
X003907Y018757D01*
X003870Y018668D01*
X003813Y018697D01*
X003744Y018719D01*
X003676Y018730D01*
X003676Y018310D01*
X003596Y018310D01*
X003596Y018230D01*
X003177Y018230D01*
X003188Y018163D01*
X003210Y018094D01*
X003243Y018029D01*
X003286Y017971D01*
X003337Y017919D01*
X003395Y017877D01*
X003460Y017844D01*
X003529Y017822D01*
X003596Y017811D01*
X003596Y018230D01*
X003676Y018230D01*
X003676Y017811D01*
X003744Y017822D01*
X003813Y017844D01*
X003870Y017873D01*
X003907Y017783D01*
X004149Y017541D01*
X004465Y017410D01*
X004807Y017410D01*
X005124Y017541D01*
X005366Y017783D01*
X005496Y018099D01*
X005496Y018441D01*
X005366Y018757D01*
X005232Y018891D01*
X014675Y018891D01*
X014675Y018864D01*
X014796Y018571D01*
X015020Y018347D01*
X015261Y018248D01*
X014995Y017982D01*
X014830Y018147D01*
X014559Y018259D01*
X014265Y018259D01*
X013994Y018147D01*
X013787Y017940D01*
X013675Y017669D01*
X013675Y017376D01*
X013787Y017105D01*
X013952Y016939D01*
X013920Y016906D01*
X013810Y016642D01*
X013810Y014679D01*
X013793Y014637D01*
X013793Y014344D01*
X013825Y014266D01*
X013805Y014266D01*
X012889Y015182D01*
X012872Y015223D01*
X012664Y015431D01*
X012393Y015543D01*
X012100Y015543D01*
X011829Y015431D01*
X011622Y015223D01*
X011509Y014952D01*
X011509Y014659D01*
X011622Y014388D01*
X011829Y014181D01*
X011871Y014164D01*
X012657Y013378D01*
X012612Y013378D01*
X012365Y013275D01*
X012118Y013378D01*
X011824Y013378D01*
X011553Y013265D01*
X011346Y013058D01*
X011234Y012787D01*
X011234Y012494D01*
X011346Y012223D01*
X011362Y012207D01*
X011346Y012192D01*
X011234Y011921D01*
X011234Y011842D01*
X011155Y011842D01*
X010884Y011730D01*
X010677Y011523D01*
X010565Y011252D01*
X010565Y010958D01*
X010677Y010687D01*
X010884Y010480D01*
X011155Y010368D01*
X011234Y010368D01*
X011234Y010250D01*
X011346Y009979D01*
X011519Y009806D01*
X011346Y009633D01*
X011234Y009362D01*
X011234Y009165D01*
X011037Y009165D01*
X010766Y009053D01*
X010559Y008845D01*
X010446Y008574D01*
X010446Y008281D01*
X010559Y008010D01*
X010766Y007803D01*
X011037Y007691D01*
X011330Y007691D01*
X011601Y007803D01*
X011809Y008010D01*
X011921Y008281D01*
X011921Y008478D01*
X012118Y008478D01*
X012389Y008590D01*
X012596Y008798D01*
X012708Y009069D01*
X012708Y009362D01*
X012596Y009633D01*
X012423Y009806D01*
X012596Y009979D01*
X012708Y010250D01*
X012708Y010543D01*
X012596Y010814D01*
X012389Y011021D01*
X012234Y011085D01*
X012389Y011149D01*
X012596Y011357D01*
X012708Y011628D01*
X012708Y011903D01*
X012905Y011903D01*
X013176Y012015D01*
X013251Y012090D01*
X013325Y012015D01*
X013596Y011903D01*
X013889Y011903D01*
X014077Y011981D01*
X014265Y011903D01*
X014383Y011903D01*
X014383Y011746D01*
X014490Y011490D01*
X014309Y011415D01*
X014127Y011232D01*
X013889Y011330D01*
X013596Y011330D01*
X013325Y011218D01*
X013118Y011011D01*
X013006Y010740D01*
X013006Y010446D01*
X013118Y010176D01*
X013325Y009968D01*
X013596Y009856D01*
X013889Y009856D01*
X014160Y009968D01*
X014343Y010151D01*
X014402Y010127D01*
X014496Y009900D01*
X014703Y009693D01*
X014974Y009580D01*
X015267Y009580D01*
X015538Y009693D01*
X015746Y009900D01*
X015858Y010171D01*
X015858Y010464D01*
X015746Y010735D01*
X015538Y010942D01*
X015446Y010981D01*
X015358Y011193D01*
X015538Y011267D01*
X015746Y011475D01*
X015858Y011746D01*
X015858Y012039D01*
X015764Y012266D01*
X015858Y012494D01*
X015858Y012787D01*
X015842Y012826D01*
X016445Y012826D01*
X016710Y012935D01*
X016912Y013138D01*
X017072Y013297D01*
X017113Y013315D01*
X017139Y013341D01*
X017139Y013124D01*
X017252Y012853D01*
X017459Y012645D01*
X017730Y012533D01*
X018023Y012533D01*
X018294Y012645D01*
X018502Y012853D01*
X018614Y013124D01*
X018614Y013417D01*
X018502Y013688D01*
X018294Y013895D01*
X018023Y014007D01*
X017730Y014007D01*
X017459Y013895D01*
X017433Y013869D01*
X017433Y014086D01*
X017320Y014357D01*
X017113Y014565D01*
X016842Y014677D01*
X016685Y014677D01*
X016685Y014755D01*
X016633Y014881D01*
X016730Y014979D01*
X016842Y015250D01*
X016842Y015543D01*
X016730Y015814D01*
X016523Y016021D01*
X016267Y016127D01*
X016267Y016181D01*
X016146Y016473D01*
X015922Y016697D01*
X015798Y016749D01*
X015992Y016943D01*
X016094Y016943D01*
X016365Y017055D01*
X016572Y017262D01*
X016685Y017533D01*
X016685Y017826D01*
X016572Y018097D01*
X016365Y018305D01*
X016094Y018417D01*
X015992Y018417D01*
X016146Y018571D01*
X016267Y018864D01*
X016267Y018891D01*
X017675Y018891D01*
X017675Y018864D01*
X017796Y018571D01*
X018019Y018348D01*
X018010Y018344D01*
X017803Y018137D01*
X017691Y017866D01*
X017691Y017572D01*
X017803Y017302D01*
X018010Y017094D01*
X018281Y016982D01*
X018574Y016982D01*
X018845Y017094D01*
X019053Y017302D01*
X019165Y017572D01*
X019165Y017866D01*
X019053Y018137D01*
X018866Y018324D01*
X018922Y018347D01*
X019146Y018571D01*
X019267Y018864D01*
X019267Y018891D01*
X019272Y018891D01*
X019272Y018599D01*
X019403Y018283D01*
X019416Y018270D01*
X019403Y018257D01*
X019272Y017941D01*
X019272Y017599D01*
X019403Y017283D01*
X019645Y017041D01*
X019961Y016910D01*
X020304Y016910D01*
X020620Y017041D01*
X020632Y017054D01*
X020645Y017041D01*
X020961Y016910D01*
X021304Y016910D01*
X021620Y017041D01*
X021862Y017283D01*
X021993Y017599D01*
X021993Y017941D01*
X021862Y018257D01*
X021849Y018270D01*
X021862Y018283D01*
X021993Y018599D01*
X021993Y018891D01*
X028734Y018891D01*
X028734Y012588D01*
X028672Y012649D01*
X028378Y012771D01*
X028060Y012771D01*
X027766Y012649D01*
X027719Y012602D01*
X027672Y012649D01*
X027378Y012771D01*
X027060Y012771D01*
X026766Y012649D01*
X026541Y012424D01*
X026419Y012130D01*
X026419Y011812D01*
X026541Y011518D01*
X026766Y011293D01*
X027060Y011171D01*
X027378Y011171D01*
X027672Y011293D01*
X027719Y011340D01*
X027766Y011293D01*
X028060Y011171D01*
X028378Y011171D01*
X028672Y011293D01*
X028734Y011354D01*
X028734Y010619D01*
X028672Y010681D01*
X028378Y010803D01*
X028060Y010803D01*
X027766Y010681D01*
X027719Y010634D01*
X027672Y010681D01*
X027378Y010803D01*
X027060Y010803D01*
X026766Y010681D01*
X026541Y010456D01*
X026419Y010162D01*
X026419Y009843D01*
X026541Y009549D01*
X026766Y009324D01*
X027060Y009203D01*
X027378Y009203D01*
X027672Y009324D01*
X027719Y009371D01*
X027766Y009324D01*
X028060Y009203D01*
X028378Y009203D01*
X028672Y009324D01*
X028734Y009386D01*
X028734Y008161D01*
X028600Y008295D01*
X028284Y008426D01*
X027942Y008426D01*
X027626Y008295D01*
X027384Y008053D01*
X027253Y007737D01*
X027253Y007394D01*
X027384Y007078D01*
X027397Y007066D01*
X027384Y007053D01*
X027253Y006737D01*
X027253Y006394D01*
X027384Y006078D01*
X027397Y006066D01*
X027384Y006053D01*
X027253Y005737D01*
X027253Y005394D01*
X027384Y005078D01*
X027397Y005066D01*
X027384Y005053D01*
X027253Y004737D01*
X027253Y004394D01*
X027384Y004078D01*
X027626Y003836D01*
X027942Y003706D01*
X028284Y003706D01*
X028600Y003836D01*
X028734Y003970D01*
X028734Y000720D01*
X026524Y000720D01*
X026524Y001012D01*
X026393Y001328D01*
X026380Y001341D01*
X026393Y001354D01*
X026524Y001670D01*
X026524Y002012D01*
X026393Y002328D01*
X026151Y002570D01*
X025835Y002701D01*
X025493Y002701D01*
X025177Y002570D01*
X025164Y002557D01*
X025151Y002570D01*
X024835Y002701D01*
X024493Y002701D01*
X024177Y002570D01*
X024164Y002557D01*
X024151Y002570D01*
X023835Y002701D01*
X023493Y002701D01*
X023177Y002570D01*
X023164Y002557D01*
X023151Y002570D01*
X022835Y002701D01*
X022493Y002701D01*
X022177Y002570D01*
X022164Y002557D01*
X022151Y002570D01*
X021835Y002701D01*
X021493Y002701D01*
X021177Y002570D01*
X021164Y002557D01*
X021151Y002570D01*
X020835Y002701D01*
X020493Y002701D01*
X020177Y002570D01*
X020164Y002557D01*
X020151Y002570D01*
X019835Y002701D01*
X019493Y002701D01*
X019177Y002570D01*
X019164Y002557D01*
X019151Y002570D01*
X018835Y002701D01*
X018493Y002701D01*
X018177Y002570D01*
X018164Y002557D01*
X018151Y002570D01*
X017835Y002701D01*
X017493Y002701D01*
X017177Y002570D01*
X017164Y002557D01*
X017151Y002570D01*
X016835Y002701D01*
X016493Y002701D01*
X016177Y002570D01*
X016141Y002535D01*
X015835Y002662D01*
X015493Y002662D01*
X015177Y002531D01*
X015164Y002518D01*
X015151Y002531D01*
X014835Y002662D01*
X014493Y002662D01*
X014177Y002531D01*
X014164Y002518D01*
X014151Y002531D01*
X013835Y002662D01*
X013493Y002662D01*
X013177Y002531D01*
X013164Y002518D01*
X013151Y002531D01*
X012835Y002662D01*
X012493Y002662D01*
X012177Y002531D01*
X012164Y002518D01*
X012151Y002531D01*
X011835Y002662D01*
X011493Y002662D01*
X011177Y002531D01*
X010935Y002289D01*
X010804Y001973D01*
X010804Y001631D01*
X010935Y001315D01*
X010948Y001302D01*
X010935Y001289D01*
X010804Y000973D01*
X010804Y000720D01*
X010469Y000720D01*
X010469Y001012D01*
X010338Y001328D01*
X010325Y001341D01*
X010338Y001354D01*
X010469Y001670D01*
X010469Y002012D01*
X010338Y002328D01*
X010096Y002570D01*
X009780Y002701D01*
X009438Y002701D01*
X009122Y002570D01*
X008880Y002328D01*
X008749Y002012D01*
X008749Y001670D01*
X008880Y001354D01*
X008893Y001341D01*
X008880Y001328D01*
X008749Y001012D01*
X008749Y000720D01*
X000720Y000720D01*
X000720Y003393D01*
X000801Y003360D01*
X001094Y003360D01*
X001365Y003472D01*
X001572Y003679D01*
X001685Y003950D01*
X001685Y004244D01*
X001572Y004515D01*
X001365Y004722D01*
X001094Y004834D01*
X000801Y004834D01*
X000720Y004801D01*
X000720Y004910D01*
X000776Y004887D01*
X001119Y004887D01*
X001435Y005018D01*
X001677Y005259D01*
X001807Y005576D01*
X001807Y005918D01*
X001677Y006234D01*
X001664Y006247D01*
X001677Y006259D01*
X001807Y006576D01*
X001807Y006918D01*
X001677Y007234D01*
X001664Y007247D01*
X001677Y007259D01*
X001807Y007576D01*
X001807Y007918D01*
X001677Y008234D01*
X001664Y008247D01*
X001677Y008259D01*
X001807Y008576D01*
X001807Y008918D01*
X001677Y009234D01*
X001435Y009476D01*
X001119Y009607D01*
X000776Y009607D01*
X000720Y009583D01*
X000720Y010390D01*
X000776Y010367D01*
X001119Y010367D01*
X001435Y010498D01*
X001677Y010740D01*
X001807Y011056D01*
X001807Y011398D01*
X001677Y011714D01*
X001664Y011727D01*
X001677Y011740D01*
X001807Y012056D01*
X001807Y012398D01*
X001677Y012714D01*
X001664Y012727D01*
X001677Y012740D01*
X001807Y013056D01*
X001807Y013398D01*
X001677Y013714D01*
X001664Y013727D01*
X001677Y013740D01*
X001807Y014056D01*
X001807Y014398D01*
X001677Y014714D01*
X001664Y014727D01*
X001677Y014740D01*
X001807Y015056D01*
X001807Y015398D01*
X001677Y015714D01*
X001664Y015727D01*
X001677Y015740D01*
X001807Y016056D01*
X001807Y016398D01*
X001677Y016714D01*
X001664Y016727D01*
X001677Y016740D01*
X001807Y017056D01*
X001784Y016998D02*
X002671Y016998D01*
X002451Y016880D02*
X001734Y016880D01*
X001685Y016761D02*
X002333Y016761D01*
X002259Y016643D02*
X001706Y016643D01*
X001755Y016524D02*
X002210Y016524D01*
X002179Y016405D02*
X001804Y016405D01*
X001807Y016287D02*
X002179Y016287D01*
X002179Y016168D02*
X001807Y016168D01*
X001805Y016050D02*
X002222Y016050D01*
X002272Y015931D02*
X001756Y015931D01*
X001707Y015812D02*
X002363Y015812D01*
X002481Y015694D02*
X001685Y015694D01*
X001734Y015575D02*
X002743Y015575D01*
X003089Y015575D02*
X007297Y015575D01*
X007297Y015457D02*
X001783Y015457D01*
X001807Y015338D02*
X007309Y015338D01*
X007358Y015220D02*
X001807Y015220D01*
X001807Y015101D02*
X007407Y015101D01*
X007523Y014982D02*
X003275Y014982D01*
X003334Y014958D02*
X003063Y015070D01*
X002769Y015070D01*
X002498Y014958D01*
X002291Y014751D01*
X002179Y014480D01*
X002179Y014187D01*
X002291Y013916D01*
X002498Y013708D01*
X002769Y013596D01*
X003063Y013596D01*
X003334Y013708D01*
X003541Y013916D01*
X003653Y014187D01*
X003653Y014480D01*
X003541Y014751D01*
X003334Y014958D01*
X003428Y014864D02*
X007678Y014864D01*
X007406Y014508D02*
X011572Y014508D01*
X011621Y014390D02*
X007520Y014390D01*
X007517Y014397D02*
X007310Y014604D01*
X007039Y014716D01*
X006746Y014716D01*
X006475Y014604D01*
X006267Y014397D01*
X006155Y014126D01*
X006155Y013832D01*
X006267Y013561D01*
X006475Y013354D01*
X006746Y013242D01*
X007039Y013242D01*
X007310Y013354D01*
X007517Y013561D01*
X007630Y013832D01*
X007630Y014126D01*
X007517Y014397D01*
X007569Y014271D02*
X011739Y014271D01*
X011882Y014152D02*
X007618Y014152D01*
X007630Y014034D02*
X012000Y014034D01*
X012119Y013915D02*
X007630Y013915D01*
X007615Y013797D02*
X012237Y013797D01*
X012356Y013678D02*
X007566Y013678D01*
X007515Y013559D02*
X012475Y013559D01*
X012593Y013441D02*
X007397Y013441D01*
X007233Y013322D02*
X011691Y013322D01*
X011492Y013204D02*
X009080Y013204D01*
X009121Y013187D02*
X008850Y013299D01*
X008557Y013299D01*
X008286Y013187D01*
X008078Y012979D01*
X007966Y012708D01*
X007966Y012415D01*
X008078Y012144D01*
X008153Y012069D01*
X008118Y012034D01*
X008006Y011763D01*
X008006Y011470D01*
X008118Y011199D01*
X008182Y011134D01*
X008084Y010897D01*
X008084Y010604D01*
X008090Y010589D01*
X008039Y010538D01*
X007927Y010267D01*
X007927Y009974D01*
X008039Y009703D01*
X008246Y009496D01*
X008505Y009388D01*
X008478Y009322D01*
X008478Y009029D01*
X008590Y008758D01*
X008798Y008551D01*
X009069Y008439D01*
X009362Y008439D01*
X009633Y008551D01*
X009840Y008758D01*
X009952Y009029D01*
X009952Y009322D01*
X009840Y009593D01*
X009633Y009801D01*
X009374Y009908D01*
X009401Y009974D01*
X009401Y010267D01*
X009395Y010282D01*
X009446Y010333D01*
X009559Y010604D01*
X009559Y010897D01*
X009446Y011168D01*
X009382Y011233D01*
X009480Y011470D01*
X009480Y011763D01*
X009368Y012034D01*
X009293Y012109D01*
X009328Y012144D01*
X009441Y012415D01*
X009441Y012708D01*
X009328Y012979D01*
X009121Y013187D01*
X009222Y013085D02*
X011373Y013085D01*
X011308Y012967D02*
X009334Y012967D01*
X009383Y012848D02*
X011259Y012848D01*
X011234Y012729D02*
X009432Y012729D01*
X009441Y012611D02*
X011234Y012611D01*
X011234Y012492D02*
X009441Y012492D01*
X009423Y012374D02*
X011284Y012374D01*
X011333Y012255D02*
X009374Y012255D01*
X009321Y012137D02*
X011323Y012137D01*
X011274Y012018D02*
X009374Y012018D01*
X009424Y011899D02*
X011234Y011899D01*
X011007Y011781D02*
X009473Y011781D01*
X009480Y011662D02*
X010816Y011662D01*
X010698Y011544D02*
X009480Y011544D01*
X009461Y011425D02*
X010636Y011425D01*
X010587Y011306D02*
X009412Y011306D01*
X009427Y011188D02*
X010565Y011188D01*
X010565Y011069D02*
X009487Y011069D01*
X009537Y010951D02*
X010568Y010951D01*
X010617Y010832D02*
X009559Y010832D01*
X009559Y010714D02*
X010666Y010714D01*
X010769Y010595D02*
X009555Y010595D01*
X009506Y010476D02*
X010893Y010476D01*
X011234Y010358D02*
X009457Y010358D01*
X009401Y010239D02*
X011238Y010239D01*
X011287Y010121D02*
X009401Y010121D01*
X009401Y010002D02*
X011336Y010002D01*
X011441Y009884D02*
X009433Y009884D01*
X009669Y009765D02*
X011478Y009765D01*
X011360Y009646D02*
X009787Y009646D01*
X009867Y009528D02*
X011303Y009528D01*
X011253Y009409D02*
X009916Y009409D01*
X009952Y009291D02*
X011234Y009291D01*
X011234Y009172D02*
X009952Y009172D01*
X009952Y009053D02*
X010768Y009053D01*
X010648Y008935D02*
X009913Y008935D01*
X009864Y008816D02*
X010547Y008816D01*
X010498Y008698D02*
X009780Y008698D01*
X009661Y008579D02*
X010448Y008579D01*
X010446Y008461D02*
X009415Y008461D01*
X009015Y008461D02*
X007662Y008461D01*
X007669Y008478D02*
X007557Y008207D01*
X007349Y008000D01*
X007078Y007887D01*
X006785Y007887D01*
X006514Y008000D01*
X006307Y008207D01*
X006194Y008478D01*
X006194Y008771D01*
X006307Y009042D01*
X006514Y009250D01*
X006785Y009362D01*
X007078Y009362D01*
X007349Y009250D01*
X007557Y009042D01*
X007669Y008771D01*
X007669Y008478D01*
X007669Y008579D02*
X008769Y008579D01*
X008651Y008698D02*
X007669Y008698D01*
X007650Y008816D02*
X008566Y008816D01*
X008517Y008935D02*
X007601Y008935D01*
X007545Y009053D02*
X008478Y009053D01*
X008478Y009172D02*
X007427Y009172D01*
X007250Y009291D02*
X008478Y009291D01*
X008455Y009409D02*
X002578Y009409D01*
X002546Y009378D02*
X002275Y009265D01*
X001982Y009265D01*
X001711Y009378D01*
X001504Y009585D01*
X001391Y009856D01*
X001391Y010149D01*
X001504Y010420D01*
X001711Y010628D01*
X001982Y010740D01*
X002260Y010740D01*
X002291Y010814D01*
X002498Y011021D01*
X002769Y011133D01*
X003063Y011133D01*
X003334Y011021D01*
X003541Y010814D01*
X003653Y010543D01*
X003653Y010250D01*
X003541Y009979D01*
X003334Y009771D01*
X003063Y009659D01*
X002784Y009659D01*
X002754Y009585D01*
X002546Y009378D01*
X002696Y009528D02*
X005981Y009528D01*
X005963Y009535D02*
X006234Y009423D01*
X006527Y009423D01*
X006798Y009535D01*
X007005Y009742D01*
X007118Y010013D01*
X007118Y010307D01*
X007048Y010475D01*
X007118Y010643D01*
X007118Y010937D01*
X007005Y011208D01*
X006870Y011343D01*
X006877Y011346D01*
X007084Y011553D01*
X007196Y011824D01*
X007196Y012118D01*
X007084Y012389D01*
X006877Y012596D01*
X006606Y012708D01*
X006313Y012708D01*
X006042Y012596D01*
X005834Y012389D01*
X005722Y012118D01*
X005722Y011824D01*
X005834Y011553D01*
X005970Y011418D01*
X005963Y011415D01*
X005756Y011208D01*
X005643Y010937D01*
X005643Y010643D01*
X005713Y010475D01*
X005643Y010307D01*
X005643Y010013D01*
X005756Y009742D01*
X005963Y009535D01*
X005852Y009646D02*
X002779Y009646D01*
X003318Y009765D02*
X005746Y009765D01*
X005697Y009884D02*
X003446Y009884D01*
X003551Y010002D02*
X005648Y010002D01*
X005643Y010121D02*
X003600Y010121D01*
X003649Y010239D02*
X005643Y010239D01*
X005664Y010358D02*
X003653Y010358D01*
X003653Y010476D02*
X005712Y010476D01*
X005663Y010595D02*
X003632Y010595D01*
X003582Y010714D02*
X005643Y010714D01*
X005643Y010832D02*
X003523Y010832D01*
X003404Y010951D02*
X005649Y010951D01*
X005698Y011069D02*
X003217Y011069D01*
X002614Y011069D02*
X001807Y011069D01*
X001807Y011188D02*
X005747Y011188D01*
X005854Y011306D02*
X001807Y011306D01*
X001796Y011425D02*
X005963Y011425D01*
X005844Y011544D02*
X001747Y011544D01*
X001698Y011662D02*
X002686Y011662D01*
X002769Y011628D02*
X003063Y011628D01*
X003334Y011740D01*
X003541Y011947D01*
X003653Y012218D01*
X003653Y012511D01*
X003541Y012782D01*
X003334Y012990D01*
X003063Y013102D01*
X002769Y013102D01*
X002498Y012990D01*
X002291Y012782D01*
X002179Y012511D01*
X002179Y012218D01*
X002291Y011947D01*
X002498Y011740D01*
X002769Y011628D01*
X002457Y011781D02*
X001694Y011781D01*
X001743Y011899D02*
X002339Y011899D01*
X002262Y012018D02*
X001792Y012018D01*
X001807Y012137D02*
X002213Y012137D01*
X002179Y012255D02*
X001807Y012255D01*
X001807Y012374D02*
X002179Y012374D01*
X002179Y012492D02*
X001768Y012492D01*
X001719Y012611D02*
X002220Y012611D01*
X002269Y012729D02*
X001666Y012729D01*
X001721Y012848D02*
X002357Y012848D01*
X002475Y012967D02*
X001770Y012967D01*
X001807Y013085D02*
X002729Y013085D01*
X003103Y013085D02*
X008184Y013085D01*
X008073Y012967D02*
X003357Y012967D01*
X003475Y012848D02*
X008024Y012848D01*
X007975Y012729D02*
X003563Y012729D01*
X003612Y012611D02*
X006077Y012611D01*
X005938Y012492D02*
X003653Y012492D01*
X003653Y012374D02*
X005828Y012374D01*
X005779Y012255D02*
X003653Y012255D01*
X003619Y012137D02*
X005730Y012137D01*
X005722Y012018D02*
X003570Y012018D01*
X003493Y011899D02*
X005722Y011899D01*
X005740Y011781D02*
X003375Y011781D01*
X003146Y011662D02*
X005789Y011662D01*
X006907Y011306D02*
X008073Y011306D01*
X008024Y011425D02*
X006956Y011425D01*
X007074Y011544D02*
X008006Y011544D01*
X008006Y011662D02*
X007129Y011662D01*
X007178Y011781D02*
X008013Y011781D01*
X008062Y011899D02*
X007196Y011899D01*
X007196Y012018D02*
X008111Y012018D01*
X008086Y012137D02*
X007189Y012137D01*
X007140Y012255D02*
X008032Y012255D01*
X007983Y012374D02*
X007090Y012374D01*
X006981Y012492D02*
X007966Y012492D01*
X007966Y012611D02*
X006841Y012611D01*
X006551Y013322D02*
X001807Y013322D01*
X001807Y013204D02*
X008327Y013204D01*
X007255Y014627D02*
X011523Y014627D01*
X011509Y014745D02*
X003543Y014745D01*
X003592Y014627D02*
X006530Y014627D01*
X006379Y014508D02*
X003641Y014508D01*
X003653Y014390D02*
X006264Y014390D01*
X006215Y014271D02*
X003653Y014271D01*
X003639Y014152D02*
X006166Y014152D01*
X006155Y014034D02*
X003590Y014034D01*
X003540Y013915D02*
X006155Y013915D01*
X006170Y013797D02*
X003422Y013797D01*
X003261Y013678D02*
X006219Y013678D01*
X006269Y013559D02*
X001741Y013559D01*
X001790Y013441D02*
X006388Y013441D01*
X008390Y014864D02*
X011509Y014864D01*
X011522Y014982D02*
X008545Y014982D01*
X008661Y015101D02*
X011571Y015101D01*
X011620Y015220D02*
X008710Y015220D01*
X008759Y015338D02*
X011737Y015338D01*
X011892Y015457D02*
X008771Y015457D01*
X008771Y015575D02*
X011602Y015575D01*
X011947Y015575D02*
X013810Y015575D01*
X013810Y015457D02*
X012601Y015457D01*
X012757Y015338D02*
X013810Y015338D01*
X013810Y015220D02*
X012873Y015220D01*
X012970Y015101D02*
X013810Y015101D01*
X013810Y014982D02*
X013088Y014982D01*
X013207Y014864D02*
X013810Y014864D01*
X013810Y014745D02*
X013325Y014745D01*
X013444Y014627D02*
X013793Y014627D01*
X013793Y014508D02*
X013563Y014508D01*
X013681Y014390D02*
X013793Y014390D01*
X013800Y014271D02*
X013823Y014271D01*
X012478Y013322D02*
X012251Y013322D01*
X013179Y012018D02*
X013323Y012018D01*
X012708Y011899D02*
X014383Y011899D01*
X014383Y011781D02*
X012708Y011781D01*
X012708Y011662D02*
X014418Y011662D01*
X014467Y011544D02*
X012673Y011544D01*
X012624Y011425D02*
X014334Y011425D01*
X014201Y011306D02*
X013947Y011306D01*
X013538Y011306D02*
X012546Y011306D01*
X012427Y011188D02*
X013295Y011188D01*
X013176Y011069D02*
X012273Y011069D01*
X012459Y010951D02*
X013093Y010951D01*
X013044Y010832D02*
X012578Y010832D01*
X012638Y010714D02*
X013006Y010714D01*
X013006Y010595D02*
X012687Y010595D01*
X012708Y010476D02*
X013006Y010476D01*
X013042Y010358D02*
X012708Y010358D01*
X012704Y010239D02*
X013091Y010239D01*
X013173Y010121D02*
X012655Y010121D01*
X012606Y010002D02*
X013291Y010002D01*
X013529Y009884D02*
X012501Y009884D01*
X012464Y009765D02*
X014631Y009765D01*
X014512Y009884D02*
X013956Y009884D01*
X014194Y010002D02*
X014453Y010002D01*
X014404Y010121D02*
X014313Y010121D01*
X014482Y009657D02*
X014211Y009545D01*
X014004Y009337D01*
X013891Y009067D01*
X013891Y008773D01*
X013897Y008759D01*
X013866Y008727D01*
X013754Y008456D01*
X013754Y008163D01*
X013866Y007892D01*
X014073Y007685D01*
X014344Y007572D01*
X014637Y007572D01*
X014908Y007685D01*
X015116Y007892D01*
X015228Y008163D01*
X015228Y008456D01*
X015222Y008471D01*
X015254Y008502D01*
X015366Y008773D01*
X015366Y009067D01*
X015254Y009337D01*
X015046Y009545D01*
X014775Y009657D01*
X014482Y009657D01*
X014456Y009646D02*
X012582Y009646D01*
X012640Y009528D02*
X014194Y009528D01*
X014075Y009409D02*
X012689Y009409D01*
X012708Y009291D02*
X013984Y009291D01*
X013935Y009172D02*
X012708Y009172D01*
X012702Y009053D02*
X013891Y009053D01*
X013891Y008935D02*
X012653Y008935D01*
X012604Y008816D02*
X013891Y008816D01*
X013854Y008698D02*
X012496Y008698D01*
X012362Y008579D02*
X013804Y008579D01*
X013755Y008461D02*
X011921Y008461D01*
X011921Y008342D02*
X013754Y008342D01*
X013754Y008223D02*
X011897Y008223D01*
X011848Y008105D02*
X013778Y008105D01*
X013827Y007986D02*
X011785Y007986D01*
X011666Y007868D02*
X013890Y007868D01*
X014009Y007749D02*
X011472Y007749D01*
X010896Y007749D02*
X010658Y007749D01*
X010628Y007822D02*
X010740Y007551D01*
X010740Y007257D01*
X010628Y006987D01*
X010420Y006779D01*
X010149Y006667D01*
X009856Y006667D01*
X009585Y006779D01*
X009378Y006987D01*
X009265Y007257D01*
X009265Y007551D01*
X009378Y007822D01*
X009585Y008029D01*
X009856Y008141D01*
X010149Y008141D01*
X010420Y008029D01*
X010628Y007822D01*
X010582Y007868D02*
X010701Y007868D01*
X010583Y007986D02*
X010463Y007986D01*
X010519Y008105D02*
X010237Y008105D01*
X010470Y008223D02*
X007563Y008223D01*
X007613Y008342D02*
X010446Y008342D01*
X009768Y008105D02*
X007454Y008105D01*
X007317Y007986D02*
X009542Y007986D01*
X009424Y007868D02*
X008456Y007868D01*
X008452Y007872D02*
X008181Y007984D01*
X007887Y007984D01*
X007616Y007872D01*
X007409Y007664D01*
X007297Y007393D01*
X007297Y007100D01*
X007409Y006829D01*
X007616Y006622D01*
X007887Y006509D01*
X008181Y006509D01*
X008253Y006539D01*
X008196Y006483D01*
X008084Y006212D01*
X008084Y005919D01*
X008196Y005648D01*
X008404Y005441D01*
X008675Y005328D01*
X008968Y005328D01*
X009239Y005441D01*
X009446Y005648D01*
X009559Y005919D01*
X009559Y006212D01*
X009446Y006483D01*
X009239Y006691D01*
X008968Y006803D01*
X008675Y006803D01*
X008603Y006773D01*
X008659Y006829D01*
X008771Y007100D01*
X008771Y007393D01*
X008659Y007664D01*
X008452Y007872D01*
X008574Y007749D02*
X009348Y007749D01*
X009298Y007631D02*
X008673Y007631D01*
X008722Y007512D02*
X009265Y007512D01*
X009265Y007393D02*
X008771Y007393D01*
X008771Y007275D02*
X009265Y007275D01*
X009307Y007156D02*
X008771Y007156D01*
X008745Y007038D02*
X009356Y007038D01*
X009445Y006919D02*
X008696Y006919D01*
X008669Y006800D02*
X008630Y006800D01*
X008974Y006800D02*
X009564Y006800D01*
X009820Y006682D02*
X009248Y006682D01*
X009366Y006563D02*
X013001Y006563D01*
X012921Y006483D02*
X012809Y006212D01*
X012809Y005919D01*
X012921Y005648D01*
X013128Y005441D01*
X013202Y005410D01*
X013202Y005132D01*
X013278Y004950D01*
X013236Y004908D01*
X013124Y004637D01*
X013124Y004344D01*
X013236Y004073D01*
X001685Y004073D01*
X001685Y003955D02*
X013354Y003955D01*
X013443Y003866D02*
X013714Y003754D01*
X014007Y003754D01*
X014278Y003866D01*
X014486Y004073D01*
X014598Y004344D01*
X014598Y004637D01*
X014523Y004819D01*
X014565Y004861D01*
X014677Y005132D01*
X014677Y005425D01*
X014565Y005696D01*
X014357Y005903D01*
X014283Y005934D01*
X014283Y006212D01*
X014171Y006483D01*
X013963Y006691D01*
X013693Y006803D01*
X013399Y006803D01*
X013128Y006691D01*
X012921Y006483D01*
X012905Y006445D02*
X009462Y006445D01*
X009511Y006326D02*
X012856Y006326D01*
X012809Y006208D02*
X009559Y006208D01*
X009559Y006089D02*
X012809Y006089D01*
X012809Y005970D02*
X009559Y005970D01*
X009531Y005852D02*
X012836Y005852D01*
X012886Y005733D02*
X009482Y005733D01*
X009413Y005615D02*
X009839Y005615D01*
X009856Y005622D02*
X009585Y005509D01*
X009378Y005302D01*
X009265Y005031D01*
X009265Y004738D01*
X009378Y004467D01*
X009585Y004259D01*
X009856Y004147D01*
X010149Y004147D01*
X010420Y004259D01*
X010628Y004467D01*
X010740Y004738D01*
X010740Y005031D01*
X010628Y005302D01*
X010420Y005509D01*
X010149Y005622D01*
X009856Y005622D01*
X010166Y005615D02*
X012954Y005615D01*
X013073Y005496D02*
X010433Y005496D01*
X010552Y005378D02*
X013202Y005378D01*
X013202Y005259D02*
X010645Y005259D01*
X010695Y005140D02*
X013202Y005140D01*
X013248Y005022D02*
X010740Y005022D01*
X010740Y004903D02*
X013234Y004903D01*
X013185Y004785D02*
X010740Y004785D01*
X010710Y004666D02*
X013135Y004666D01*
X013124Y004547D02*
X010661Y004547D01*
X010590Y004429D02*
X013124Y004429D01*
X013138Y004310D02*
X010471Y004310D01*
X010257Y004192D02*
X013187Y004192D01*
X013236Y004073D02*
X013443Y003866D01*
X013515Y003836D02*
X001637Y003836D01*
X001588Y003717D02*
X027913Y003717D01*
X027627Y003836D02*
X014207Y003836D01*
X014367Y003955D02*
X027507Y003955D01*
X027389Y004073D02*
X014486Y004073D01*
X014535Y004192D02*
X027337Y004192D01*
X027288Y004310D02*
X014584Y004310D01*
X014598Y004429D02*
X027253Y004429D01*
X027253Y004547D02*
X014598Y004547D01*
X014586Y004666D02*
X027253Y004666D01*
X027273Y004785D02*
X014537Y004785D01*
X014582Y004903D02*
X027322Y004903D01*
X027371Y005022D02*
X014631Y005022D01*
X014677Y005140D02*
X027358Y005140D01*
X027309Y005259D02*
X014677Y005259D01*
X014677Y005378D02*
X027260Y005378D01*
X027253Y005496D02*
X014647Y005496D01*
X014598Y005615D02*
X027253Y005615D01*
X027253Y005733D02*
X014527Y005733D01*
X014408Y005852D02*
X027300Y005852D01*
X027350Y005970D02*
X014283Y005970D01*
X014283Y006089D02*
X027379Y006089D01*
X027330Y006208D02*
X014283Y006208D01*
X014236Y006326D02*
X027281Y006326D01*
X027253Y006445D02*
X014187Y006445D01*
X014091Y006563D02*
X016356Y006563D01*
X016391Y006549D02*
X016685Y006549D01*
X016956Y006661D01*
X017163Y006868D01*
X017275Y007139D01*
X017275Y007433D01*
X017163Y007704D01*
X016956Y007911D01*
X016685Y008023D01*
X016391Y008023D01*
X016120Y007911D01*
X015913Y007704D01*
X015801Y007433D01*
X015801Y007139D01*
X015913Y006868D01*
X016120Y006661D01*
X016391Y006549D01*
X016100Y006682D02*
X013972Y006682D01*
X013698Y006800D02*
X015981Y006800D01*
X015892Y006919D02*
X010560Y006919D01*
X010649Y007038D02*
X015843Y007038D01*
X015801Y007156D02*
X010698Y007156D01*
X010740Y007275D02*
X015801Y007275D01*
X015801Y007393D02*
X010740Y007393D01*
X010740Y007512D02*
X015834Y007512D01*
X015883Y007631D02*
X014778Y007631D01*
X014973Y007749D02*
X015958Y007749D01*
X016077Y007868D02*
X015091Y007868D01*
X015155Y007986D02*
X016302Y007986D01*
X016774Y007986D02*
X027356Y007986D01*
X027307Y007868D02*
X016999Y007868D01*
X017117Y007749D02*
X027258Y007749D01*
X027253Y007631D02*
X017193Y007631D01*
X017242Y007512D02*
X027253Y007512D01*
X027253Y007393D02*
X017275Y007393D01*
X017275Y007275D02*
X027302Y007275D01*
X027351Y007156D02*
X017275Y007156D01*
X017233Y007038D02*
X027377Y007038D01*
X027328Y006919D02*
X017184Y006919D01*
X017095Y006800D02*
X027279Y006800D01*
X027253Y006682D02*
X016976Y006682D01*
X016720Y006563D02*
X027253Y006563D01*
X027436Y008105D02*
X015204Y008105D01*
X015228Y008223D02*
X027554Y008223D01*
X027740Y008342D02*
X015228Y008342D01*
X015226Y008461D02*
X028734Y008461D01*
X028734Y008579D02*
X015285Y008579D01*
X015334Y008698D02*
X028734Y008698D01*
X028734Y008816D02*
X015366Y008816D01*
X015366Y008935D02*
X028734Y008935D01*
X028734Y009053D02*
X015366Y009053D01*
X015322Y009172D02*
X028734Y009172D01*
X028734Y009291D02*
X028591Y009291D01*
X027847Y009291D02*
X027591Y009291D01*
X026847Y009291D02*
X015273Y009291D01*
X015182Y009409D02*
X026681Y009409D01*
X026562Y009528D02*
X015063Y009528D01*
X014815Y009646D02*
X014801Y009646D01*
X015427Y009646D02*
X026501Y009646D01*
X026452Y009765D02*
X015611Y009765D01*
X015729Y009884D02*
X026419Y009884D01*
X026419Y010002D02*
X019705Y010002D01*
X019637Y009974D02*
X019908Y010086D01*
X020116Y010294D01*
X020228Y010565D01*
X020228Y010858D01*
X020116Y011129D01*
X019908Y011336D01*
X019637Y011448D01*
X019344Y011448D01*
X019073Y011336D01*
X018866Y011129D01*
X018754Y010858D01*
X018754Y010565D01*
X018866Y010294D01*
X019073Y010086D01*
X019344Y009974D01*
X019637Y009974D01*
X019943Y010121D02*
X026419Y010121D01*
X026451Y010239D02*
X020061Y010239D01*
X020142Y010358D02*
X026500Y010358D01*
X026562Y010476D02*
X020191Y010476D01*
X020228Y010595D02*
X026680Y010595D01*
X026845Y010714D02*
X020228Y010714D01*
X020228Y010832D02*
X028734Y010832D01*
X028734Y010714D02*
X028593Y010714D01*
X028734Y010951D02*
X022621Y010951D01*
X022625Y010952D02*
X022832Y011160D01*
X022944Y011431D01*
X022944Y011724D01*
X022832Y011995D01*
X022625Y012202D01*
X022354Y012315D01*
X022061Y012315D01*
X021790Y012202D01*
X021582Y011995D01*
X021470Y011724D01*
X021470Y011431D01*
X021582Y011160D01*
X021790Y010952D01*
X022061Y010840D01*
X022354Y010840D01*
X022625Y010952D01*
X022742Y011069D02*
X028734Y011069D01*
X028734Y011188D02*
X028419Y011188D01*
X028686Y011306D02*
X028734Y011306D01*
X028019Y011188D02*
X027419Y011188D01*
X027686Y011306D02*
X027752Y011306D01*
X027845Y010714D02*
X027593Y010714D01*
X027019Y011188D02*
X022844Y011188D01*
X022893Y011306D02*
X024641Y011306D01*
X024546Y011346D02*
X024817Y011234D01*
X025110Y011234D01*
X025381Y011346D01*
X025588Y011553D01*
X025700Y011824D01*
X025700Y012118D01*
X025588Y012389D01*
X025381Y012596D01*
X025110Y012708D01*
X024817Y012708D01*
X024546Y012596D01*
X024338Y012389D01*
X024226Y012118D01*
X024226Y011824D01*
X024338Y011553D01*
X024546Y011346D01*
X024467Y011425D02*
X022942Y011425D01*
X022944Y011544D02*
X024348Y011544D01*
X024293Y011662D02*
X022944Y011662D01*
X022921Y011781D02*
X024244Y011781D01*
X024226Y011899D02*
X022872Y011899D01*
X022809Y012018D02*
X024226Y012018D01*
X024234Y012137D02*
X022691Y012137D01*
X022497Y012255D02*
X024283Y012255D01*
X024332Y012374D02*
X021212Y012374D01*
X021212Y012393D02*
X021100Y012664D01*
X020893Y012872D01*
X020622Y012984D01*
X020328Y012984D01*
X020090Y012885D01*
X020189Y013124D01*
X020189Y013417D01*
X020076Y013688D01*
X019869Y013895D01*
X019598Y014007D01*
X019305Y014007D01*
X019034Y013895D01*
X018826Y013688D01*
X018714Y013417D01*
X018714Y013124D01*
X018826Y012853D01*
X019034Y012645D01*
X019305Y012533D01*
X019598Y012533D01*
X019837Y012632D01*
X019738Y012393D01*
X019738Y012100D01*
X019850Y011829D01*
X020057Y011622D01*
X020328Y011509D01*
X020622Y011509D01*
X020893Y011622D01*
X021100Y011829D01*
X021212Y012100D01*
X021212Y012393D01*
X021171Y012492D02*
X024442Y012492D01*
X024581Y012611D02*
X021122Y012611D01*
X021035Y012729D02*
X026959Y012729D01*
X026727Y012611D02*
X025345Y012611D01*
X025485Y012492D02*
X026609Y012492D01*
X026520Y012374D02*
X025594Y012374D01*
X025643Y012255D02*
X026471Y012255D01*
X026422Y012137D02*
X025693Y012137D01*
X025700Y012018D02*
X026419Y012018D01*
X026419Y011899D02*
X025700Y011899D01*
X025682Y011781D02*
X026432Y011781D01*
X026481Y011662D02*
X025633Y011662D01*
X025578Y011544D02*
X026530Y011544D01*
X026634Y011425D02*
X025460Y011425D01*
X025285Y011306D02*
X026752Y011306D01*
X027479Y012729D02*
X027959Y012729D01*
X027727Y012611D02*
X027711Y012611D01*
X028479Y012729D02*
X028734Y012729D01*
X028734Y012611D02*
X028711Y012611D01*
X028734Y012848D02*
X020916Y012848D01*
X020663Y012967D02*
X028734Y012967D01*
X028734Y013085D02*
X020173Y013085D01*
X020189Y013204D02*
X028734Y013204D01*
X028734Y013322D02*
X020189Y013322D01*
X020179Y013441D02*
X028734Y013441D01*
X028734Y013559D02*
X020130Y013559D01*
X020080Y013678D02*
X028734Y013678D01*
X028734Y013797D02*
X019968Y013797D01*
X019821Y013915D02*
X028734Y013915D01*
X028734Y014034D02*
X017433Y014034D01*
X017433Y013915D02*
X017507Y013915D01*
X017405Y014152D02*
X028734Y014152D01*
X028734Y014271D02*
X017356Y014271D01*
X017288Y014390D02*
X028734Y014390D01*
X028734Y014508D02*
X017170Y014508D01*
X016963Y014627D02*
X020902Y014627D01*
X020919Y014620D02*
X020648Y014732D01*
X020441Y014939D01*
X020328Y015210D01*
X020328Y015504D01*
X020441Y015774D01*
X020648Y015982D01*
X020919Y016094D01*
X021212Y016094D01*
X021483Y015982D01*
X021691Y015774D01*
X021803Y015504D01*
X021803Y015210D01*
X021691Y014939D01*
X021483Y014732D01*
X021212Y014620D01*
X020919Y014620D01*
X021229Y014627D02*
X028734Y014627D01*
X028734Y014745D02*
X021496Y014745D01*
X021615Y014864D02*
X028734Y014864D01*
X028734Y014982D02*
X023257Y014982D01*
X023141Y014935D02*
X023412Y015047D01*
X023620Y015254D01*
X023732Y015525D01*
X023732Y015818D01*
X023620Y016089D01*
X023412Y016297D01*
X023141Y016409D01*
X022848Y016409D01*
X022577Y016297D01*
X022370Y016089D01*
X022257Y015818D01*
X022257Y015525D01*
X022370Y015254D01*
X022577Y015047D01*
X022848Y014935D01*
X023141Y014935D01*
X023466Y015101D02*
X028734Y015101D01*
X028734Y015220D02*
X023585Y015220D01*
X023654Y015338D02*
X028734Y015338D01*
X028734Y015457D02*
X023704Y015457D01*
X023732Y015575D02*
X027333Y015575D01*
X027454Y015525D02*
X027183Y015637D01*
X026976Y015845D01*
X026869Y016102D01*
X026837Y016071D01*
X026567Y015958D01*
X026273Y015958D01*
X026002Y016071D01*
X025795Y016278D01*
X025683Y016549D01*
X025683Y016842D01*
X025795Y017113D01*
X026002Y017320D01*
X026037Y017335D01*
X025913Y017459D01*
X025801Y017730D01*
X025801Y018023D01*
X025913Y018294D01*
X026120Y018502D01*
X026391Y018614D01*
X026685Y018614D01*
X026956Y018502D01*
X027163Y018294D01*
X027275Y018023D01*
X027275Y017730D01*
X027163Y017459D01*
X026956Y017252D01*
X026921Y017237D01*
X027045Y017113D01*
X027152Y016856D01*
X027183Y016887D01*
X027454Y017000D01*
X027748Y017000D01*
X028019Y016887D01*
X028226Y016680D01*
X028338Y016409D01*
X028338Y016116D01*
X028226Y015845D01*
X028019Y015637D01*
X027748Y015525D01*
X027454Y015525D01*
X027127Y015694D02*
X023732Y015694D01*
X023732Y015812D02*
X027008Y015812D01*
X026940Y015931D02*
X023685Y015931D01*
X023636Y016050D02*
X026053Y016050D01*
X025905Y016168D02*
X023541Y016168D01*
X023422Y016287D02*
X025791Y016287D01*
X025742Y016405D02*
X023150Y016405D01*
X022839Y016405D02*
X019174Y016405D01*
X019146Y016473D02*
X018922Y016697D01*
X018629Y016819D01*
X018313Y016819D01*
X018020Y016697D01*
X017796Y016473D01*
X017675Y016181D01*
X017675Y015864D01*
X017796Y015571D01*
X018020Y015347D01*
X018313Y015226D01*
X018629Y015226D01*
X018922Y015347D01*
X019146Y015571D01*
X019267Y015864D01*
X019267Y016181D01*
X019146Y016473D01*
X019095Y016524D02*
X025693Y016524D01*
X025683Y016643D02*
X018977Y016643D01*
X018768Y016761D02*
X025683Y016761D01*
X025698Y016880D02*
X015929Y016880D01*
X015811Y016761D02*
X018174Y016761D01*
X017965Y016643D02*
X015977Y016643D01*
X016095Y016524D02*
X017847Y016524D01*
X017768Y016405D02*
X016174Y016405D01*
X016223Y016287D02*
X017719Y016287D01*
X017675Y016168D02*
X016267Y016168D01*
X016454Y016050D02*
X017675Y016050D01*
X017675Y015931D02*
X016613Y015931D01*
X016730Y015812D02*
X017696Y015812D01*
X017745Y015694D02*
X016780Y015694D01*
X016829Y015575D02*
X017794Y015575D01*
X017910Y015457D02*
X016842Y015457D01*
X016842Y015338D02*
X018042Y015338D01*
X018900Y015338D02*
X020328Y015338D01*
X020328Y015220D02*
X016830Y015220D01*
X016781Y015101D02*
X020374Y015101D01*
X020423Y014982D02*
X016731Y014982D01*
X016640Y014864D02*
X020516Y014864D01*
X020635Y014745D02*
X016685Y014745D01*
X018246Y013915D02*
X019082Y013915D01*
X018935Y013797D02*
X018393Y013797D01*
X018506Y013678D02*
X018822Y013678D01*
X018773Y013559D02*
X018555Y013559D01*
X018604Y013441D02*
X018724Y013441D01*
X018714Y013322D02*
X018614Y013322D01*
X018614Y013204D02*
X018714Y013204D01*
X018730Y013085D02*
X018598Y013085D01*
X018549Y012967D02*
X018779Y012967D01*
X018831Y012848D02*
X018497Y012848D01*
X018378Y012729D02*
X018950Y012729D01*
X019117Y012611D02*
X018211Y012611D01*
X017542Y012611D02*
X015858Y012611D01*
X015858Y012729D02*
X017375Y012729D01*
X017256Y012848D02*
X016499Y012848D01*
X016741Y012967D02*
X017204Y012967D01*
X017155Y013085D02*
X016859Y013085D01*
X016978Y013204D02*
X017139Y013204D01*
X017139Y013322D02*
X017121Y013322D01*
X015857Y012492D02*
X019779Y012492D01*
X019786Y012611D02*
X019828Y012611D01*
X020124Y012967D02*
X020287Y012967D01*
X019738Y012374D02*
X015808Y012374D01*
X015768Y012255D02*
X019738Y012255D01*
X019738Y012137D02*
X015817Y012137D01*
X015858Y012018D02*
X019772Y012018D01*
X019821Y011899D02*
X015858Y011899D01*
X015858Y011781D02*
X019898Y011781D01*
X020017Y011662D02*
X017953Y011662D01*
X017979Y011651D02*
X017708Y011763D01*
X017415Y011763D01*
X017144Y011651D01*
X016937Y011444D01*
X016824Y011173D01*
X016824Y010880D01*
X016937Y010609D01*
X017144Y010401D01*
X017415Y010289D01*
X017708Y010289D01*
X017979Y010401D01*
X018187Y010609D01*
X018299Y010880D01*
X018299Y011173D01*
X018187Y011444D01*
X017979Y011651D01*
X018087Y011544D02*
X020246Y011544D01*
X019938Y011306D02*
X021522Y011306D01*
X021571Y011188D02*
X020057Y011188D01*
X020140Y011069D02*
X021673Y011069D01*
X021794Y010951D02*
X020189Y010951D01*
X019694Y011425D02*
X021472Y011425D01*
X021470Y011544D02*
X020704Y011544D01*
X020933Y011662D02*
X021470Y011662D01*
X021494Y011781D02*
X021052Y011781D01*
X021129Y011899D02*
X021543Y011899D01*
X021605Y012018D02*
X021178Y012018D01*
X021212Y012137D02*
X021724Y012137D01*
X021917Y012255D02*
X021212Y012255D01*
X019288Y011425D02*
X018194Y011425D01*
X018243Y011306D02*
X019043Y011306D01*
X018925Y011188D02*
X018293Y011188D01*
X018299Y011069D02*
X018841Y011069D01*
X018792Y010951D02*
X018299Y010951D01*
X018279Y010832D02*
X018754Y010832D01*
X018754Y010714D02*
X018230Y010714D01*
X018173Y010595D02*
X018754Y010595D01*
X018790Y010476D02*
X018054Y010476D01*
X017874Y010358D02*
X018839Y010358D01*
X018920Y010239D02*
X015858Y010239D01*
X015858Y010358D02*
X017249Y010358D01*
X017069Y010476D02*
X015853Y010476D01*
X015804Y010595D02*
X016950Y010595D01*
X016893Y010714D02*
X015755Y010714D01*
X015649Y010832D02*
X016844Y010832D01*
X016824Y010951D02*
X015518Y010951D01*
X015409Y011069D02*
X016824Y011069D01*
X016831Y011188D02*
X015360Y011188D01*
X015577Y011306D02*
X016880Y011306D01*
X016929Y011425D02*
X015696Y011425D01*
X015774Y011544D02*
X017036Y011544D01*
X017171Y011662D02*
X015823Y011662D01*
X015837Y010121D02*
X019039Y010121D01*
X019276Y010002D02*
X015788Y010002D01*
X014204Y007631D02*
X010707Y007631D01*
X010441Y006800D02*
X013394Y006800D01*
X013120Y006682D02*
X010185Y006682D01*
X009572Y005496D02*
X009295Y005496D01*
X009453Y005378D02*
X009087Y005378D01*
X009360Y005259D02*
X001676Y005259D01*
X001725Y005378D02*
X008556Y005378D01*
X008348Y005496D02*
X001775Y005496D01*
X001807Y005615D02*
X008230Y005615D01*
X008161Y005733D02*
X001807Y005733D01*
X001807Y005852D02*
X008112Y005852D01*
X008084Y005970D02*
X001786Y005970D01*
X001737Y006089D02*
X008084Y006089D01*
X008084Y006208D02*
X001687Y006208D01*
X001704Y006326D02*
X008131Y006326D01*
X008181Y006445D02*
X001753Y006445D01*
X001802Y006563D02*
X007757Y006563D01*
X007556Y006682D02*
X001807Y006682D01*
X001807Y006800D02*
X007438Y006800D01*
X007372Y006919D02*
X001807Y006919D01*
X001758Y007038D02*
X007323Y007038D01*
X007297Y007156D02*
X001709Y007156D01*
X001683Y007275D02*
X007297Y007275D01*
X007297Y007393D02*
X001732Y007393D01*
X001781Y007512D02*
X007346Y007512D01*
X007395Y007631D02*
X001807Y007631D01*
X001807Y007749D02*
X007494Y007749D01*
X007613Y007868D02*
X001807Y007868D01*
X001779Y007986D02*
X006546Y007986D01*
X006409Y008105D02*
X001730Y008105D01*
X001681Y008223D02*
X006300Y008223D01*
X006251Y008342D02*
X001711Y008342D01*
X001760Y008461D02*
X006202Y008461D01*
X006194Y008579D02*
X001807Y008579D01*
X001807Y008698D02*
X006194Y008698D01*
X006213Y008816D02*
X001807Y008816D01*
X001800Y008935D02*
X006262Y008935D01*
X006318Y009053D02*
X001751Y009053D01*
X001702Y009172D02*
X006437Y009172D01*
X006613Y009291D02*
X002336Y009291D01*
X001921Y009291D02*
X001620Y009291D01*
X001679Y009409D02*
X001501Y009409D01*
X001561Y009528D02*
X001309Y009528D01*
X001478Y009646D02*
X000720Y009646D01*
X000720Y009765D02*
X001429Y009765D01*
X001391Y009884D02*
X000720Y009884D01*
X000720Y010002D02*
X001391Y010002D01*
X001391Y010121D02*
X000720Y010121D01*
X000720Y010239D02*
X001429Y010239D01*
X001478Y010358D02*
X000720Y010358D01*
X001383Y010476D02*
X001560Y010476D01*
X001532Y010595D02*
X001678Y010595D01*
X001650Y010714D02*
X001919Y010714D01*
X001715Y010832D02*
X002309Y010832D01*
X002428Y010951D02*
X001764Y010951D01*
X001691Y013678D02*
X002571Y013678D01*
X002410Y013797D02*
X001700Y013797D01*
X001749Y013915D02*
X002291Y013915D01*
X002242Y014034D02*
X001798Y014034D01*
X001807Y014152D02*
X002193Y014152D01*
X002179Y014271D02*
X001807Y014271D01*
X001807Y014390D02*
X002179Y014390D01*
X002190Y014508D02*
X001762Y014508D01*
X001713Y014627D02*
X002240Y014627D01*
X002289Y014745D02*
X001679Y014745D01*
X001728Y014864D02*
X002404Y014864D01*
X002557Y014982D02*
X001777Y014982D01*
X003351Y015694D02*
X007310Y015694D01*
X007360Y015812D02*
X003469Y015812D01*
X003560Y015931D02*
X007409Y015931D01*
X007527Y016050D02*
X003609Y016050D01*
X003653Y016168D02*
X006596Y016168D01*
X006337Y016287D02*
X003653Y016287D01*
X003653Y016405D02*
X006219Y016405D01*
X006129Y016524D02*
X003622Y016524D01*
X003573Y016643D02*
X006080Y016643D01*
X006037Y016761D02*
X003499Y016761D01*
X004099Y017591D02*
X001727Y017591D01*
X001678Y017710D02*
X003981Y017710D01*
X003889Y017828D02*
X003765Y017828D01*
X003676Y017828D02*
X003596Y017828D01*
X003508Y017828D02*
X001713Y017828D01*
X001762Y017947D02*
X003309Y017947D01*
X003224Y018065D02*
X001807Y018065D01*
X001807Y018184D02*
X003184Y018184D01*
X003177Y018310D02*
X003596Y018310D01*
X003596Y018730D01*
X003529Y018719D01*
X003460Y018697D01*
X003395Y018664D01*
X003337Y018621D01*
X003286Y018570D01*
X003243Y018511D01*
X003210Y018447D01*
X003188Y018378D01*
X003177Y018310D01*
X003202Y018421D02*
X001798Y018421D01*
X001807Y018303D02*
X003596Y018303D01*
X003596Y018421D02*
X003676Y018421D01*
X003676Y018540D02*
X003596Y018540D01*
X003596Y018658D02*
X003676Y018658D01*
X003927Y018777D02*
X001614Y018777D01*
X001700Y018658D02*
X003388Y018658D01*
X003264Y018540D02*
X001749Y018540D01*
X001777Y017473D02*
X004315Y017473D01*
X004958Y017473D02*
X006312Y017473D01*
X006193Y017354D02*
X001807Y017354D01*
X001807Y017235D02*
X006118Y017235D01*
X006535Y017591D02*
X005174Y017591D01*
X005292Y017710D02*
X007330Y017710D01*
X007379Y017828D02*
X005384Y017828D01*
X005433Y017947D02*
X007456Y017947D01*
X007574Y018065D02*
X005482Y018065D01*
X005496Y018184D02*
X007800Y018184D01*
X008268Y018184D02*
X014083Y018184D01*
X013913Y018065D02*
X008494Y018065D01*
X008613Y017947D02*
X011263Y017947D01*
X011038Y017828D02*
X008689Y017828D01*
X008738Y017710D02*
X010919Y017710D01*
X010843Y017591D02*
X010197Y017591D01*
X010441Y017473D02*
X010794Y017473D01*
X010761Y017354D02*
X010559Y017354D01*
X010678Y017235D02*
X010761Y017235D01*
X011735Y017947D02*
X013794Y017947D01*
X013741Y017828D02*
X011960Y017828D01*
X012078Y017710D02*
X013692Y017710D01*
X013675Y017591D02*
X012154Y017591D01*
X012203Y017473D02*
X013675Y017473D01*
X013684Y017354D02*
X012236Y017354D01*
X012236Y017235D02*
X013733Y017235D01*
X013782Y017117D02*
X012236Y017117D01*
X012194Y016998D02*
X013893Y016998D01*
X013909Y016880D02*
X012239Y016880D01*
X012357Y016761D02*
X013859Y016761D01*
X013810Y016643D02*
X012431Y016643D01*
X012480Y016524D02*
X013810Y016524D01*
X013810Y016405D02*
X012511Y016405D01*
X012511Y016287D02*
X013810Y016287D01*
X013810Y016168D02*
X012511Y016168D01*
X012468Y016050D02*
X013810Y016050D01*
X013810Y015931D02*
X012419Y015931D01*
X012327Y015812D02*
X013810Y015812D01*
X013810Y015694D02*
X012209Y015694D01*
X010183Y015694D02*
X008758Y015694D01*
X008709Y015812D02*
X010064Y015812D01*
X009983Y015894D02*
X009983Y015894D01*
X009946Y015931D02*
X008659Y015931D01*
X008541Y016050D02*
X009827Y016050D01*
X009708Y016168D02*
X008382Y016168D01*
X007686Y016168D02*
X006952Y016168D01*
X005496Y018303D02*
X015128Y018303D01*
X015197Y018184D02*
X014741Y018184D01*
X014911Y018065D02*
X015079Y018065D01*
X014946Y018421D02*
X005496Y018421D01*
X005456Y018540D02*
X014827Y018540D01*
X014760Y018658D02*
X005407Y018658D01*
X005346Y018777D02*
X014711Y018777D01*
X015996Y018421D02*
X017946Y018421D01*
X017969Y018303D02*
X016367Y018303D01*
X016486Y018184D02*
X017850Y018184D01*
X017773Y018065D02*
X016586Y018065D01*
X016635Y017947D02*
X017724Y017947D01*
X017691Y017828D02*
X016684Y017828D01*
X016685Y017710D02*
X017691Y017710D01*
X017691Y017591D02*
X016685Y017591D01*
X016660Y017473D02*
X017732Y017473D01*
X017781Y017354D02*
X016610Y017354D01*
X016546Y017235D02*
X017869Y017235D01*
X017987Y017117D02*
X016427Y017117D01*
X016229Y016998D02*
X018242Y016998D01*
X018614Y016998D02*
X019749Y016998D01*
X019570Y017117D02*
X018868Y017117D01*
X018987Y017235D02*
X019451Y017235D01*
X019374Y017354D02*
X019074Y017354D01*
X019124Y017473D02*
X019325Y017473D01*
X019276Y017591D02*
X019165Y017591D01*
X019165Y017710D02*
X019272Y017710D01*
X019272Y017828D02*
X019165Y017828D01*
X019131Y017947D02*
X019275Y017947D01*
X019324Y018065D02*
X019082Y018065D01*
X019005Y018184D02*
X019373Y018184D01*
X019395Y018303D02*
X018887Y018303D01*
X018996Y018421D02*
X019346Y018421D01*
X019297Y018540D02*
X019115Y018540D01*
X019182Y018658D02*
X019272Y018658D01*
X019272Y018777D02*
X019231Y018777D01*
X017827Y018540D02*
X016115Y018540D01*
X016182Y018658D02*
X017760Y018658D01*
X017711Y018777D02*
X016231Y018777D01*
X019223Y016287D02*
X022567Y016287D01*
X022448Y016168D02*
X019267Y016168D01*
X019267Y016050D02*
X020812Y016050D01*
X020597Y015931D02*
X019267Y015931D01*
X019246Y015812D02*
X020479Y015812D01*
X020407Y015694D02*
X019197Y015694D01*
X019148Y015575D02*
X020358Y015575D01*
X020328Y015457D02*
X019032Y015457D01*
X020516Y016998D02*
X020749Y016998D01*
X021516Y016998D02*
X025747Y016998D01*
X025799Y017117D02*
X024396Y017117D01*
X024436Y017133D02*
X024643Y017341D01*
X024756Y017612D01*
X024756Y017905D01*
X024643Y018176D01*
X024436Y018383D01*
X024165Y018496D01*
X023872Y018496D01*
X023601Y018383D01*
X023393Y018176D01*
X023281Y017905D01*
X023281Y017612D01*
X023393Y017341D01*
X023601Y017133D01*
X023872Y017021D01*
X024165Y017021D01*
X024436Y017133D01*
X024538Y017235D02*
X025917Y017235D01*
X026018Y017354D02*
X024649Y017354D01*
X024698Y017473D02*
X025907Y017473D01*
X025858Y017591D02*
X024747Y017591D01*
X024756Y017710D02*
X025809Y017710D01*
X025801Y017828D02*
X024756Y017828D01*
X024738Y017947D02*
X025801Y017947D01*
X025818Y018065D02*
X024689Y018065D01*
X024635Y018184D02*
X025867Y018184D01*
X025921Y018303D02*
X024517Y018303D01*
X024345Y018421D02*
X026040Y018421D01*
X026213Y018540D02*
X021968Y018540D01*
X021993Y018658D02*
X028734Y018658D01*
X028734Y018540D02*
X026863Y018540D01*
X027036Y018421D02*
X028734Y018421D01*
X028734Y018303D02*
X027155Y018303D01*
X027209Y018184D02*
X028734Y018184D01*
X028734Y018065D02*
X027258Y018065D01*
X027275Y017947D02*
X028734Y017947D01*
X028734Y017828D02*
X027275Y017828D01*
X027267Y017710D02*
X028734Y017710D01*
X028734Y017591D02*
X027218Y017591D01*
X027169Y017473D02*
X028734Y017473D01*
X028734Y017354D02*
X027058Y017354D01*
X026923Y017235D02*
X028734Y017235D01*
X028734Y017117D02*
X027041Y017117D01*
X027092Y016998D02*
X027451Y016998D01*
X027176Y016880D02*
X027142Y016880D01*
X027751Y016998D02*
X028734Y016998D01*
X028734Y016880D02*
X028026Y016880D01*
X028145Y016761D02*
X028734Y016761D01*
X028734Y016643D02*
X028241Y016643D01*
X028291Y016524D02*
X028734Y016524D01*
X028734Y016405D02*
X028338Y016405D01*
X028338Y016287D02*
X028734Y016287D01*
X028734Y016168D02*
X028338Y016168D01*
X028311Y016050D02*
X028734Y016050D01*
X028734Y015931D02*
X028262Y015931D01*
X028194Y015812D02*
X028734Y015812D01*
X028734Y015694D02*
X028075Y015694D01*
X027869Y015575D02*
X028734Y015575D01*
X026891Y016050D02*
X026787Y016050D01*
X023641Y017117D02*
X021695Y017117D01*
X021814Y017235D02*
X023499Y017235D01*
X023388Y017354D02*
X021891Y017354D01*
X021940Y017473D02*
X023339Y017473D01*
X023290Y017591D02*
X021989Y017591D01*
X021993Y017710D02*
X023281Y017710D01*
X023281Y017828D02*
X021993Y017828D01*
X021990Y017947D02*
X023298Y017947D01*
X023348Y018065D02*
X021941Y018065D01*
X021892Y018184D02*
X023401Y018184D01*
X023520Y018303D02*
X021870Y018303D01*
X021919Y018421D02*
X023692Y018421D01*
X021993Y018777D02*
X028734Y018777D01*
X022733Y014982D02*
X021708Y014982D01*
X021757Y015101D02*
X022523Y015101D01*
X022404Y015220D02*
X021803Y015220D01*
X021803Y015338D02*
X022335Y015338D01*
X022286Y015457D02*
X021803Y015457D01*
X021773Y015575D02*
X022257Y015575D01*
X022257Y015694D02*
X021724Y015694D01*
X021653Y015812D02*
X022257Y015812D01*
X022304Y015931D02*
X021534Y015931D01*
X021320Y016050D02*
X022353Y016050D01*
X028486Y008342D02*
X028734Y008342D01*
X028734Y008223D02*
X028671Y008223D01*
X028718Y003955D02*
X028734Y003955D01*
X028734Y003836D02*
X028599Y003836D01*
X028734Y003717D02*
X028313Y003717D01*
X028734Y003599D02*
X001492Y003599D01*
X001373Y003480D02*
X028734Y003480D01*
X028734Y003362D02*
X001098Y003362D01*
X000796Y003362D02*
X000720Y003362D01*
X000720Y003243D02*
X028734Y003243D01*
X028734Y003125D02*
X000720Y003125D01*
X000720Y003006D02*
X028734Y003006D01*
X028734Y002887D02*
X000720Y002887D01*
X000720Y002769D02*
X004897Y002769D01*
X004861Y002754D02*
X004653Y002546D01*
X004541Y002275D01*
X004541Y001982D01*
X004653Y001711D01*
X004861Y001504D01*
X005132Y001391D01*
X005425Y001391D01*
X005696Y001504D01*
X005903Y001711D01*
X006015Y001982D01*
X006015Y002275D01*
X005903Y002546D01*
X005696Y002754D01*
X005425Y002866D01*
X005132Y002866D01*
X004861Y002754D01*
X004757Y002650D02*
X000720Y002650D01*
X000720Y002532D02*
X004647Y002532D01*
X004598Y002413D02*
X000720Y002413D01*
X000720Y002294D02*
X004549Y002294D01*
X004541Y002176D02*
X000720Y002176D01*
X000720Y002057D02*
X004541Y002057D01*
X004559Y001939D02*
X000720Y001939D01*
X000720Y001820D02*
X004608Y001820D01*
X004663Y001702D02*
X000720Y001702D01*
X000720Y001583D02*
X004781Y001583D01*
X004955Y001464D02*
X000720Y001464D01*
X000720Y001346D02*
X008888Y001346D01*
X008838Y001227D02*
X000720Y001227D01*
X000720Y001109D02*
X008789Y001109D01*
X008749Y000990D02*
X000720Y000990D01*
X000720Y000872D02*
X008749Y000872D01*
X008749Y000753D02*
X000720Y000753D01*
X001685Y004192D02*
X009749Y004192D01*
X009534Y004310D02*
X001657Y004310D01*
X001608Y004429D02*
X009416Y004429D01*
X009344Y004547D02*
X001540Y004547D01*
X001421Y004666D02*
X009295Y004666D01*
X009265Y004785D02*
X001214Y004785D01*
X001159Y004903D02*
X009265Y004903D01*
X009265Y005022D02*
X001439Y005022D01*
X001557Y005140D02*
X009311Y005140D01*
X009315Y002650D02*
X005799Y002650D01*
X005909Y002532D02*
X009083Y002532D01*
X008964Y002413D02*
X005958Y002413D01*
X006007Y002294D02*
X008866Y002294D01*
X008817Y002176D02*
X006015Y002176D01*
X006015Y002057D02*
X008767Y002057D01*
X008749Y001939D02*
X005997Y001939D01*
X005948Y001820D02*
X008749Y001820D01*
X008749Y001702D02*
X005894Y001702D01*
X005775Y001583D02*
X008785Y001583D01*
X008834Y001464D02*
X005601Y001464D01*
X005659Y002769D02*
X028734Y002769D01*
X028734Y002650D02*
X025958Y002650D01*
X026190Y002532D02*
X028734Y002532D01*
X028734Y002413D02*
X026308Y002413D01*
X026407Y002294D02*
X028734Y002294D01*
X028734Y002176D02*
X026456Y002176D01*
X026505Y002057D02*
X028734Y002057D01*
X028734Y001939D02*
X026524Y001939D01*
X026524Y001820D02*
X028734Y001820D01*
X028734Y001702D02*
X026524Y001702D01*
X026488Y001583D02*
X028734Y001583D01*
X028734Y001464D02*
X026439Y001464D01*
X026385Y001346D02*
X028734Y001346D01*
X028734Y001227D02*
X026435Y001227D01*
X026484Y001109D02*
X028734Y001109D01*
X028734Y000990D02*
X026524Y000990D01*
X026524Y000872D02*
X028734Y000872D01*
X028734Y000753D02*
X026524Y000753D01*
X025370Y002650D02*
X024958Y002650D01*
X024370Y002650D02*
X023958Y002650D01*
X023370Y002650D02*
X022958Y002650D01*
X022370Y002650D02*
X021958Y002650D01*
X021370Y002650D02*
X020958Y002650D01*
X020370Y002650D02*
X019958Y002650D01*
X019370Y002650D02*
X018958Y002650D01*
X018370Y002650D02*
X017958Y002650D01*
X017370Y002650D02*
X016958Y002650D01*
X016370Y002650D02*
X015863Y002650D01*
X015465Y002650D02*
X014863Y002650D01*
X015149Y002532D02*
X015179Y002532D01*
X014465Y002650D02*
X013863Y002650D01*
X014149Y002532D02*
X014179Y002532D01*
X013465Y002650D02*
X012863Y002650D01*
X013149Y002532D02*
X013179Y002532D01*
X012465Y002650D02*
X011863Y002650D01*
X012149Y002532D02*
X012179Y002532D01*
X011465Y002650D02*
X009903Y002650D01*
X010135Y002532D02*
X011179Y002532D01*
X011059Y002413D02*
X010253Y002413D01*
X010352Y002294D02*
X010940Y002294D01*
X010888Y002176D02*
X010401Y002176D01*
X010450Y002057D02*
X010839Y002057D01*
X010804Y001939D02*
X010469Y001939D01*
X010469Y001820D02*
X010804Y001820D01*
X010804Y001702D02*
X010469Y001702D01*
X010433Y001583D02*
X010824Y001583D01*
X010873Y001464D02*
X010384Y001464D01*
X010330Y001346D02*
X010922Y001346D01*
X010909Y001227D02*
X010380Y001227D01*
X010429Y001109D02*
X010860Y001109D01*
X010811Y000990D02*
X010469Y000990D01*
X010469Y000872D02*
X010804Y000872D01*
X010804Y000753D02*
X010469Y000753D01*
X000736Y004903D02*
X000720Y004903D01*
X006781Y009528D02*
X008214Y009528D01*
X008096Y009646D02*
X006909Y009646D01*
X007015Y009765D02*
X008013Y009765D01*
X007964Y009884D02*
X007064Y009884D01*
X007113Y010002D02*
X007927Y010002D01*
X007927Y010121D02*
X007118Y010121D01*
X007118Y010239D02*
X007927Y010239D01*
X007964Y010358D02*
X007097Y010358D01*
X007049Y010476D02*
X008013Y010476D01*
X008088Y010595D02*
X007098Y010595D01*
X007118Y010714D02*
X008084Y010714D01*
X008084Y010832D02*
X007118Y010832D01*
X007112Y010951D02*
X008106Y010951D01*
X008156Y011069D02*
X007063Y011069D01*
X007014Y011188D02*
X008129Y011188D01*
X003676Y017947D02*
X003596Y017947D01*
X003596Y018065D02*
X003676Y018065D01*
X003676Y018184D02*
X003596Y018184D01*
D17*
X023861Y016932D02*
X023900Y016892D01*
X023940Y015711D01*
X023979Y015554D02*
X024018Y015514D01*
X024018Y014255D01*
X027325Y017719D02*
X027404Y018900D01*
X002010Y002877D02*
X001971Y002877D01*
M02*
