%
M48
M72
T01C0.0236
T02C0.0315
T03C0.0320
T04C0.0400
%
T01
X1971Y2877
X947Y4097
X5278Y2129
X10003Y4884
X8821Y6066
X8034Y7247
X10003Y7404
X11184Y8428
X11971Y9215
X11971Y10396
X11302Y11105
X11971Y11774
X11971Y12640
X12758Y12640
X13743Y12640
X14412Y12640
X15121Y12640
X15121Y11892
X14727Y10790
X15121Y10318
X13743Y10593
X14629Y8920
X14491Y8310
X16538Y7286
X13940Y5278
X13861Y4491
X13546Y6066
X9215Y9176
X8664Y10121
X8821Y10751
X8743Y11617
X8703Y12562
X6892Y13979
X8034Y15514
X6774Y16892
X8034Y17483
X11499Y17247
X11774Y16302
X12247Y14806
X14530Y14491
X15947Y14609
X16105Y15396
X16695Y13940
X17877Y13270
X19451Y13270
X20475Y12247
X22207Y11577
X24963Y11971
X24018Y14255
X23940Y15711
X22995Y15672
X21066Y15357
X18428Y17719
X15947Y17680
X14412Y17522
X6459Y11971
X6381Y10790
X6381Y10160
X6932Y8625
X2916Y10396
X2129Y10003
X2916Y12365
X2916Y14333
X2916Y16302
X17562Y11026
X19491Y10711
X27601Y16262
X26420Y16695
X27325Y17719
X26538Y17877
X24018Y17758
T02
X18471Y19022
X15471Y19022
X15471Y16022
X18471Y16022
T03
X27219Y11971
X28219Y11971
X28219Y10003
X27219Y10003
T04
X28113Y7566
X28113Y6566
X28113Y5566
X28113Y4566
X25664Y1841
X24664Y1841
X23664Y1841
X22664Y1841
X21664Y1841
X20664Y1841
X19664Y1841
X18664Y1841
X17664Y1841
X16664Y1841
X15664Y1802
X14664Y1802
X13664Y1802
X12664Y1802
X11664Y1802
X11664Y802
X12664Y802
X13664Y802
X14664Y802
X15664Y802
X16664Y841
X17664Y841
X18664Y841
X19664Y841
X20664Y841
X21664Y841
X22664Y841
X23664Y841
X24664Y841
X25664Y841
X9609Y841
X9609Y1841
X947Y5747
X947Y6747
X947Y7747
X947Y8747
X947Y11227
X947Y12227
X947Y13227
X947Y14227
X947Y15227
X947Y16227
X947Y17227
X947Y18227
X3636Y18270
X4636Y18270
X20132Y17770
X21132Y17770
X21132Y18770
X20132Y18770
M30
