G75*
%MOIN*%
%OFA0B0*%
%FSLAX24Y24*%
%IPPOS*%
%LPD*%
%AMOC8*
5,1,8,0,0,1.08239X$1,22.5*
%
%ADD10C,0.0000*%
%ADD11C,0.0100*%
%ADD12C,0.0060*%
%ADD13C,0.0050*%
%ADD14C,0.0080*%
%ADD15C,0.0157*%
%ADD16C,0.0030*%
%ADD17C,0.0040*%
D10*
X000160Y000160D02*
X000160Y019451D01*
X029294Y019451D01*
X029294Y000160D01*
X000160Y000160D01*
D11*
X010585Y007853D02*
X010684Y007755D01*
X015999Y007755D01*
X016097Y007853D01*
X016097Y013168D01*
X015999Y013266D01*
X010881Y013266D01*
X010585Y012971D01*
X010585Y007853D01*
X010881Y012873D02*
X010883Y012892D01*
X010888Y012911D01*
X010898Y012927D01*
X010910Y012942D01*
X010925Y012954D01*
X010941Y012964D01*
X010960Y012969D01*
X010979Y012971D01*
X010998Y012969D01*
X011017Y012964D01*
X011033Y012954D01*
X011048Y012942D01*
X011060Y012927D01*
X011070Y012911D01*
X011075Y012892D01*
X011077Y012873D01*
X011075Y012854D01*
X011070Y012835D01*
X011060Y012819D01*
X011048Y012804D01*
X011033Y012792D01*
X011017Y012782D01*
X010998Y012777D01*
X010979Y012775D01*
X010960Y012777D01*
X010941Y012782D01*
X010925Y012792D01*
X010910Y012804D01*
X010898Y012819D01*
X010888Y012835D01*
X010883Y012854D01*
X010881Y012873D01*
D12*
X005136Y018020D02*
X004886Y017770D01*
X004386Y017770D01*
X004136Y018020D01*
X003886Y017770D01*
X003386Y017770D01*
X003136Y018020D01*
X003136Y018520D01*
X003386Y018770D01*
X003886Y018770D01*
X004136Y018520D01*
X004386Y018770D01*
X004886Y018770D01*
X005136Y018520D01*
X005136Y018020D01*
X004136Y018020D02*
X004136Y018520D01*
X001197Y009247D02*
X000697Y009247D01*
X000447Y008997D01*
X000447Y008497D01*
X000697Y008247D01*
X001197Y008247D01*
X001447Y008497D01*
X001447Y008997D01*
X001197Y009247D01*
X001197Y008247D02*
X001447Y007997D01*
X001447Y007497D01*
X001197Y007247D01*
X001447Y006997D01*
X001447Y006497D01*
X001197Y006247D01*
X001447Y005997D01*
X001447Y005497D01*
X001197Y005247D01*
X000697Y005247D01*
X000447Y005497D01*
X000447Y005997D01*
X000697Y006247D01*
X000447Y006497D01*
X000447Y006997D01*
X000697Y007247D01*
X001197Y007247D01*
X000697Y007247D02*
X000447Y007497D01*
X000447Y007997D01*
X000697Y008247D01*
X000697Y006247D02*
X001197Y006247D01*
X002991Y002688D02*
X002991Y002651D01*
X002991Y002688D02*
X003629Y002688D01*
X003629Y002651D01*
X003629Y002334D02*
X003629Y001923D01*
X003629Y001606D02*
X003629Y001569D01*
X002991Y001569D01*
X002991Y001606D01*
X002991Y001923D02*
X002991Y001960D01*
X002991Y002297D02*
X002991Y002334D01*
X009109Y002091D02*
X009109Y001591D01*
X009359Y001341D01*
X009859Y001341D01*
X010109Y001591D01*
X010109Y002091D01*
X009859Y002341D01*
X009359Y002341D01*
X009109Y002091D01*
X009359Y001341D02*
X009109Y001091D01*
X009109Y000591D01*
X009359Y000341D01*
X009859Y000341D01*
X010109Y000591D01*
X010109Y001091D01*
X009859Y001341D01*
X011164Y002052D02*
X011164Y000552D01*
X011414Y000302D01*
X011914Y000302D01*
X012164Y000552D01*
X012164Y002052D01*
X011914Y002302D01*
X011414Y002302D01*
X011164Y002052D01*
X012164Y002052D02*
X012414Y002302D01*
X012914Y002302D01*
X013164Y002052D01*
X013164Y000552D01*
X012914Y000302D01*
X012414Y000302D01*
X012164Y000552D01*
X013164Y000552D02*
X013414Y000302D01*
X013914Y000302D01*
X014164Y000552D01*
X014164Y002052D01*
X013914Y002302D01*
X013414Y002302D01*
X013164Y002052D01*
X014164Y002052D02*
X014414Y002302D01*
X014914Y002302D01*
X015164Y002052D01*
X015164Y000552D01*
X014914Y000302D01*
X014414Y000302D01*
X014164Y000552D01*
X015164Y000552D02*
X015414Y000302D01*
X015914Y000302D01*
X016164Y000552D01*
X016164Y002052D01*
X015914Y002302D01*
X015414Y002302D01*
X015164Y002052D01*
X016164Y002091D02*
X016164Y000591D01*
X016414Y000341D01*
X016914Y000341D01*
X017164Y000591D01*
X017164Y002091D01*
X016914Y002341D01*
X016414Y002341D01*
X016164Y002091D01*
X017164Y002091D02*
X017414Y002341D01*
X017914Y002341D01*
X018164Y002091D01*
X018164Y000591D01*
X017914Y000341D01*
X017414Y000341D01*
X017164Y000591D01*
X018164Y000591D02*
X018414Y000341D01*
X018914Y000341D01*
X019164Y000591D01*
X019164Y002091D01*
X018914Y002341D01*
X018414Y002341D01*
X018164Y002091D01*
X019164Y002091D02*
X019414Y002341D01*
X019914Y002341D01*
X020164Y002091D01*
X020164Y000591D01*
X019914Y000341D01*
X019414Y000341D01*
X019164Y000591D01*
X020164Y000591D02*
X020414Y000341D01*
X020914Y000341D01*
X021164Y000591D01*
X021164Y002091D01*
X020914Y002341D01*
X020414Y002341D01*
X020164Y002091D01*
X021164Y002091D02*
X021164Y000591D01*
X021414Y000341D01*
X021914Y000341D01*
X022164Y000591D01*
X022164Y002091D01*
X021914Y002341D01*
X021414Y002341D01*
X021164Y002091D01*
X022164Y002091D02*
X022414Y002341D01*
X022914Y002341D01*
X023164Y002091D01*
X023164Y000591D01*
X022914Y000341D01*
X022414Y000341D01*
X022164Y000591D01*
X023164Y000591D02*
X023414Y000341D01*
X023914Y000341D01*
X024164Y000591D01*
X024164Y002091D01*
X023914Y002341D01*
X023414Y002341D01*
X023164Y002091D01*
X024164Y002091D02*
X024414Y002341D01*
X024914Y002341D01*
X025164Y002091D01*
X025164Y000591D01*
X024914Y000341D01*
X024414Y000341D01*
X024164Y000591D01*
X025164Y000591D02*
X025414Y000341D01*
X025914Y000341D01*
X026164Y000591D01*
X026164Y002091D01*
X025914Y002341D01*
X025414Y002341D01*
X025164Y002091D01*
X027613Y004316D02*
X027863Y004066D01*
X028363Y004066D01*
X028613Y004316D01*
X028613Y004816D01*
X028363Y005066D01*
X027863Y005066D01*
X027613Y004816D01*
X027613Y004316D01*
X027863Y005066D02*
X027613Y005316D01*
X027613Y005816D01*
X027863Y006066D01*
X027613Y006316D01*
X027613Y006816D01*
X027863Y007066D01*
X027613Y007316D01*
X027613Y007816D01*
X027863Y008066D01*
X028363Y008066D01*
X028613Y007816D01*
X028613Y007316D01*
X028363Y007066D01*
X028613Y006816D01*
X028613Y006316D01*
X028363Y006066D01*
X027863Y006066D01*
X028363Y006066D02*
X028613Y005816D01*
X028613Y005316D01*
X028363Y005066D01*
X028363Y007066D02*
X027863Y007066D01*
X028519Y009103D02*
X027069Y009103D01*
X026769Y009403D01*
X026769Y010603D01*
X027069Y010903D01*
X028519Y010903D01*
X028542Y010901D01*
X028565Y010896D01*
X028587Y010887D01*
X028607Y010874D01*
X028625Y010859D01*
X028640Y010841D01*
X028653Y010821D01*
X028662Y010799D01*
X028667Y010776D01*
X028669Y010753D01*
X028669Y009253D01*
X028667Y009230D01*
X028662Y009207D01*
X028653Y009185D01*
X028640Y009165D01*
X028625Y009147D01*
X028607Y009132D01*
X028587Y009119D01*
X028565Y009110D01*
X028542Y009105D01*
X028519Y009103D01*
X027149Y010543D02*
X026889Y010543D01*
X027019Y010663D02*
X027019Y010413D01*
X027069Y011071D02*
X026769Y011371D01*
X026769Y012571D01*
X027069Y012871D01*
X028519Y012871D01*
X028542Y012869D01*
X028565Y012864D01*
X028587Y012855D01*
X028607Y012842D01*
X028625Y012827D01*
X028640Y012809D01*
X028653Y012789D01*
X028662Y012767D01*
X028667Y012744D01*
X028669Y012721D01*
X028669Y011221D01*
X028667Y011198D01*
X028662Y011175D01*
X028653Y011153D01*
X028640Y011133D01*
X028625Y011115D01*
X028607Y011100D01*
X028587Y011087D01*
X028565Y011078D01*
X028542Y011073D01*
X028519Y011071D01*
X027069Y011071D01*
X027019Y012381D02*
X027019Y012631D01*
X027149Y012511D02*
X026889Y012511D01*
X025282Y012592D02*
X025282Y012629D01*
X025282Y012592D02*
X024644Y012592D01*
X024644Y012629D01*
X024644Y012947D02*
X024644Y012984D01*
X024644Y013321D02*
X024644Y013358D01*
X024644Y013675D02*
X024644Y013712D01*
X025282Y013712D01*
X025282Y013675D01*
X025282Y013358D02*
X025282Y012947D01*
X025282Y016136D02*
X024644Y016136D01*
X024644Y016173D01*
X024644Y016490D02*
X024644Y016527D01*
X024644Y016864D02*
X024644Y016901D01*
X024644Y017218D02*
X024644Y017255D01*
X025282Y017255D01*
X025282Y017218D01*
X025282Y016901D02*
X025282Y016490D01*
X025282Y016173D02*
X025282Y016136D01*
X021632Y017520D02*
X021382Y017270D01*
X020882Y017270D01*
X020632Y017520D01*
X020632Y019020D01*
X020382Y019270D01*
X019882Y019270D01*
X019632Y019020D01*
X019632Y017520D01*
X019882Y017270D01*
X020382Y017270D01*
X020632Y017520D01*
X021632Y017520D02*
X021632Y019020D01*
X021382Y019270D01*
X020882Y019270D01*
X020632Y019020D01*
D13*
X018471Y018522D02*
X018471Y016522D01*
X017971Y016022D02*
X015971Y016022D01*
X015471Y016522D02*
X015471Y018522D01*
X015971Y019022D02*
X017971Y019022D01*
X019891Y016996D02*
X019816Y016921D01*
X019816Y016846D01*
X019891Y016770D01*
X020041Y016770D01*
X020116Y016695D01*
X020116Y016620D01*
X020041Y016545D01*
X019891Y016545D01*
X019816Y016620D01*
X019891Y016996D02*
X020041Y016996D01*
X020116Y016921D01*
X020276Y016921D02*
X020426Y016770D01*
X020426Y016545D01*
X020426Y016770D02*
X020577Y016921D01*
X020577Y016996D01*
X020737Y016996D02*
X021037Y016545D01*
X021037Y016996D01*
X021197Y016921D02*
X021197Y016620D01*
X021272Y016545D01*
X021422Y016545D01*
X021497Y016620D01*
X021497Y016921D02*
X021422Y016996D01*
X021272Y016996D01*
X021197Y016921D01*
X020737Y016996D02*
X020737Y016545D01*
X020276Y016921D02*
X020276Y016996D01*
X026600Y011403D02*
X026600Y011103D01*
X026675Y011028D01*
X026826Y011028D01*
X026901Y011103D01*
X027061Y011028D02*
X027361Y011328D01*
X027361Y011403D01*
X027286Y011478D01*
X027136Y011478D01*
X027061Y011403D01*
X026901Y011403D02*
X026826Y011478D01*
X026675Y011478D01*
X026600Y011403D01*
X027061Y011028D02*
X027361Y011028D01*
X027521Y011103D02*
X027596Y011028D01*
X027746Y011028D01*
X027821Y011103D01*
X027821Y011403D01*
X027746Y011478D01*
X027596Y011478D01*
X027521Y011403D01*
X027521Y011328D01*
X027596Y011253D01*
X027821Y011253D01*
X027680Y009116D02*
X027755Y009041D01*
X027755Y008966D01*
X027680Y008891D01*
X027755Y008815D01*
X027755Y008740D01*
X027680Y008665D01*
X027530Y008665D01*
X027454Y008740D01*
X027294Y008740D02*
X027219Y008665D01*
X027069Y008665D01*
X026994Y008740D01*
X026994Y009041D01*
X027069Y009116D01*
X027219Y009116D01*
X027294Y009041D01*
X027454Y009041D02*
X027530Y009116D01*
X027680Y009116D01*
X027680Y008891D02*
X027605Y008891D01*
X027915Y008740D02*
X027915Y009041D01*
X027990Y009116D01*
X028140Y009116D01*
X028215Y009041D01*
X027915Y008740D01*
X027990Y008665D01*
X028140Y008665D01*
X028215Y008740D01*
X028215Y009041D01*
X028208Y003746D02*
X028133Y003671D01*
X028133Y003371D01*
X028208Y003296D01*
X028358Y003296D01*
X028433Y003371D01*
X028433Y003671D02*
X028358Y003746D01*
X028208Y003746D01*
X027972Y003671D02*
X027972Y003596D01*
X027672Y003296D01*
X027972Y003296D01*
X027515Y003296D02*
X027365Y003296D01*
X027440Y003296D02*
X027440Y003746D01*
X027365Y003746D02*
X027515Y003746D01*
X027672Y003671D02*
X027747Y003746D01*
X027897Y003746D01*
X027972Y003671D01*
X023273Y003216D02*
X022973Y003216D01*
X023123Y003216D02*
X023123Y002766D01*
X022813Y002841D02*
X022813Y003216D01*
X022512Y003216D02*
X022512Y002841D01*
X022587Y002766D01*
X022737Y002766D01*
X022813Y002841D01*
X022352Y002841D02*
X022277Y002766D01*
X022127Y002766D01*
X022052Y002841D01*
X022052Y003141D01*
X022127Y003216D01*
X022277Y003216D01*
X022352Y003141D01*
X022352Y002841D01*
X021892Y002691D02*
X021591Y002691D01*
X021431Y002766D02*
X021281Y002916D01*
X021356Y002916D02*
X021131Y002916D01*
X021131Y002766D02*
X021131Y003216D01*
X021356Y003216D01*
X021431Y003141D01*
X021431Y002991D01*
X021356Y002916D01*
X018273Y003216D02*
X017973Y003216D01*
X018123Y003216D02*
X018123Y002766D01*
X017813Y002841D02*
X017813Y003216D01*
X017512Y003216D02*
X017512Y002841D01*
X017587Y002766D01*
X017737Y002766D01*
X017813Y002841D01*
X017352Y002841D02*
X017277Y002766D01*
X017127Y002766D01*
X017052Y002841D01*
X017052Y003141D01*
X017127Y003216D01*
X017277Y003216D01*
X017352Y003141D01*
X017352Y002841D01*
X016892Y002691D02*
X016591Y002691D01*
X016431Y002841D02*
X016431Y002991D01*
X016281Y002991D01*
X016131Y003141D02*
X016131Y002841D01*
X016206Y002766D01*
X016356Y002766D01*
X016431Y002841D01*
X016431Y003141D02*
X016356Y003216D01*
X016206Y003216D01*
X016131Y003141D01*
X013273Y003177D02*
X012973Y003177D01*
X013123Y003177D02*
X013123Y002726D01*
X012813Y002801D02*
X012813Y003177D01*
X012512Y003177D02*
X012512Y002801D01*
X012587Y002726D01*
X012737Y002726D01*
X012813Y002801D01*
X012352Y002801D02*
X012277Y002726D01*
X012127Y002726D01*
X012052Y002801D01*
X012052Y003102D01*
X012127Y003177D01*
X012277Y003177D01*
X012352Y003102D01*
X012352Y002801D01*
X011892Y002651D02*
X011591Y002651D01*
X011431Y002801D02*
X011356Y002726D01*
X011131Y002726D01*
X011131Y003177D01*
X011356Y003177D01*
X011431Y003102D01*
X011431Y003027D01*
X011356Y002952D01*
X011131Y002952D01*
X011356Y002952D02*
X011431Y002877D01*
X011431Y002801D01*
X010325Y002716D02*
X010099Y002941D01*
X010024Y002866D02*
X010325Y003166D01*
X010024Y003166D02*
X010024Y002716D01*
X009864Y002716D02*
X009564Y002716D01*
X009564Y003166D01*
X009404Y003091D02*
X009329Y003166D01*
X009179Y003166D01*
X009104Y003091D01*
X009104Y002791D01*
X009179Y002716D01*
X009329Y002716D01*
X009404Y002791D01*
X008943Y002941D02*
X008868Y002866D01*
X008643Y002866D01*
X008643Y002716D02*
X008643Y003166D01*
X008868Y003166D01*
X008943Y003091D01*
X008943Y002941D01*
X002171Y005317D02*
X002171Y005467D01*
X002096Y005542D01*
X001796Y005542D01*
X001721Y005467D01*
X001721Y005317D01*
X001796Y005242D01*
X002096Y005242D01*
X002171Y005317D01*
X002096Y005702D02*
X001721Y005702D01*
X001721Y006002D02*
X002096Y006002D01*
X002171Y005927D01*
X002171Y005777D01*
X002096Y005702D01*
X001721Y006162D02*
X001721Y006463D01*
X001721Y006313D02*
X002171Y006313D01*
X002171Y006623D02*
X002171Y006923D01*
X002171Y006773D02*
X001721Y006773D01*
X001871Y006623D01*
X002512Y017075D02*
X002663Y017225D01*
X002663Y017526D01*
X002823Y017451D02*
X002823Y017150D01*
X002898Y017075D01*
X003048Y017075D01*
X003123Y017150D01*
X003283Y017150D02*
X003358Y017075D01*
X003508Y017075D01*
X003583Y017150D01*
X003744Y017075D02*
X004044Y017526D01*
X004204Y017451D02*
X004204Y017150D01*
X004279Y017075D01*
X004429Y017075D01*
X004504Y017150D01*
X004504Y017300D01*
X004354Y017300D01*
X004204Y017451D02*
X004279Y017526D01*
X004429Y017526D01*
X004504Y017451D01*
X004664Y017526D02*
X004965Y017075D01*
X004965Y017526D01*
X005125Y017526D02*
X005350Y017526D01*
X005425Y017451D01*
X005425Y017150D01*
X005350Y017075D01*
X005125Y017075D01*
X005125Y017526D01*
X004664Y017526D02*
X004664Y017075D01*
X003583Y017451D02*
X003508Y017526D01*
X003358Y017526D01*
X003283Y017451D01*
X003283Y017150D01*
X003123Y017451D02*
X003048Y017526D01*
X002898Y017526D01*
X002823Y017451D01*
X002362Y017526D02*
X002362Y017225D01*
X002512Y017075D01*
D14*
X027168Y016853D02*
X027168Y015751D01*
X028270Y015751D01*
X028270Y016853D01*
X027168Y016853D01*
D15*
X027325Y015908D03*
D16*
X028535Y015839D02*
X028535Y016024D01*
X028596Y016086D01*
X028720Y016086D01*
X028781Y016024D01*
X028781Y015839D01*
X028781Y015717D02*
X028535Y015717D01*
X028535Y015839D02*
X028905Y015839D01*
X028781Y015717D02*
X028905Y015594D01*
X028781Y015470D01*
X028535Y015470D01*
X028781Y015962D02*
X028905Y016086D01*
X028905Y016207D02*
X028905Y016454D01*
X028843Y016575D02*
X028905Y016637D01*
X028905Y016760D01*
X028843Y016822D01*
X028720Y016822D01*
X028720Y016699D01*
X028596Y016822D02*
X028535Y016760D01*
X028535Y016637D01*
X028596Y016575D01*
X028843Y016575D01*
X028720Y016330D02*
X028720Y016207D01*
X028535Y016207D02*
X028905Y016207D01*
X028535Y016207D02*
X028535Y016454D01*
X028658Y016944D02*
X028535Y017067D01*
X028905Y017067D01*
X028905Y016944D02*
X028905Y017190D01*
D17*
X028932Y017706D02*
X028625Y017706D01*
X028932Y018013D01*
X028932Y018090D01*
X028855Y018166D01*
X028702Y018166D01*
X028625Y018090D01*
X028471Y018090D02*
X028471Y018013D01*
X028395Y017936D01*
X028471Y017859D01*
X028471Y017783D01*
X028395Y017706D01*
X028241Y017706D01*
X028164Y017783D01*
X028011Y017783D02*
X027934Y017706D01*
X027781Y017706D01*
X027704Y017783D01*
X027704Y018090D01*
X027781Y018166D01*
X027934Y018166D01*
X028011Y018090D01*
X028164Y018090D02*
X028241Y018166D01*
X028395Y018166D01*
X028471Y018090D01*
X028395Y017936D02*
X028318Y017936D01*
X026469Y017235D02*
X026008Y017235D01*
X026239Y017005D01*
X026239Y017312D01*
X026239Y016852D02*
X026239Y016698D01*
X026239Y016852D02*
X026392Y016852D01*
X026469Y016775D01*
X026469Y016621D01*
X026392Y016545D01*
X026085Y016545D01*
X026008Y016621D01*
X026008Y016775D01*
X026085Y016852D01*
X026008Y016391D02*
X026008Y016084D01*
X026469Y016084D01*
X026469Y016391D01*
X026239Y016238D02*
X026239Y016084D01*
X026239Y015931D02*
X026085Y015931D01*
X026008Y015854D01*
X026008Y015624D01*
X026469Y015624D01*
X026315Y015624D02*
X026315Y015854D01*
X026239Y015931D01*
X026315Y015777D02*
X026469Y015931D01*
X026315Y015470D02*
X026008Y015470D01*
X026315Y015470D02*
X026469Y015317D01*
X026315Y015164D01*
X026008Y015164D01*
X025180Y014701D02*
X025180Y014624D01*
X024873Y014317D01*
X024873Y014241D01*
X024719Y014317D02*
X024643Y014241D01*
X024489Y014241D01*
X024412Y014317D01*
X024259Y014317D02*
X024182Y014241D01*
X024029Y014241D01*
X023952Y014317D01*
X023952Y014624D01*
X024029Y014701D01*
X024182Y014701D01*
X024259Y014624D01*
X024412Y014624D02*
X024489Y014701D01*
X024643Y014701D01*
X024719Y014624D01*
X024719Y014548D01*
X024643Y014471D01*
X024719Y014394D01*
X024719Y014317D01*
X024643Y014471D02*
X024566Y014471D01*
X024873Y014701D02*
X025180Y014701D01*
X026085Y013769D02*
X026162Y013769D01*
X026239Y013692D01*
X026315Y013769D01*
X026392Y013769D01*
X026469Y013692D01*
X026469Y013538D01*
X026392Y013462D01*
X026392Y013308D02*
X026239Y013308D01*
X026239Y013155D01*
X026392Y013308D02*
X026469Y013232D01*
X026469Y013078D01*
X026392Y013001D01*
X026085Y013001D01*
X026008Y013078D01*
X026008Y013232D01*
X026085Y013308D01*
X026085Y013462D02*
X026008Y013538D01*
X026008Y013692D01*
X026085Y013769D01*
X026239Y013692D02*
X026239Y013615D01*
X026469Y012848D02*
X026469Y012541D01*
X026008Y012541D01*
X026008Y012848D01*
X026239Y012694D02*
X026239Y012541D01*
X026239Y012388D02*
X026085Y012388D01*
X026008Y012311D01*
X026008Y012081D01*
X026469Y012081D01*
X026315Y012081D02*
X026315Y012311D01*
X026239Y012388D01*
X026315Y012234D02*
X026469Y012388D01*
X026315Y011927D02*
X026008Y011927D01*
X026008Y011620D02*
X026315Y011620D01*
X026469Y011774D01*
X026315Y011927D01*
X023617Y013172D02*
X023310Y013172D01*
X023540Y013403D01*
X023540Y012942D01*
X023156Y013019D02*
X023080Y012942D01*
X022926Y012942D01*
X022849Y013019D01*
X022696Y013019D02*
X022619Y012942D01*
X022466Y012942D01*
X022389Y013019D01*
X022389Y013326D01*
X022466Y013403D01*
X022619Y013403D01*
X022696Y013326D01*
X022849Y013326D02*
X022926Y013403D01*
X023080Y013403D01*
X023156Y013326D01*
X023156Y013249D01*
X023080Y013172D01*
X023156Y013096D01*
X023156Y013019D01*
X023080Y013172D02*
X023003Y013172D01*
X021856Y013782D02*
X021396Y013782D01*
X021396Y014013D01*
X021473Y014089D01*
X021626Y014089D01*
X021703Y014013D01*
X021703Y013782D01*
X021703Y013936D02*
X021856Y014089D01*
X021779Y014243D02*
X021856Y014320D01*
X021856Y014473D01*
X021779Y014550D01*
X021473Y014550D01*
X021396Y014473D01*
X021396Y014320D01*
X021473Y014243D01*
X021549Y014243D01*
X021626Y014320D01*
X021626Y014550D01*
X020281Y014473D02*
X020281Y014320D01*
X020205Y014243D01*
X020128Y014243D01*
X020051Y014320D01*
X020051Y014473D01*
X020128Y014550D01*
X020205Y014550D01*
X020281Y014473D01*
X020051Y014473D02*
X019974Y014550D01*
X019898Y014550D01*
X019821Y014473D01*
X019821Y014320D01*
X019898Y014243D01*
X019974Y014243D01*
X020051Y014320D01*
X020051Y014089D02*
X019898Y014089D01*
X019821Y014013D01*
X019821Y013782D01*
X020281Y013782D01*
X020128Y013782D02*
X020128Y014013D01*
X020051Y014089D01*
X020128Y013936D02*
X020281Y014089D01*
X019985Y015128D02*
X019831Y015128D01*
X019755Y015205D01*
X019755Y015282D01*
X019831Y015358D01*
X019985Y015358D01*
X020062Y015282D01*
X020062Y015205D01*
X019985Y015128D01*
X019985Y015358D02*
X020062Y015435D01*
X020062Y015512D01*
X019985Y015588D01*
X019831Y015588D01*
X019755Y015512D01*
X019755Y015435D01*
X019831Y015358D01*
X019601Y015435D02*
X019601Y015512D01*
X019524Y015588D01*
X019371Y015588D01*
X019294Y015512D01*
X019141Y015512D02*
X019064Y015588D01*
X018911Y015588D01*
X018834Y015512D01*
X018834Y015205D01*
X018911Y015128D01*
X019064Y015128D01*
X019141Y015205D01*
X019294Y015128D02*
X019601Y015435D01*
X019601Y015128D02*
X019294Y015128D01*
X018630Y014243D02*
X018323Y014550D01*
X018246Y014550D01*
X018246Y014243D01*
X018323Y014089D02*
X018246Y014013D01*
X018246Y013782D01*
X018707Y013782D01*
X018553Y013782D02*
X018553Y014013D01*
X018476Y014089D01*
X018323Y014089D01*
X018553Y013936D02*
X018707Y014089D01*
X018707Y014243D02*
X018630Y014243D01*
X015271Y015367D02*
X015271Y015521D01*
X015194Y015598D01*
X015271Y015751D02*
X014964Y016058D01*
X014887Y016058D01*
X014810Y015981D01*
X014810Y015828D01*
X014887Y015751D01*
X014887Y015598D02*
X014810Y015521D01*
X014810Y015367D01*
X014887Y015291D01*
X015194Y015291D01*
X015271Y015367D01*
X015271Y015751D02*
X015271Y016058D01*
X015194Y016211D02*
X015271Y016288D01*
X015271Y016442D01*
X015194Y016518D01*
X015041Y016518D01*
X014964Y016442D01*
X014964Y016365D01*
X015041Y016211D01*
X014810Y016211D01*
X014810Y016518D01*
X014326Y016942D02*
X014326Y017096D01*
X014249Y017172D01*
X014326Y017326D02*
X014019Y017633D01*
X013942Y017633D01*
X013865Y017556D01*
X013865Y017403D01*
X013942Y017326D01*
X013942Y017172D02*
X013865Y017096D01*
X013865Y016942D01*
X013942Y016865D01*
X014249Y016865D01*
X014326Y016942D01*
X014326Y017326D02*
X014326Y017633D01*
X014326Y017786D02*
X014019Y018093D01*
X013942Y018093D01*
X013865Y018016D01*
X013865Y017863D01*
X013942Y017786D01*
X014326Y017786D02*
X014326Y018093D01*
X015689Y017426D02*
X015766Y017503D01*
X015919Y017503D01*
X015996Y017426D01*
X015996Y017349D01*
X015689Y017042D01*
X015996Y017042D01*
X016149Y017042D02*
X016149Y017119D01*
X016456Y017426D01*
X016456Y017503D01*
X016149Y017503D01*
X016610Y017503D02*
X016610Y017042D01*
X016917Y017042D02*
X016917Y017503D01*
X016763Y017349D01*
X016610Y017503D01*
X017070Y017503D02*
X017070Y017042D01*
X017070Y017272D02*
X017377Y017272D01*
X017531Y017349D02*
X017838Y017349D01*
X017531Y017042D01*
X017838Y017042D01*
X017377Y017042D02*
X017377Y017503D01*
X013176Y016662D02*
X013176Y016509D01*
X013099Y016432D01*
X012946Y016432D01*
X012946Y016662D01*
X013022Y016739D01*
X013099Y016739D01*
X013176Y016662D01*
X013068Y016518D02*
X012761Y016518D01*
X013068Y016211D01*
X013145Y016288D01*
X013145Y016442D01*
X013068Y016518D01*
X012946Y016432D02*
X012792Y016586D01*
X012715Y016739D01*
X012761Y016518D02*
X012684Y016442D01*
X012684Y016288D01*
X012761Y016211D01*
X013068Y016211D01*
X013022Y016202D02*
X013022Y015972D01*
X013145Y016058D02*
X013145Y015751D01*
X012838Y016058D01*
X012761Y016058D01*
X012684Y015981D01*
X012684Y015828D01*
X012761Y015751D01*
X012761Y015598D02*
X012684Y015521D01*
X012684Y015367D01*
X012761Y015291D01*
X013068Y015291D01*
X013145Y015367D01*
X013145Y015521D01*
X013068Y015598D01*
X013176Y015972D02*
X012715Y015972D01*
X012715Y016202D01*
X012792Y016279D01*
X012946Y016279D01*
X013022Y016202D01*
X013022Y016125D02*
X013176Y016279D01*
X011964Y016288D02*
X011887Y016211D01*
X011810Y016211D01*
X011733Y016288D01*
X011733Y016442D01*
X011810Y016518D01*
X011887Y016518D01*
X011964Y016442D01*
X011964Y016288D01*
X011964Y016058D02*
X011964Y015751D01*
X011964Y015904D02*
X011503Y015904D01*
X011657Y015751D01*
X011580Y015598D02*
X011503Y015521D01*
X011503Y015367D01*
X011580Y015291D01*
X011887Y015291D01*
X011964Y015367D01*
X011964Y015521D01*
X011887Y015598D01*
X011657Y016211D02*
X011580Y016211D01*
X011503Y016288D01*
X011503Y016442D01*
X011580Y016518D01*
X011657Y016518D01*
X011733Y016442D01*
X011733Y016288D02*
X011657Y016211D01*
X010113Y016295D02*
X009806Y016295D01*
X009806Y016065D01*
X009959Y016141D01*
X010036Y016141D01*
X010113Y016065D01*
X010113Y015911D01*
X010036Y015834D01*
X009883Y015834D01*
X009806Y015911D01*
X009652Y015834D02*
X009346Y015834D01*
X009499Y015834D02*
X009499Y016295D01*
X009346Y016141D01*
X009192Y016218D02*
X009115Y016295D01*
X008962Y016295D01*
X008885Y016218D01*
X008885Y015911D01*
X008962Y015834D01*
X009115Y015834D01*
X009192Y015911D01*
X009115Y015114D02*
X008962Y015114D01*
X008885Y015037D01*
X008885Y014730D01*
X008962Y014653D01*
X009115Y014653D01*
X009192Y014730D01*
X009346Y014653D02*
X009652Y014653D01*
X009499Y014653D02*
X009499Y015114D01*
X009346Y014960D01*
X009192Y015037D02*
X009115Y015114D01*
X009806Y014883D02*
X010113Y014883D01*
X010036Y014653D02*
X010036Y015114D01*
X009806Y014883D01*
X009883Y017015D02*
X010036Y017015D01*
X010113Y017092D01*
X010113Y017169D01*
X010036Y017246D01*
X009806Y017246D01*
X009806Y017092D01*
X009883Y017015D01*
X009652Y017015D02*
X009346Y017015D01*
X009499Y017015D02*
X009499Y017476D01*
X009346Y017322D01*
X009192Y017399D02*
X009115Y017476D01*
X008962Y017476D01*
X008885Y017399D01*
X008885Y017092D01*
X008962Y017015D01*
X009115Y017015D01*
X009192Y017092D01*
X009806Y017246D02*
X009959Y017399D01*
X010113Y017476D01*
X009806Y018197D02*
X009806Y018273D01*
X010113Y018580D01*
X010113Y018657D01*
X009806Y018657D01*
X009499Y018657D02*
X009499Y018197D01*
X009346Y018197D02*
X009652Y018197D01*
X009192Y018273D02*
X009115Y018197D01*
X008962Y018197D01*
X008885Y018273D01*
X008885Y018580D01*
X008962Y018657D01*
X009115Y018657D01*
X009192Y018580D01*
X009346Y018504D02*
X009499Y018657D01*
X011584Y018621D02*
X011738Y018467D01*
X011738Y018314D02*
X011661Y018314D01*
X011584Y018237D01*
X011584Y018084D01*
X011661Y018007D01*
X011661Y017854D02*
X011584Y017777D01*
X011584Y017623D01*
X011661Y017547D01*
X011968Y017547D01*
X012045Y017623D01*
X012045Y017777D01*
X011968Y017854D01*
X012045Y018007D02*
X011738Y018314D01*
X012045Y018314D02*
X012045Y018007D01*
X012045Y018467D02*
X012045Y018774D01*
X012045Y018621D02*
X011584Y018621D01*
X006058Y016048D02*
X006058Y015894D01*
X005981Y015818D01*
X005905Y015818D01*
X005828Y015894D01*
X005828Y016048D01*
X005905Y016125D01*
X005981Y016125D01*
X006058Y016048D01*
X005828Y016048D02*
X005751Y016125D01*
X005674Y016125D01*
X005598Y016048D01*
X005598Y015894D01*
X005674Y015818D01*
X005751Y015818D01*
X005828Y015894D01*
X005981Y015664D02*
X006058Y015587D01*
X006058Y015434D01*
X005981Y015357D01*
X005674Y015357D01*
X005598Y015434D01*
X005598Y015587D01*
X005674Y015664D01*
X004533Y015664D02*
X004380Y015511D01*
X004380Y015587D02*
X004380Y015357D01*
X004533Y015357D02*
X004073Y015357D01*
X004073Y015587D01*
X004150Y015664D01*
X004303Y015664D01*
X004380Y015587D01*
X004533Y015818D02*
X004533Y016125D01*
X004533Y015971D02*
X004073Y015971D01*
X004226Y015818D01*
X004226Y014156D02*
X004150Y014156D01*
X004073Y014079D01*
X004073Y013926D01*
X004150Y013849D01*
X004150Y013696D02*
X004073Y013619D01*
X004073Y013389D01*
X004533Y013389D01*
X004380Y013389D02*
X004380Y013619D01*
X004303Y013696D01*
X004150Y013696D01*
X004380Y013542D02*
X004533Y013696D01*
X004533Y013849D02*
X004226Y014156D01*
X004533Y014156D02*
X004533Y013849D01*
X005598Y013849D02*
X005828Y013849D01*
X005751Y014003D01*
X005751Y014079D01*
X005828Y014156D01*
X005981Y014156D01*
X006058Y014079D01*
X006058Y013926D01*
X005981Y013849D01*
X005981Y013696D02*
X006058Y013619D01*
X006058Y013466D01*
X005981Y013389D01*
X005674Y013389D01*
X005598Y013466D01*
X005598Y013619D01*
X005674Y013696D01*
X005598Y013849D02*
X005598Y014156D01*
X006058Y012188D02*
X006058Y011881D01*
X006058Y012034D02*
X005598Y012034D01*
X005751Y011881D01*
X006058Y011727D02*
X006058Y011420D01*
X006058Y011574D02*
X005598Y011574D01*
X005751Y011420D01*
X005674Y011267D02*
X005598Y011190D01*
X005598Y011037D01*
X005674Y010960D01*
X005981Y010960D01*
X006058Y011037D01*
X006058Y011190D01*
X005981Y011267D01*
X005981Y010219D02*
X005905Y010219D01*
X005828Y010142D01*
X005828Y009912D01*
X005981Y009912D01*
X006058Y009989D01*
X006058Y010142D01*
X005981Y010219D01*
X005674Y010066D02*
X005828Y009912D01*
X005981Y009759D02*
X006058Y009682D01*
X006058Y009529D01*
X005981Y009452D01*
X005674Y009452D01*
X005598Y009529D01*
X005598Y009682D01*
X005674Y009759D01*
X005674Y010066D02*
X005598Y010219D01*
X004533Y010142D02*
X004533Y009989D01*
X004457Y009912D01*
X004533Y009759D02*
X004380Y009605D01*
X004380Y009682D02*
X004380Y009452D01*
X004533Y009452D02*
X004073Y009452D01*
X004073Y009682D01*
X004150Y009759D01*
X004303Y009759D01*
X004380Y009682D01*
X004150Y009912D02*
X004073Y009989D01*
X004073Y010142D01*
X004150Y010219D01*
X004226Y010219D01*
X004303Y010142D01*
X004380Y010219D01*
X004457Y010219D01*
X004533Y010142D01*
X004303Y010142D02*
X004303Y010066D01*
X004380Y011420D02*
X004380Y011650D01*
X004303Y011727D01*
X004150Y011727D01*
X004073Y011650D01*
X004073Y011420D01*
X004533Y011420D01*
X004380Y011574D02*
X004533Y011727D01*
X004303Y011881D02*
X004303Y012188D01*
X004073Y012111D02*
X004303Y011881D01*
X004533Y012111D02*
X004073Y012111D01*
X009222Y006887D02*
X009299Y006963D01*
X009376Y006963D01*
X009452Y006887D01*
X009529Y006963D01*
X009606Y006963D01*
X009683Y006887D01*
X009683Y006733D01*
X009606Y006656D01*
X009683Y006503D02*
X009683Y006196D01*
X009683Y006349D02*
X009222Y006349D01*
X009376Y006196D01*
X009299Y006042D02*
X009222Y005966D01*
X009222Y005812D01*
X009299Y005736D01*
X009606Y005736D01*
X009683Y005812D01*
X009683Y005966D01*
X009606Y006042D01*
X009299Y006656D02*
X009222Y006733D01*
X009222Y006887D01*
X009452Y006887D02*
X009452Y006810D01*
X004776Y002942D02*
X004776Y002635D01*
X004469Y002942D01*
X004392Y002942D01*
X004315Y002865D01*
X004315Y002712D01*
X004392Y002635D01*
X004392Y002482D02*
X004315Y002405D01*
X004315Y002251D01*
X004392Y002175D01*
X004699Y002175D01*
X004776Y002251D01*
X004776Y002405D01*
X004699Y002482D01*
X004546Y002482D01*
X004546Y002328D01*
X004776Y002021D02*
X004776Y001714D01*
X004315Y001714D01*
X004315Y002021D01*
X004546Y001868D02*
X004546Y001714D01*
X004546Y001561D02*
X004392Y001561D01*
X004315Y001484D01*
X004315Y001254D01*
X004776Y001254D01*
X004622Y001254D02*
X004622Y001484D01*
X004546Y001561D01*
X004622Y001407D02*
X004776Y001561D01*
X004622Y001100D02*
X004315Y001100D01*
X004622Y001100D02*
X004776Y000947D01*
X004622Y000793D01*
X004315Y000793D01*
X005842Y001325D02*
X005842Y001632D01*
X005919Y001709D01*
X006072Y001709D01*
X006149Y001632D01*
X006302Y001632D02*
X006379Y001709D01*
X006532Y001709D01*
X006609Y001632D01*
X006609Y001555D01*
X006532Y001479D01*
X006609Y001402D01*
X006609Y001325D01*
X006532Y001249D01*
X006379Y001249D01*
X006302Y001325D01*
X006149Y001325D02*
X006072Y001249D01*
X005919Y001249D01*
X005842Y001325D01*
X006456Y001479D02*
X006532Y001479D01*
X006763Y001479D02*
X006993Y001479D01*
X007069Y001402D01*
X007069Y001325D01*
X006993Y001249D01*
X006839Y001249D01*
X006763Y001325D01*
X006763Y001479D01*
X006916Y001632D01*
X007069Y001709D01*
X001570Y001718D02*
X001570Y001641D01*
X001493Y001564D01*
X001339Y001564D01*
X001263Y001641D01*
X001109Y001641D02*
X001032Y001564D01*
X000879Y001564D01*
X000802Y001641D01*
X000649Y001641D02*
X000572Y001564D01*
X000419Y001564D01*
X000342Y001641D01*
X000342Y001948D01*
X000419Y002025D01*
X000572Y002025D01*
X000649Y001948D01*
X000802Y001948D02*
X000879Y002025D01*
X001032Y002025D01*
X001109Y001948D01*
X001109Y001871D01*
X001032Y001794D01*
X001109Y001718D01*
X001109Y001641D01*
X001032Y001794D02*
X000956Y001794D01*
X001263Y001948D02*
X001339Y002025D01*
X001493Y002025D01*
X001570Y001948D01*
X001570Y001871D01*
X001493Y001794D01*
X001570Y001718D01*
X001493Y001794D02*
X001416Y001794D01*
X016702Y006600D02*
X016779Y006523D01*
X017086Y006523D01*
X017163Y006600D01*
X017163Y006753D01*
X017086Y006830D01*
X017163Y006983D02*
X016856Y007290D01*
X016779Y007290D01*
X016702Y007214D01*
X016702Y007060D01*
X016779Y006983D01*
X016779Y006830D02*
X016702Y006753D01*
X016702Y006600D01*
X017163Y006983D02*
X017163Y007290D01*
X017163Y007444D02*
X017086Y007444D01*
X016779Y007751D01*
X016702Y007751D01*
X016702Y007444D01*
X018123Y010797D02*
X018277Y010797D01*
X018353Y010874D01*
X018507Y010797D02*
X018814Y011104D01*
X018814Y011181D01*
X018737Y011258D01*
X018584Y011258D01*
X018507Y011181D01*
X018353Y011181D02*
X018277Y011258D01*
X018123Y011258D01*
X018046Y011181D01*
X018046Y010874D01*
X018123Y010797D01*
X018507Y010797D02*
X018814Y010797D01*
X018967Y010874D02*
X019044Y010797D01*
X019197Y010797D01*
X019274Y010874D01*
X019274Y010951D01*
X019197Y011028D01*
X018967Y011028D01*
X018967Y010874D01*
X018967Y011028D02*
X019121Y011181D01*
X019274Y011258D01*
X027389Y014436D02*
X027466Y014360D01*
X027619Y014360D01*
X027696Y014436D01*
X027849Y014436D02*
X027926Y014360D01*
X028080Y014360D01*
X028156Y014436D01*
X028156Y014513D01*
X028080Y014590D01*
X028003Y014590D01*
X028080Y014590D02*
X028156Y014666D01*
X028156Y014743D01*
X028080Y014820D01*
X027926Y014820D01*
X027849Y014743D01*
X027696Y014743D02*
X027619Y014820D01*
X027466Y014820D01*
X027389Y014743D01*
X027389Y014436D01*
X028310Y014360D02*
X028617Y014360D01*
X028463Y014360D02*
X028463Y014820D01*
X028310Y014666D01*
X025180Y017861D02*
X025103Y017784D01*
X024950Y017784D01*
X024873Y017861D01*
X024873Y017937D01*
X024950Y018014D01*
X025103Y018014D01*
X025180Y017937D01*
X025180Y017861D01*
X025103Y018014D02*
X025180Y018091D01*
X025180Y018168D01*
X025103Y018244D01*
X024950Y018244D01*
X024873Y018168D01*
X024873Y018091D01*
X024950Y018014D01*
X024719Y017937D02*
X024719Y017861D01*
X024643Y017784D01*
X024489Y017784D01*
X024412Y017861D01*
X024259Y017861D02*
X024182Y017784D01*
X024029Y017784D01*
X023952Y017861D01*
X023952Y018168D01*
X024029Y018244D01*
X024182Y018244D01*
X024259Y018168D01*
X024412Y018168D02*
X024489Y018244D01*
X024643Y018244D01*
X024719Y018168D01*
X024719Y018091D01*
X024643Y018014D01*
X024719Y017937D01*
X024643Y018014D02*
X024566Y018014D01*
X022575Y018084D02*
X022498Y018007D01*
X022575Y018084D02*
X022575Y018237D01*
X022498Y018314D01*
X022421Y018314D01*
X022344Y018237D01*
X022344Y018160D01*
X022344Y018237D02*
X022268Y018314D01*
X022191Y018314D01*
X022114Y018237D01*
X022114Y018084D01*
X022191Y018007D01*
X022191Y017854D02*
X022114Y017777D01*
X022114Y017623D01*
X022191Y017547D01*
X022498Y017547D01*
X022575Y017623D01*
X022575Y017777D01*
X022498Y017854D01*
X022498Y018467D02*
X022575Y018544D01*
X022575Y018698D01*
X022498Y018774D01*
X022344Y018774D01*
X022268Y018698D01*
X022268Y018621D01*
X022344Y018467D01*
X022114Y018467D01*
X022114Y018774D01*
M02*
