G75*
%MOIN*%
%OFA0B0*%
%FSLAX24Y24*%
%IPPOS*%
%LPD*%
%AMOC8*
5,1,8,0,0,1.08239X$1,22.5*
%
%ADD10C,0.0000*%
%ADD11R,0.0591X0.0108*%
%ADD12R,0.0108X0.0591*%
%ADD13R,0.0177X0.0394*%
%ADD14R,0.0512X0.0591*%
%ADD15R,0.0472X0.0217*%
%ADD16R,0.0591X0.0512*%
%ADD17R,0.0394X0.0433*%
%ADD18R,0.0433X0.0394*%
D10*
X000160Y000160D02*
X000160Y019451D01*
X029294Y019451D01*
X029294Y000160D01*
X000160Y000160D01*
D11*
X010192Y008148D03*
X010192Y008345D03*
X010192Y008542D03*
X010192Y008739D03*
X010192Y008936D03*
X010192Y009132D03*
X010192Y009329D03*
X010192Y009526D03*
X010192Y009723D03*
X010192Y009920D03*
X010192Y010117D03*
X010192Y010314D03*
X010192Y010510D03*
X010192Y010707D03*
X010192Y010904D03*
X010192Y011101D03*
X010192Y011298D03*
X010192Y011495D03*
X010192Y011692D03*
X010192Y011888D03*
X010192Y012085D03*
X010192Y012282D03*
X010192Y012479D03*
X010192Y012676D03*
X010192Y012873D03*
X016491Y012873D03*
X016491Y012676D03*
X016491Y012479D03*
X016491Y012282D03*
X016491Y012085D03*
X016491Y011888D03*
X016491Y011692D03*
X016491Y011495D03*
X016491Y011298D03*
X016491Y011101D03*
X016491Y010904D03*
X016491Y010707D03*
X016491Y010510D03*
X016491Y010314D03*
X016491Y010117D03*
X016491Y009920D03*
X016491Y009723D03*
X016491Y009526D03*
X016491Y009329D03*
X016491Y009132D03*
X016491Y008936D03*
X016491Y008739D03*
X016491Y008542D03*
X016491Y008345D03*
X016491Y008148D03*
D12*
X015703Y007361D03*
X015506Y007361D03*
X015310Y007361D03*
X015113Y007361D03*
X014916Y007361D03*
X014719Y007361D03*
X014522Y007361D03*
X014325Y007361D03*
X014129Y007361D03*
X013932Y007361D03*
X013735Y007361D03*
X013538Y007361D03*
X013341Y007361D03*
X013144Y007361D03*
X012947Y007361D03*
X012751Y007361D03*
X012554Y007361D03*
X012357Y007361D03*
X012160Y007361D03*
X011963Y007361D03*
X011766Y007361D03*
X011569Y007361D03*
X011373Y007361D03*
X011176Y007361D03*
X010979Y007361D03*
X010979Y013660D03*
X011176Y013660D03*
X011373Y013660D03*
X011569Y013660D03*
X011766Y013660D03*
X011963Y013660D03*
X012160Y013660D03*
X012357Y013660D03*
X012554Y013660D03*
X012751Y013660D03*
X012947Y013660D03*
X013144Y013660D03*
X013341Y013660D03*
X013538Y013660D03*
X013735Y013660D03*
X013932Y013660D03*
X014129Y013660D03*
X014325Y013660D03*
X014522Y013660D03*
X014719Y013660D03*
X014916Y013660D03*
X015113Y013660D03*
X015310Y013660D03*
X015506Y013660D03*
X015703Y013660D03*
D13*
X027335Y015495D03*
X027591Y015495D03*
X027847Y015495D03*
X028103Y015495D03*
X028103Y017109D03*
X027847Y017109D03*
X027591Y017109D03*
X027335Y017109D03*
D14*
X027384Y018664D03*
X028054Y018664D03*
X025298Y018664D03*
X024629Y018664D03*
X024629Y015121D03*
X025298Y015121D03*
X027384Y013940D03*
X028054Y013940D03*
X007188Y002129D03*
X006518Y002129D03*
D15*
X003821Y002503D03*
X002798Y002503D03*
X002798Y002129D03*
X002798Y001755D03*
X003821Y001755D03*
X024451Y012778D03*
X024451Y013152D03*
X024451Y013526D03*
X025475Y013526D03*
X025475Y012778D03*
X025475Y016321D03*
X024451Y016321D03*
X024451Y016695D03*
X024451Y017069D03*
X025475Y017069D03*
D16*
X022995Y017542D03*
X022995Y018211D03*
X022995Y014668D03*
X022995Y013999D03*
X000947Y003251D03*
X000947Y002581D03*
D17*
X010003Y005731D03*
X010003Y006400D03*
X005278Y009668D03*
X005278Y010337D03*
X005278Y011636D03*
X005278Y012306D03*
X005278Y013605D03*
X005278Y014274D03*
X005278Y015573D03*
X005278Y016243D03*
X011184Y015967D03*
X011184Y016636D03*
X012365Y016636D03*
X012365Y015967D03*
X012365Y017542D03*
X012365Y018211D03*
X013546Y018211D03*
X013546Y017542D03*
X014491Y016636D03*
X014491Y015967D03*
X017483Y007188D03*
X017483Y006518D03*
D18*
X018723Y011577D03*
X019392Y011577D03*
X019451Y013999D03*
X019451Y014668D03*
X021026Y014668D03*
X021026Y013999D03*
X020180Y015908D03*
X019510Y015908D03*
X017877Y014668D03*
X017877Y013999D03*
X013546Y015967D03*
X013546Y016636D03*
X009550Y016695D03*
X008881Y016695D03*
X008881Y015514D03*
X009550Y015514D03*
X009550Y014333D03*
X008881Y014333D03*
X008881Y017877D03*
X009550Y017877D03*
X003703Y016243D03*
X003703Y015573D03*
X003703Y014274D03*
X003703Y013605D03*
X003703Y012306D03*
X003703Y011636D03*
X003703Y010337D03*
X003703Y009668D03*
M02*
