G75*
%MOIN*%
%OFA0B0*%
%FSLAX24Y24*%
%IPPOS*%
%LPD*%
%AMOC8*
5,1,8,0,0,1.08239X$1,22.5*
%
%ADD10C,0.0000*%
%ADD11R,0.0671X0.0188*%
%ADD12R,0.0188X0.0671*%
%ADD13C,0.0680*%
%ADD14R,0.0257X0.0474*%
%ADD15C,0.0710*%
%ADD16OC8,0.0710*%
%ADD17R,0.0592X0.0671*%
%ADD18R,0.0552X0.0297*%
%ADD19R,0.0671X0.0592*%
%ADD20R,0.0552X0.0552*%
%ADD21OC8,0.0680*%
%ADD22R,0.0474X0.0513*%
%ADD23R,0.0513X0.0474*%
D10*
X000160Y000160D02*
X000160Y019451D01*
X029294Y019451D01*
X029294Y000160D01*
X000160Y000160D01*
D11*
X010192Y008148D03*
X010192Y008345D03*
X010192Y008542D03*
X010192Y008739D03*
X010192Y008936D03*
X010192Y009132D03*
X010192Y009329D03*
X010192Y009526D03*
X010192Y009723D03*
X010192Y009920D03*
X010192Y010117D03*
X010192Y010314D03*
X010192Y010510D03*
X010192Y010707D03*
X010192Y010904D03*
X010192Y011101D03*
X010192Y011298D03*
X010192Y011495D03*
X010192Y011692D03*
X010192Y011888D03*
X010192Y012085D03*
X010192Y012282D03*
X010192Y012479D03*
X010192Y012676D03*
X010192Y012873D03*
X016491Y012873D03*
X016491Y012676D03*
X016491Y012479D03*
X016491Y012282D03*
X016491Y012085D03*
X016491Y011888D03*
X016491Y011692D03*
X016491Y011495D03*
X016491Y011298D03*
X016491Y011101D03*
X016491Y010904D03*
X016491Y010707D03*
X016491Y010510D03*
X016491Y010314D03*
X016491Y010117D03*
X016491Y009920D03*
X016491Y009723D03*
X016491Y009526D03*
X016491Y009329D03*
X016491Y009132D03*
X016491Y008936D03*
X016491Y008739D03*
X016491Y008542D03*
X016491Y008345D03*
X016491Y008148D03*
D12*
X015703Y007361D03*
X015506Y007361D03*
X015310Y007361D03*
X015113Y007361D03*
X014916Y007361D03*
X014719Y007361D03*
X014522Y007361D03*
X014325Y007361D03*
X014129Y007361D03*
X013932Y007361D03*
X013735Y007361D03*
X013538Y007361D03*
X013341Y007361D03*
X013144Y007361D03*
X012947Y007361D03*
X012751Y007361D03*
X012554Y007361D03*
X012357Y007361D03*
X012160Y007361D03*
X011963Y007361D03*
X011766Y007361D03*
X011569Y007361D03*
X011373Y007361D03*
X011176Y007361D03*
X010979Y007361D03*
X010979Y013660D03*
X011176Y013660D03*
X011373Y013660D03*
X011569Y013660D03*
X011766Y013660D03*
X011963Y013660D03*
X012160Y013660D03*
X012357Y013660D03*
X012554Y013660D03*
X012751Y013660D03*
X012947Y013660D03*
X013144Y013660D03*
X013341Y013660D03*
X013538Y013660D03*
X013735Y013660D03*
X013932Y013660D03*
X014129Y013660D03*
X014325Y013660D03*
X014522Y013660D03*
X014719Y013660D03*
X014916Y013660D03*
X015113Y013660D03*
X015310Y013660D03*
X015506Y013660D03*
X015703Y013660D03*
D13*
X004636Y017970D02*
X004636Y018570D01*
X003636Y018570D02*
X003636Y017970D01*
X001247Y018227D02*
X000647Y018227D01*
X000647Y017227D02*
X001247Y017227D01*
X001247Y016227D02*
X000647Y016227D01*
X000647Y015227D02*
X001247Y015227D01*
X001247Y014227D02*
X000647Y014227D01*
X000647Y013227D02*
X001247Y013227D01*
X001247Y012227D02*
X000647Y012227D01*
X000647Y011227D02*
X001247Y011227D01*
X001247Y008747D02*
X000647Y008747D01*
X000647Y007747D02*
X001247Y007747D01*
X001247Y006747D02*
X000647Y006747D01*
X000647Y005747D02*
X001247Y005747D01*
X009309Y001841D02*
X009909Y001841D01*
X009909Y000841D02*
X009309Y000841D01*
X027813Y004566D02*
X028413Y004566D01*
X028413Y005566D02*
X027813Y005566D01*
X027813Y006566D02*
X028413Y006566D01*
X028413Y007566D02*
X027813Y007566D01*
D14*
X027847Y015495D03*
X027591Y015495D03*
X027335Y015495D03*
X028103Y015495D03*
X028103Y017109D03*
X027847Y017109D03*
X027591Y017109D03*
X027335Y017109D03*
D15*
X027219Y011971D03*
X027219Y010003D03*
D16*
X028219Y010003D03*
X028219Y011971D03*
D17*
X028054Y013940D03*
X027384Y013940D03*
X025298Y015121D03*
X024629Y015121D03*
X024629Y018664D03*
X025298Y018664D03*
X027384Y018664D03*
X028054Y018664D03*
X007188Y002129D03*
X006518Y002129D03*
D18*
X003821Y002503D03*
X002798Y002503D03*
X002798Y002129D03*
X002798Y001755D03*
X003821Y001755D03*
X024451Y012778D03*
X024451Y013152D03*
X024451Y013526D03*
X025475Y013526D03*
X025475Y012778D03*
X025475Y016321D03*
X024451Y016321D03*
X024451Y016695D03*
X024451Y017069D03*
X025475Y017069D03*
D19*
X022995Y017542D03*
X022995Y018211D03*
X022995Y014668D03*
X022995Y013999D03*
X000947Y003251D03*
X000947Y002581D03*
D20*
X015471Y016022D03*
X018471Y016022D03*
X018471Y019022D03*
X015471Y019022D03*
D21*
X020132Y018770D03*
X021132Y018770D03*
X021132Y017770D03*
X020132Y017770D03*
X019664Y001841D03*
X018664Y001841D03*
X017664Y001841D03*
X016664Y001841D03*
X015664Y001802D03*
X014664Y001802D03*
X013664Y001802D03*
X012664Y001802D03*
X011664Y001802D03*
X011664Y000802D03*
X012664Y000802D03*
X013664Y000802D03*
X014664Y000802D03*
X015664Y000802D03*
X016664Y000841D03*
X017664Y000841D03*
X018664Y000841D03*
X019664Y000841D03*
X020664Y000841D03*
X021664Y000841D03*
X022664Y000841D03*
X023664Y000841D03*
X024664Y000841D03*
X025664Y000841D03*
X025664Y001841D03*
X024664Y001841D03*
X023664Y001841D03*
X022664Y001841D03*
X021664Y001841D03*
X020664Y001841D03*
D22*
X017483Y006518D03*
X017483Y007188D03*
X010003Y006400D03*
X010003Y005731D03*
X005278Y009668D03*
X005278Y010337D03*
X005278Y011636D03*
X005278Y012306D03*
X005278Y013605D03*
X005278Y014274D03*
X005278Y015573D03*
X005278Y016243D03*
X011184Y015967D03*
X011184Y016636D03*
X012365Y016636D03*
X012365Y015967D03*
X012365Y017542D03*
X012365Y018211D03*
X013546Y018211D03*
X013546Y017542D03*
X014491Y016636D03*
X014491Y015967D03*
D23*
X013546Y015967D03*
X013546Y016636D03*
X009550Y016695D03*
X008881Y016695D03*
X008881Y015514D03*
X009550Y015514D03*
X009550Y014333D03*
X008881Y014333D03*
X008881Y017877D03*
X009550Y017877D03*
X003703Y016243D03*
X003703Y015573D03*
X003703Y014274D03*
X003703Y013605D03*
X003703Y012306D03*
X003703Y011636D03*
X003703Y010337D03*
X003703Y009668D03*
X017877Y013999D03*
X017877Y014668D03*
X019451Y014668D03*
X019451Y013999D03*
X021026Y013999D03*
X021026Y014668D03*
X020180Y015908D03*
X019510Y015908D03*
X019392Y011577D03*
X018723Y011577D03*
M02*
