G75*
%MOIN*%
%OFA0B0*%
%FSLAX24Y24*%
%IPPOS*%
%LPD*%
%AMOC8*
5,1,8,0,0,1.08239X$1,22.5*
%
%ADD10C,0.0000*%
%ADD11R,0.0591X0.0108*%
%ADD12R,0.0108X0.0591*%
%ADD13C,0.0600*%
%ADD14R,0.0177X0.0394*%
%ADD15C,0.0630*%
%ADD16OC8,0.0630*%
%ADD17R,0.0512X0.0591*%
%ADD18R,0.0472X0.0217*%
%ADD19R,0.0591X0.0512*%
%ADD20R,0.0472X0.0472*%
%ADD21OC8,0.0600*%
%ADD22R,0.0394X0.0433*%
%ADD23R,0.0433X0.0394*%
%ADD24C,0.0120*%
%ADD25C,0.0120*%
%ADD26R,0.0354X0.0354*%
%ADD27C,0.0160*%
D10*
X000160Y000160D02*
X000160Y019451D01*
X029294Y019451D01*
X029294Y000160D01*
X000160Y000160D01*
D11*
X010192Y008148D03*
X010192Y008345D03*
X010192Y008542D03*
X010192Y008739D03*
X010192Y008936D03*
X010192Y009132D03*
X010192Y009329D03*
X010192Y009526D03*
X010192Y009723D03*
X010192Y009920D03*
X010192Y010117D03*
X010192Y010314D03*
X010192Y010510D03*
X010192Y010707D03*
X010192Y010904D03*
X010192Y011101D03*
X010192Y011298D03*
X010192Y011495D03*
X010192Y011692D03*
X010192Y011888D03*
X010192Y012085D03*
X010192Y012282D03*
X010192Y012479D03*
X010192Y012676D03*
X010192Y012873D03*
X016491Y012873D03*
X016491Y012676D03*
X016491Y012479D03*
X016491Y012282D03*
X016491Y012085D03*
X016491Y011888D03*
X016491Y011692D03*
X016491Y011495D03*
X016491Y011298D03*
X016491Y011101D03*
X016491Y010904D03*
X016491Y010707D03*
X016491Y010510D03*
X016491Y010314D03*
X016491Y010117D03*
X016491Y009920D03*
X016491Y009723D03*
X016491Y009526D03*
X016491Y009329D03*
X016491Y009132D03*
X016491Y008936D03*
X016491Y008739D03*
X016491Y008542D03*
X016491Y008345D03*
X016491Y008148D03*
D12*
X015703Y007361D03*
X015506Y007361D03*
X015310Y007361D03*
X015113Y007361D03*
X014916Y007361D03*
X014719Y007361D03*
X014522Y007361D03*
X014325Y007361D03*
X014129Y007361D03*
X013932Y007361D03*
X013735Y007361D03*
X013538Y007361D03*
X013341Y007361D03*
X013144Y007361D03*
X012947Y007361D03*
X012751Y007361D03*
X012554Y007361D03*
X012357Y007361D03*
X012160Y007361D03*
X011963Y007361D03*
X011766Y007361D03*
X011569Y007361D03*
X011373Y007361D03*
X011176Y007361D03*
X010979Y007361D03*
X010979Y013660D03*
X011176Y013660D03*
X011373Y013660D03*
X011569Y013660D03*
X011766Y013660D03*
X011963Y013660D03*
X012160Y013660D03*
X012357Y013660D03*
X012554Y013660D03*
X012751Y013660D03*
X012947Y013660D03*
X013144Y013660D03*
X013341Y013660D03*
X013538Y013660D03*
X013735Y013660D03*
X013932Y013660D03*
X014129Y013660D03*
X014325Y013660D03*
X014522Y013660D03*
X014719Y013660D03*
X014916Y013660D03*
X015113Y013660D03*
X015310Y013660D03*
X015506Y013660D03*
X015703Y013660D03*
D13*
X004636Y017970D02*
X004636Y018570D01*
X003636Y018570D02*
X003636Y017970D01*
X001247Y018227D02*
X000647Y018227D01*
X000647Y017227D02*
X001247Y017227D01*
X001247Y016227D02*
X000647Y016227D01*
X000647Y015227D02*
X001247Y015227D01*
X001247Y014227D02*
X000647Y014227D01*
X000647Y013227D02*
X001247Y013227D01*
X001247Y012227D02*
X000647Y012227D01*
X000647Y011227D02*
X001247Y011227D01*
X001247Y008747D02*
X000647Y008747D01*
X000647Y007747D02*
X001247Y007747D01*
X001247Y006747D02*
X000647Y006747D01*
X000647Y005747D02*
X001247Y005747D01*
X009309Y001841D02*
X009909Y001841D01*
X009909Y000841D02*
X009309Y000841D01*
X027813Y004566D02*
X028413Y004566D01*
X028413Y005566D02*
X027813Y005566D01*
X027813Y006566D02*
X028413Y006566D01*
X028413Y007566D02*
X027813Y007566D01*
D14*
X027847Y015495D03*
X027591Y015495D03*
X027335Y015495D03*
X028103Y015495D03*
X028103Y017109D03*
X027847Y017109D03*
X027591Y017109D03*
X027335Y017109D03*
D15*
X027219Y011971D03*
X027219Y010003D03*
D16*
X028219Y010003D03*
X028219Y011971D03*
D17*
X028054Y013940D03*
X027384Y013940D03*
X025298Y015121D03*
X024629Y015121D03*
X024629Y018664D03*
X025298Y018664D03*
X027384Y018664D03*
X028054Y018664D03*
X007188Y002129D03*
X006518Y002129D03*
D18*
X003821Y002503D03*
X002798Y002503D03*
X002798Y002129D03*
X002798Y001755D03*
X003821Y001755D03*
X024451Y012778D03*
X024451Y013152D03*
X024451Y013526D03*
X025475Y013526D03*
X025475Y012778D03*
X025475Y016321D03*
X024451Y016321D03*
X024451Y016695D03*
X024451Y017069D03*
X025475Y017069D03*
D19*
X022995Y017542D03*
X022995Y018211D03*
X022995Y014668D03*
X022995Y013999D03*
X000947Y003251D03*
X000947Y002581D03*
D20*
X015471Y016022D03*
X018471Y016022D03*
X018471Y019022D03*
X015471Y019022D03*
D21*
X020132Y018770D03*
X021132Y018770D03*
X021132Y017770D03*
X020132Y017770D03*
X019664Y001841D03*
X018664Y001841D03*
X017664Y001841D03*
X016664Y001841D03*
X015664Y001802D03*
X014664Y001802D03*
X013664Y001802D03*
X012664Y001802D03*
X011664Y001802D03*
X011664Y000802D03*
X012664Y000802D03*
X013664Y000802D03*
X014664Y000802D03*
X015664Y000802D03*
X016664Y000841D03*
X017664Y000841D03*
X018664Y000841D03*
X019664Y000841D03*
X020664Y000841D03*
X021664Y000841D03*
X022664Y000841D03*
X023664Y000841D03*
X024664Y000841D03*
X025664Y000841D03*
X025664Y001841D03*
X024664Y001841D03*
X023664Y001841D03*
X022664Y001841D03*
X021664Y001841D03*
X020664Y001841D03*
D22*
X017483Y006518D03*
X017483Y007188D03*
X010003Y006400D03*
X010003Y005731D03*
X005278Y009668D03*
X005278Y010337D03*
X005278Y011636D03*
X005278Y012306D03*
X005278Y013605D03*
X005278Y014274D03*
X005278Y015573D03*
X005278Y016243D03*
X011184Y015967D03*
X011184Y016636D03*
X012365Y016636D03*
X012365Y015967D03*
X012365Y017542D03*
X012365Y018211D03*
X013546Y018211D03*
X013546Y017542D03*
X014491Y016636D03*
X014491Y015967D03*
D23*
X013546Y015967D03*
X013546Y016636D03*
X009550Y016695D03*
X008881Y016695D03*
X008881Y015514D03*
X009550Y015514D03*
X009550Y014333D03*
X008881Y014333D03*
X008881Y017877D03*
X009550Y017877D03*
X003703Y016243D03*
X003703Y015573D03*
X003703Y014274D03*
X003703Y013605D03*
X003703Y012306D03*
X003703Y011636D03*
X003703Y010337D03*
X003703Y009668D03*
X017877Y013999D03*
X017877Y014668D03*
X019451Y014668D03*
X019451Y013999D03*
X021026Y013999D03*
X021026Y014668D03*
X020180Y015908D03*
X019510Y015908D03*
X019392Y011577D03*
X018723Y011577D03*
D24*
X018609Y011692D01*
X016491Y011692D01*
X016896Y011692D01*
X017562Y011026D01*
X018432Y010510D02*
X025664Y003278D01*
X025664Y001841D01*
X025160Y001345D02*
X025664Y000841D01*
X025160Y001345D02*
X025160Y003388D01*
X018235Y010314D01*
X016491Y010314D01*
X016491Y010510D02*
X018432Y010510D01*
X018038Y010117D02*
X024664Y003491D01*
X024664Y001841D01*
X024176Y001329D02*
X024664Y000841D01*
X024176Y001329D02*
X024176Y003585D01*
X018038Y009723D01*
X016491Y009723D01*
X016491Y009526D02*
X017841Y009526D01*
X023664Y003703D01*
X023664Y001841D01*
X023152Y001353D02*
X023664Y000841D01*
X023152Y001353D02*
X023152Y003861D01*
X017684Y009329D01*
X016491Y009329D01*
X016491Y009132D02*
X017526Y009132D01*
X022664Y003995D01*
X022664Y001841D01*
X022168Y001262D02*
X022589Y000841D01*
X022664Y000841D01*
X022168Y001262D02*
X022168Y004136D01*
X017369Y008936D01*
X016491Y008936D01*
X016491Y008542D02*
X017211Y008542D01*
X017483Y008270D01*
X017483Y007188D01*
X017483Y006518D02*
X017030Y006518D01*
X016538Y007010D01*
X016538Y007286D01*
X015703Y007361D02*
X015703Y007058D01*
X020664Y002097D01*
X020664Y001841D01*
X020160Y002168D02*
X020160Y001262D01*
X020581Y000841D01*
X020664Y000841D01*
X019664Y000841D02*
X019176Y001329D01*
X019176Y002168D01*
X016735Y004609D01*
X015278Y004609D01*
X015113Y004774D01*
X015113Y007361D01*
X015310Y007361D02*
X015310Y005483D01*
X015908Y004884D01*
X016853Y004884D01*
X019664Y002073D01*
X019664Y001841D01*
X020160Y002168D02*
X017168Y005160D01*
X016105Y005160D01*
X015506Y005758D01*
X015506Y007361D01*
X014916Y007361D02*
X014916Y004656D01*
X015278Y004294D01*
X016656Y004294D01*
X018664Y002286D01*
X018664Y001841D01*
X018152Y001353D02*
X018664Y000841D01*
X018152Y001353D02*
X018152Y002404D01*
X016577Y003979D01*
X015239Y003979D01*
X014719Y004499D01*
X014719Y007361D01*
X014522Y007361D02*
X014522Y004302D01*
X015121Y003703D01*
X016302Y003703D01*
X017664Y002341D01*
X017664Y001841D01*
X017168Y001337D02*
X017664Y000841D01*
X017168Y001337D02*
X017168Y002444D01*
X016302Y003310D01*
X015121Y003310D01*
X014325Y004105D01*
X014325Y007361D01*
X013735Y007361D02*
X013735Y009010D01*
X014018Y009294D01*
X014018Y010318D01*
X013743Y010593D01*
X011971Y010707D02*
X011971Y010396D01*
X011971Y010117D01*
X010192Y010117D01*
X010192Y010314D02*
X009258Y010314D01*
X008821Y010751D01*
X009062Y010510D01*
X010192Y010510D01*
X010192Y010707D02*
X011971Y010707D01*
X011302Y011105D02*
X011109Y011298D01*
X010192Y011298D01*
X010192Y011495D02*
X011971Y011495D01*
X011971Y011774D01*
X011971Y012085D01*
X010192Y012085D01*
X010192Y011888D02*
X009294Y011888D01*
X009294Y011692D01*
X010192Y011692D01*
X010192Y012282D02*
X009294Y012282D01*
X008983Y012282D01*
X008703Y012562D01*
X008861Y012995D02*
X005888Y012995D01*
X005278Y013605D01*
X005278Y014274D02*
X004825Y014274D01*
X004156Y013605D01*
X003703Y013605D01*
X003251Y013152D01*
X002916Y013152D01*
X001991Y012227D01*
X000947Y012227D01*
X000947Y011227D02*
X003294Y011227D01*
X003703Y011636D01*
X004156Y011636D01*
X004825Y012306D01*
X005278Y012306D01*
X005278Y011636D02*
X005731Y011184D01*
X009018Y011184D01*
X009298Y010904D01*
X010192Y010904D01*
X010192Y011101D02*
X009455Y011101D01*
X008940Y011617D01*
X008743Y011617D01*
X009294Y011888D02*
X009294Y012282D01*
X009180Y012676D02*
X008861Y012995D01*
X009180Y012676D02*
X010192Y012676D01*
X010192Y012873D02*
X009794Y013270D01*
X008703Y013270D01*
X006853Y015121D01*
X005731Y015121D01*
X005278Y015573D01*
X004825Y016243D02*
X004156Y015573D01*
X003703Y015573D01*
X003369Y015573D01*
X002022Y014227D01*
X000947Y014227D01*
X002916Y014333D02*
X003644Y014333D01*
X003703Y014274D01*
X003644Y012365D02*
X002916Y012365D01*
X003644Y012365D02*
X003703Y012306D01*
X003644Y010396D02*
X002916Y010396D01*
X002463Y009668D02*
X002129Y010003D01*
X002463Y009668D02*
X003703Y009668D01*
X004156Y009668D01*
X004825Y010337D01*
X005278Y010337D01*
X005278Y009668D02*
X005420Y009526D01*
X010192Y009526D01*
X010192Y009329D02*
X009369Y009329D01*
X009215Y009176D01*
X010192Y009132D02*
X011971Y009132D01*
X011971Y009215D01*
X011971Y008936D01*
X010192Y008936D01*
X010192Y008739D02*
X007991Y008739D01*
X006892Y007640D01*
X001054Y007640D01*
X000947Y007747D01*
X000947Y006747D02*
X006274Y006747D01*
X008069Y008542D01*
X010192Y008542D01*
X010192Y008345D02*
X008148Y008345D01*
X005550Y005747D01*
X000947Y005747D01*
X001971Y002877D02*
X002424Y002877D01*
X002798Y002503D01*
X001971Y002877D02*
X001676Y002581D01*
X000947Y002581D01*
X001774Y001755D01*
X002798Y001755D01*
X006853Y002916D02*
X008034Y004097D01*
X008034Y007247D01*
X010003Y007361D02*
X010003Y006400D01*
X010003Y005731D02*
X010003Y004884D01*
X010790Y006066D02*
X010790Y003597D01*
X009609Y002416D01*
X009609Y001841D01*
X011569Y003318D02*
X012168Y002719D01*
X012168Y001223D01*
X012589Y000802D01*
X012664Y000802D01*
X013152Y001314D02*
X013664Y000802D01*
X014176Y001223D02*
X014597Y000802D01*
X014664Y000802D01*
X014176Y001223D02*
X014176Y002286D01*
X012357Y004105D01*
X012357Y007361D01*
X012554Y007361D02*
X012554Y004302D01*
X014664Y002192D01*
X014664Y001802D01*
X015160Y002089D02*
X015160Y001306D01*
X015664Y000802D01*
X015664Y001802D02*
X015664Y001979D01*
X012947Y004695D01*
X012947Y007361D01*
X012751Y007361D02*
X012751Y004499D01*
X015160Y002089D01*
X013664Y001802D02*
X013664Y002404D01*
X012160Y003908D01*
X012160Y007361D01*
X011963Y007361D02*
X011963Y003711D01*
X013152Y002522D01*
X013152Y001314D01*
X012664Y001802D02*
X012664Y002617D01*
X011766Y003514D01*
X011766Y007361D01*
X011569Y007361D02*
X011569Y003318D01*
X010790Y006066D02*
X011373Y006648D01*
X011373Y007361D01*
X011184Y007361D02*
X011184Y008428D01*
X010003Y007404D02*
X010003Y007361D01*
X011176Y007361D02*
X011184Y007361D01*
X010192Y009723D02*
X006818Y009723D01*
X006381Y010160D01*
X008664Y010121D02*
X008865Y009920D01*
X010192Y009920D01*
X012758Y012640D02*
X012751Y012648D01*
X012751Y013660D01*
X012947Y013660D02*
X012947Y012829D01*
X012758Y012640D01*
X012554Y012845D01*
X012554Y013660D01*
X012357Y013660D02*
X012357Y014814D01*
X012255Y014814D01*
X012247Y014806D01*
X012160Y014719D01*
X012160Y013660D01*
X011766Y013660D02*
X011766Y015384D01*
X011184Y015967D01*
X010554Y015632D02*
X010554Y017010D01*
X009688Y017877D01*
X009550Y017877D01*
X008881Y017877D02*
X008428Y017877D01*
X008034Y017483D01*
X008093Y017483D01*
X008881Y016695D01*
X009550Y016695D02*
X010239Y016006D01*
X010239Y015396D01*
X011373Y014262D01*
X011373Y013660D01*
X011569Y013660D02*
X011569Y014617D01*
X010554Y015632D01*
X009550Y015514D02*
X010573Y014491D01*
X010829Y014491D01*
X011176Y014144D01*
X011176Y013660D01*
X010979Y013660D02*
X010223Y013660D01*
X009550Y014333D01*
X008881Y014333D02*
X008034Y015180D01*
X008034Y015514D01*
X008881Y015514D01*
X011184Y016636D02*
X011499Y016951D01*
X011499Y017247D01*
X011755Y017247D01*
X012365Y016636D01*
X012758Y017148D02*
X012365Y017542D01*
X011912Y017542D01*
X011577Y017877D01*
X011577Y018270D01*
X011971Y018664D01*
X013093Y018664D01*
X013546Y018211D01*
X013546Y017542D02*
X013546Y016636D01*
X012758Y017148D02*
X012758Y014727D01*
X013144Y014341D01*
X013144Y013660D01*
X013341Y013660D02*
X013341Y014538D01*
X013034Y014845D01*
X013034Y017542D01*
X012365Y018211D01*
X014412Y017522D02*
X014491Y017444D01*
X014491Y016636D01*
X014629Y015967D02*
X015396Y016735D01*
X017444Y016735D01*
X018428Y017719D01*
X018034Y016695D02*
X017168Y015829D01*
X016538Y015829D01*
X016105Y015396D01*
X015310Y014601D01*
X015310Y013660D01*
X014916Y013660D02*
X014916Y014758D01*
X015471Y015314D01*
X015471Y016022D01*
X014629Y015967D02*
X014491Y015967D01*
X013932Y015408D01*
X013932Y013660D01*
X014129Y013660D02*
X014129Y015605D01*
X014491Y015967D01*
X013546Y015967D02*
X013538Y015959D01*
X013538Y013660D01*
X014719Y013660D02*
X014719Y014302D01*
X014530Y014491D01*
X015947Y014609D02*
X017818Y014609D01*
X017877Y014668D01*
X017877Y013999D02*
X017617Y013999D01*
X016491Y012873D01*
X016491Y012676D02*
X018129Y012676D01*
X019451Y013999D01*
X019451Y013270D01*
X019113Y012085D02*
X021026Y013999D01*
X027459Y007566D01*
X028113Y007566D01*
X028113Y006566D02*
X027219Y006566D01*
X022207Y011577D01*
X023369Y012778D02*
X022995Y013152D01*
X022995Y013999D01*
X023762Y013999D01*
X024018Y014255D01*
X023467Y013526D02*
X022995Y013999D01*
X023467Y013526D02*
X024451Y013526D01*
X024451Y013152D02*
X024963Y013152D01*
X024963Y011971D01*
X024451Y012778D02*
X023369Y012778D01*
X022207Y013467D02*
X025672Y010003D01*
X027219Y010003D01*
X027219Y010684D01*
X027719Y011184D01*
X027719Y012562D01*
X026814Y013467D01*
X026814Y014451D01*
X027286Y014924D01*
X027601Y014924D01*
X027847Y015170D01*
X027847Y015495D01*
X027601Y015505D02*
X027601Y016262D01*
X027601Y015505D02*
X027591Y015495D01*
X027335Y015495D02*
X026538Y014697D01*
X026538Y012652D01*
X027219Y011971D01*
X028219Y011971D02*
X028219Y013774D01*
X028054Y013940D01*
X027384Y013940D02*
X027384Y014392D01*
X028103Y015111D01*
X028103Y015495D01*
X026420Y016243D02*
X026420Y016695D01*
X026420Y016243D02*
X025298Y015121D01*
X025475Y014944D01*
X025475Y013526D01*
X024629Y015121D02*
X023546Y015121D01*
X022995Y015672D01*
X022995Y014668D01*
X022207Y013940D02*
X022207Y013467D01*
X022207Y013940D02*
X021479Y014668D01*
X021026Y014668D01*
X021066Y015357D02*
X020514Y015908D01*
X020180Y015908D01*
X019510Y015908D02*
X019396Y016022D01*
X018471Y016022D01*
X018034Y016695D02*
X020058Y016695D01*
X021132Y017770D01*
X020632Y018270D02*
X016538Y018270D01*
X015947Y017680D01*
X019510Y015908D02*
X019510Y014727D01*
X019451Y014668D01*
X017877Y013999D02*
X017877Y013270D01*
X019113Y012085D02*
X016491Y012085D01*
X016491Y010117D02*
X018038Y010117D01*
X019392Y010810D02*
X019491Y010711D01*
X019392Y010810D02*
X019392Y011577D01*
X020475Y012247D02*
X027156Y005566D01*
X028113Y005566D01*
X023940Y015711D02*
X024451Y016223D01*
X024451Y016321D01*
X023369Y016321D01*
X022995Y016695D01*
X022995Y017542D01*
X023467Y017069D01*
X024451Y017069D01*
X024451Y016695D02*
X024963Y016695D01*
X024963Y017483D01*
X024294Y017483D01*
X024018Y017758D01*
X023566Y018211D01*
X022995Y018211D01*
X024018Y017758D02*
X024629Y018369D01*
X024629Y018664D01*
X025298Y018664D02*
X025475Y018487D01*
X025475Y017069D01*
X026538Y017877D02*
X027325Y018664D01*
X027384Y018664D01*
X028054Y018664D02*
X028054Y017158D01*
X028103Y017109D01*
X027847Y017109D01*
X027591Y017109D01*
X027335Y017109D01*
X027325Y017119D01*
X027325Y017719D01*
X021132Y018770D02*
X020632Y018270D01*
X012365Y015967D02*
X012357Y015959D01*
X012357Y014814D01*
X005278Y016243D02*
X004825Y016243D01*
X003703Y016243D02*
X003644Y016302D01*
X002916Y016302D01*
X003644Y010396D02*
X003703Y010337D01*
D25*
X010003Y007361D02*
X010979Y007361D01*
X013538Y007361D02*
X013546Y007353D01*
X013546Y006066D01*
X013940Y005278D02*
X013940Y007353D01*
X013932Y007361D01*
X013932Y008814D01*
X014333Y009215D01*
X014333Y010396D01*
X014727Y010790D01*
X015038Y011101D01*
X016491Y011101D01*
X016491Y011298D02*
X015121Y011298D01*
X015121Y011892D01*
X015121Y011495D01*
X016491Y011495D01*
X016491Y011888D02*
X015125Y011888D01*
X015121Y011892D01*
X015479Y012282D02*
X015282Y012479D01*
X015121Y012640D01*
X015703Y013223D01*
X015703Y013660D01*
X015506Y013660D01*
X015113Y013660D02*
X015113Y012648D01*
X015121Y012640D01*
X015282Y012479D02*
X016491Y012479D01*
X016491Y012282D02*
X015479Y012282D01*
X014522Y012751D02*
X014412Y012640D01*
X014325Y012727D01*
X014325Y013660D01*
X014522Y013660D02*
X014522Y012751D01*
X013743Y012640D02*
X013735Y012648D01*
X013735Y013660D01*
X011963Y013660D02*
X011963Y012648D01*
X011794Y012479D01*
X010192Y012479D01*
X011963Y012648D02*
X011971Y012640D01*
X015121Y010318D02*
X015121Y009215D01*
X015597Y008739D01*
X016491Y008739D01*
X016491Y008542D02*
X015006Y008542D01*
X014629Y008920D01*
X014333Y009215D01*
X015125Y009920D02*
X015121Y010318D01*
X015125Y009920D02*
X016491Y009920D01*
X014491Y008310D02*
X014129Y007947D01*
X014129Y007361D01*
X007188Y002581D02*
X007188Y002129D01*
X007188Y002581D02*
X006853Y002916D01*
X004235Y002916D01*
X003821Y002503D01*
X002798Y002129D02*
X005278Y002129D01*
X006518Y002129D01*
X000947Y003251D02*
X000947Y004097D01*
D26*
X000947Y004097D03*
X001971Y002877D03*
X005278Y002129D03*
X010003Y004884D03*
X008821Y006066D03*
X008034Y007247D03*
X010003Y007404D03*
X011184Y008428D03*
X011971Y009215D03*
X011971Y010396D03*
X011302Y011105D03*
X011971Y011774D03*
X011971Y012640D03*
X012758Y012640D03*
X013743Y012640D03*
X014412Y012640D03*
X015121Y012640D03*
X015121Y011892D03*
X014727Y010790D03*
X015121Y010318D03*
X013743Y010593D03*
X014629Y008920D03*
X014491Y008310D03*
X016538Y007286D03*
X013940Y005278D03*
X013861Y004491D03*
X013546Y006066D03*
X009215Y009176D03*
X008664Y010121D03*
X008821Y010751D03*
X008743Y011617D03*
X008703Y012562D03*
X006892Y013979D03*
X008034Y015514D03*
X006774Y016892D03*
X008034Y017483D03*
X011499Y017247D03*
X011774Y016302D03*
X012247Y014806D03*
X014530Y014491D03*
X015947Y014609D03*
X016105Y015396D03*
X016695Y013940D03*
X017877Y013270D03*
X019451Y013270D03*
X020475Y012247D03*
X022207Y011577D03*
X024963Y011971D03*
X024018Y014255D03*
X023940Y015711D03*
X022995Y015672D03*
X021066Y015357D03*
X018428Y017719D03*
X015947Y017680D03*
X014412Y017522D03*
X006459Y011971D03*
X006381Y010790D03*
X006381Y010160D03*
X006932Y008625D03*
X002916Y010396D03*
X002129Y010003D03*
X002916Y012365D03*
X002916Y014333D03*
X002916Y016302D03*
X017562Y011026D03*
X019491Y010711D03*
X027601Y016262D03*
X026420Y016695D03*
X027325Y017719D03*
X026538Y017877D03*
X024018Y017758D03*
D27*
X021026Y014668D02*
X019451Y014668D01*
X017877Y014668D01*
M02*
