G75*
%MOIN*%
%OFA0B0*%
%FSLAX24Y24*%
%IPPOS*%
%LPD*%
%AMOC8*
5,1,8,0,0,1.08239X$1,22.5*
%
%ADD10C,0.0000*%
%ADD11C,0.0080*%
%ADD12C,0.0118*%
%ADD13C,0.0030*%
%ADD14C,0.0040*%
%ADD15C,0.0060*%
%ADD16C,0.0050*%
D10*
X000160Y000160D02*
X000160Y019451D01*
X029294Y019451D01*
X029294Y000160D01*
X000160Y000160D01*
D11*
X012719Y015711D02*
X012719Y016105D01*
X013585Y016105D02*
X013585Y015711D01*
D12*
X012896Y015987D03*
D13*
X013716Y016215D02*
X013716Y016462D01*
X013777Y016584D02*
X013777Y016707D01*
X013777Y016645D02*
X014148Y016645D01*
X014148Y016584D02*
X014148Y016707D01*
X014086Y016829D02*
X013839Y016829D01*
X013777Y016891D01*
X013777Y017014D01*
X013839Y017076D01*
X014086Y017076D02*
X014148Y017014D01*
X014148Y016891D01*
X014086Y016829D01*
X014086Y016094D02*
X014148Y016032D01*
X014148Y015909D01*
X014086Y015847D01*
X013839Y015847D01*
X013777Y015909D01*
X013777Y016032D01*
X013839Y016094D01*
X013777Y015725D02*
X014148Y015725D01*
X014148Y015479D02*
X013777Y015725D01*
X013777Y015479D02*
X014148Y015479D01*
X014148Y015357D02*
X014086Y015357D01*
X013963Y015234D01*
X013777Y015234D01*
X013963Y015234D02*
X014086Y015110D01*
X014148Y015110D01*
X014086Y014989D02*
X014148Y014927D01*
X014148Y014804D01*
X014086Y014742D01*
X014024Y014742D01*
X013963Y014804D01*
X013963Y014927D01*
X013901Y014989D01*
X013839Y014989D01*
X013777Y014927D01*
X013777Y014804D01*
X013839Y014742D01*
D14*
X010626Y016428D02*
X010626Y016888D01*
X010396Y016888D01*
X010319Y016812D01*
X010319Y016658D01*
X010396Y016582D01*
X010626Y016582D01*
X010473Y016582D02*
X010319Y016428D01*
X010166Y016505D02*
X010089Y016428D01*
X009936Y016428D01*
X009859Y016505D01*
X009859Y016658D01*
X009936Y016735D01*
X010012Y016735D01*
X010166Y016658D01*
X010166Y016888D01*
X009859Y016888D01*
X009887Y017015D02*
X009810Y017092D01*
X009810Y017246D01*
X009887Y017322D01*
X009810Y017476D02*
X009810Y017783D01*
X009810Y017629D02*
X010270Y017629D01*
X010117Y017476D01*
X010194Y017322D02*
X010270Y017246D01*
X010270Y017092D01*
X010194Y017015D01*
X009887Y017015D01*
X009887Y017936D02*
X009810Y018013D01*
X009810Y018166D01*
X009887Y018243D01*
X010194Y018243D01*
X010270Y018166D01*
X010270Y018013D01*
X010194Y017936D01*
X010117Y017936D01*
X010040Y018013D01*
X010040Y018243D01*
X016109Y018176D02*
X016109Y017869D01*
X016109Y018023D02*
X016570Y018023D01*
X016416Y017869D01*
X016493Y017716D02*
X016570Y017639D01*
X016570Y017486D01*
X016493Y017409D01*
X016186Y017409D01*
X016109Y017486D01*
X016109Y017639D01*
X016186Y017716D01*
X016109Y018330D02*
X016416Y018637D01*
X016493Y018637D01*
X016570Y018560D01*
X016570Y018407D01*
X016493Y018330D01*
X016109Y018330D02*
X016109Y018637D01*
X008191Y012756D02*
X008114Y012833D01*
X007961Y012833D01*
X007884Y012756D01*
X007731Y012756D02*
X007654Y012833D01*
X007501Y012833D01*
X007424Y012756D01*
X007424Y012679D01*
X007501Y012602D01*
X007424Y012526D01*
X007424Y012449D01*
X007501Y012372D01*
X007654Y012372D01*
X007731Y012449D01*
X007884Y012449D02*
X007961Y012372D01*
X008114Y012372D01*
X008191Y012449D01*
X008191Y012756D01*
X007577Y012602D02*
X007501Y012602D01*
X007501Y011651D02*
X007424Y011575D01*
X007731Y011268D01*
X007654Y011191D01*
X007501Y011191D01*
X007424Y011268D01*
X007424Y011575D01*
X007501Y011651D02*
X007654Y011651D01*
X007731Y011575D01*
X007731Y011268D01*
X007884Y011191D02*
X008191Y011191D01*
X008038Y011191D02*
X008038Y011651D01*
X008191Y011498D01*
X008345Y011575D02*
X008421Y011651D01*
X008575Y011651D01*
X008652Y011575D01*
X008652Y011268D01*
X008575Y011191D01*
X008421Y011191D01*
X008345Y011268D01*
X008114Y010470D02*
X008191Y010394D01*
X008191Y010087D01*
X008114Y010010D01*
X007961Y010010D01*
X007884Y010087D01*
X007731Y010240D02*
X007424Y010240D01*
X007501Y010010D02*
X007501Y010470D01*
X007731Y010240D01*
X007884Y010394D02*
X007961Y010470D01*
X008114Y010470D01*
X008114Y009289D02*
X008191Y009213D01*
X008191Y008906D01*
X008114Y008829D01*
X007961Y008829D01*
X007884Y008906D01*
X007731Y008906D02*
X007731Y008829D01*
X007731Y008906D02*
X007424Y009213D01*
X007424Y009289D01*
X007731Y009289D01*
X007884Y009213D02*
X007961Y009289D01*
X008114Y009289D01*
X006846Y008712D02*
X006386Y008712D01*
X006386Y008865D02*
X006386Y008558D01*
X006462Y008405D02*
X006386Y008328D01*
X006386Y008174D01*
X006462Y008098D01*
X006769Y008098D01*
X006846Y008174D01*
X006846Y008328D01*
X006769Y008405D01*
X006692Y008558D02*
X006846Y008712D01*
X008435Y008251D02*
X008435Y007944D01*
X008742Y008251D01*
X008819Y008251D01*
X008896Y008174D01*
X008896Y008020D01*
X008819Y007944D01*
X008819Y007790D02*
X008896Y007713D01*
X008896Y007560D01*
X008819Y007483D01*
X008512Y007483D01*
X008435Y007560D01*
X008435Y007713D01*
X008512Y007790D01*
X013078Y006099D02*
X013078Y005946D01*
X013155Y005869D01*
X013078Y005715D02*
X013078Y005409D01*
X013385Y005715D01*
X013462Y005715D01*
X013539Y005639D01*
X013539Y005485D01*
X013462Y005409D01*
X013462Y005255D02*
X013539Y005178D01*
X013539Y005025D01*
X013462Y004948D01*
X013155Y004948D01*
X013078Y005025D01*
X013078Y005178D01*
X013155Y005255D01*
X013462Y005869D02*
X013539Y005946D01*
X013539Y006099D01*
X013462Y006176D01*
X013385Y006176D01*
X013309Y006099D01*
X013232Y006176D01*
X013155Y006176D01*
X013078Y006099D01*
X013309Y006099D02*
X013309Y006022D01*
X015441Y006099D02*
X015901Y006099D01*
X015671Y005869D01*
X015671Y006176D01*
X015748Y005715D02*
X015824Y005715D01*
X015901Y005639D01*
X015901Y005485D01*
X015824Y005409D01*
X015824Y005255D02*
X015901Y005178D01*
X015901Y005025D01*
X015824Y004948D01*
X015517Y004948D01*
X015441Y005025D01*
X015441Y005178D01*
X015517Y005255D01*
X015441Y005409D02*
X015748Y005715D01*
X015441Y005715D02*
X015441Y005409D01*
X013405Y011897D02*
X013252Y011897D01*
X013175Y011974D01*
X013022Y011974D02*
X012945Y011897D01*
X012792Y011897D01*
X012715Y011974D01*
X012715Y012281D01*
X012792Y012358D01*
X012945Y012358D01*
X013022Y012281D01*
X013022Y012204D01*
X012945Y012128D01*
X012715Y012128D01*
X013175Y012281D02*
X013252Y012358D01*
X013405Y012358D01*
X013482Y012281D01*
X013482Y011974D01*
X013405Y011897D01*
D15*
X001447Y011977D02*
X001197Y011727D01*
X000697Y011727D01*
X000447Y011977D01*
X000447Y012477D01*
X000697Y012727D01*
X001197Y012727D01*
X001447Y012477D01*
X001447Y011977D01*
X001197Y011727D02*
X001447Y011477D01*
X001447Y010977D01*
X001197Y010727D01*
X000697Y010727D01*
X000447Y010977D01*
X000447Y011477D01*
X000697Y011727D01*
X000697Y012727D02*
X000447Y012977D01*
X000447Y013477D01*
X000697Y013727D01*
X000447Y013977D01*
X000447Y014477D01*
X000697Y014727D01*
X000447Y014977D01*
X000447Y015477D01*
X000697Y015727D01*
X001197Y015727D01*
X001447Y015477D01*
X001447Y014977D01*
X001197Y014727D01*
X000697Y014727D01*
X001197Y014727D02*
X001447Y014477D01*
X001447Y013977D01*
X001197Y013727D01*
X000697Y013727D01*
X001197Y013727D02*
X001447Y013477D01*
X001447Y012977D01*
X001197Y012727D01*
X001197Y015727D02*
X001447Y015977D01*
X001447Y016477D01*
X001197Y016727D01*
X001447Y016977D01*
X001447Y017477D01*
X001197Y017727D01*
X001447Y017977D01*
X001447Y018477D01*
X001197Y018727D01*
X000697Y018727D01*
X000447Y018477D01*
X000447Y017977D01*
X000697Y017727D01*
X000447Y017477D01*
X000447Y016977D01*
X000697Y016727D01*
X000447Y016477D01*
X000447Y015977D01*
X000697Y015727D01*
X000697Y016727D02*
X001197Y016727D01*
X001197Y017727D02*
X000697Y017727D01*
D16*
X002171Y012716D02*
X002171Y012416D01*
X002171Y012566D02*
X001721Y012566D01*
X001796Y012256D02*
X002171Y012256D01*
X001796Y012256D02*
X001721Y012181D01*
X001721Y012031D01*
X001796Y011956D01*
X002171Y011956D01*
X002096Y011796D02*
X001946Y011796D01*
X001871Y011720D01*
X001871Y011495D01*
X001721Y011495D02*
X002171Y011495D01*
X002171Y011720D01*
X002096Y011796D01*
X002171Y011335D02*
X001721Y011335D01*
X002171Y011035D01*
X001721Y011035D01*
X001721Y010878D02*
X001721Y010728D01*
X001721Y010803D02*
X002171Y010803D01*
X002171Y010728D02*
X002171Y010878D01*
M02*
